<svg width="15" height="15" viewBox="0 0 15 15" fill="none" xmlns="http://www.w3.org/2000/svg">
<g clip-path="url(#clip0)">
<path d="M11.2772 0.780745L9.46171 0.777832C7.42209 0.777832 6.104 2.13016 6.104 4.22325V5.81182H4.27863C4.1209 5.81182 3.99316 5.9397 3.99316 6.09743V8.39909C3.99316 8.55682 4.12104 8.68456 4.27863 8.68456H6.104V14.4924C6.104 14.6501 6.23173 14.7778 6.38946 14.7778H8.77106C8.92879 14.7778 9.05652 14.65 9.05652 14.4924V8.68456H11.1908C11.3485 8.68456 11.4763 8.55682 11.4763 8.39909L11.4771 6.09743C11.4771 6.0217 11.447 5.94916 11.3935 5.89557C11.3401 5.84197 11.2673 5.81182 11.1915 5.81182H9.05652V4.46517C9.05652 3.81792 9.21076 3.48934 10.0539 3.48934L11.2769 3.4889C11.4345 3.4889 11.5622 3.36102 11.5622 3.20343V1.06621C11.5622 0.908768 11.4346 0.781036 11.2772 0.780745Z" fill="black"/>
</g>
<defs>
<clipPath id="clip0">
<rect width="14" height="14" fill="white" transform="translate(0.777832 0.777832)"/>
</clipPath>
</defs>
</svg>
