<svg width="1024" height="660" viewBox="0 0 1024 660" fill="none" xmlns="http://www.w3.org/2000/svg">
<g opacity="0.66">
<path opacity="0.76" d="M459.525 552.747C455.585 562.611 447.243 570.107 437.061 573.309C435.538 573.782 433.889 574.256 432.173 574.673C428.956 575.462 425.458 576.094 421.777 576.397C416.358 680.799 230.112 624.759 230.112 624.759C193.628 640.925 138.654 620.949 137.728 620.589C103.987 607.85 109.372 578.653 109.372 578.653C109.372 578.653 109.654 577.345 110.354 575.305C112.228 569.871 117.082 559.251 127.705 554.19L128.043 552.51C128.043 552.51 131.869 513.066 170.205 510.213C187.363 508.939 198.267 515.095 205.097 522.286C208.258 506.38 225.066 457.409 311.716 465.391C314.786 465.774 342.126 468.096 356.113 501.172C356.113 501.172 411.064 471.4 445.877 504.655C452.38 510.856 456.567 516.954 459.13 522.772C464.221 534.36 462.674 544.822 459.525 552.747Z" fill="#3E66F4"/>
<path opacity="0.28" d="M421.777 577.266C416.371 681.689 230.101 625.628 230.101 625.628C193.618 641.805 138.654 621.817 137.728 621.468C103.977 608.718 109.361 579.531 109.361 579.531C109.361 579.531 114.611 554.821 137.142 552.442C156.795 550.356 162.947 564.211 164.189 567.774C156.028 559.916 120.774 572.16 133.631 596.904C137.673 604.694 150.552 611.39 167.384 614.58C193.166 619.473 220.293 613.972 232.991 605.178C232.675 605.651 376.263 640.508 402.294 602.665C408.491 594.852 412.499 585.867 415.073 577.435C417.353 577.513 419.61 577.458 421.777 577.266Z" fill="black"/>
<path opacity="0.28" d="M458.296 552.398C454.367 562.261 446.014 569.758 435.821 572.96C431.452 574.346 426.203 575.586 420.548 576.037C418.369 576.229 416.123 576.286 413.842 576.206C403.028 575.811 391.402 572.023 381.749 561.044L381.468 560.988L381.749 560.728C381.749 560.728 398.557 567.03 416.417 565.992C417.567 565.914 418.719 565.824 419.893 565.689H419.915C437.605 563.66 455.338 553.615 457.924 522.422C462.992 534.011 461.457 544.472 458.296 552.398Z" fill="black"/>
<path opacity="0.66" d="M128.088 553.908C128.088 553.908 154.447 543.695 164.03 567.538" stroke="#737373" stroke-miterlimit="10"/>
</g>
<path opacity="0.43" d="M292.617 352.737H292.402C277.083 363.098 237.179 359.108 237.179 359.108C237.179 359.108 221.173 372.771 171.165 372.026C121.169 371.294 115.344 346.571 115.344 346.571C106.11 351.362 14.2682 366.908 4.18763 337.35C4.0296 336.076 3.97315 334.893 4.04088 333.799C4.52628 323.947 13.4214 321.511 21.1314 321.443C15.8937 313.597 23.1182 303.395 23.1182 303.395C32.036 292.821 44.1596 289.924 55.9334 290.476C55.5157 273.961 64.5013 238.766 147.392 235.114C256.109 230.323 243.975 300.07 243.975 300.07C243.975 300.07 295.438 278.29 302.719 315.559C302.719 315.559 332.815 319.054 339.61 333.28C346.495 347.711 301.466 352.794 292.617 352.737Z" fill="#3E66F4"/>
<path opacity="0.26" d="M55.9221 290.465C75.2591 290.849 95.4992 302.551 95.4992 302.551C95.4992 302.551 32.4424 289.011 23.1069 303.384C23.1182 303.384 34.5307 290.036 55.9221 290.465Z" fill="#3E66F4"/>
<path opacity="0.26" d="M32.5783 323.213C32.5783 323.213 29.2933 321.613 21.1318 321.421" stroke="black" stroke-miterlimit="10"/>
<path opacity="0.26" d="M292.402 352.727C292.402 352.727 302.133 348.049 296.669 335.591" stroke="black" stroke-miterlimit="10"/>
<path opacity="0.21" d="M292.617 352.737H292.402C277.083 363.098 237.179 359.108 237.179 359.108C237.179 359.108 221.173 372.771 171.165 372.026C121.169 371.294 115.344 346.571 115.344 346.571C106.11 351.362 14.2682 366.908 4.18763 337.35C4.0296 336.077 3.97315 334.893 4.04088 333.799C8.51106 335.682 55.9108 354.644 109.022 339.187C109.022 339.187 189.609 374.992 234.256 345.095C234.256 345.095 274.544 355.42 295.901 336.234C295.912 336.223 300.948 346.087 292.617 352.737Z" fill="black"/>
<path opacity="0.26" d="M598.158 74.2455C595.19 81.7422 588.891 87.4352 581.203 89.8702C580.051 90.2309 578.809 90.5916 577.511 90.9072C575.085 91.5048 572.443 91.9895 569.666 92.2149C565.58 171.545 425.029 128.966 425.029 128.966C397.496 141.254 356.011 126.069 355.312 125.797C329.846 116.114 333.909 93.9285 333.909 93.9285C333.909 93.9285 334.124 92.9365 334.654 91.3808C336.065 87.2548 339.734 79.1832 347.748 75.339L348.009 74.0652C348.009 74.0652 350.897 44.0898 379.83 41.9253C392.778 40.9558 401.007 45.6342 406.165 51.1016C408.548 39.0169 421.236 1.80404 486.63 7.86901C488.943 8.16211 509.578 9.92074 520.133 35.0599C520.133 35.0599 561.607 12.4346 587.874 37.7092C592.785 42.4213 595.946 47.0546 597.876 51.4737C601.702 60.2781 600.54 68.2256 598.158 74.2455Z" fill="#3E66F4"/>
<path opacity="0.17" d="M569.678 92.8798C565.603 172.221 425.029 129.63 425.029 129.63C397.497 141.918 356.024 126.733 355.323 126.463C329.846 116.779 333.909 94.5933 333.909 94.5933C333.909 94.5933 337.872 75.8234 354.872 74.0085C369.705 72.4302 374.344 82.9594 375.281 85.6649C369.118 79.7014 342.523 89.0018 352.219 107.794C355.279 113.713 364.987 118.797 377.685 121.232C397.147 124.953 417.613 120.77 427.196 114.085C426.959 114.445 535.316 140.938 554.958 112.168C559.631 106.227 562.657 99.4069 564.598 92.9925C566.336 93.0714 568.041 93.0263 569.678 92.8798Z" fill="black"/>
<path opacity="0.17" d="M597.244 73.986C594.275 81.4827 587.976 87.1757 580.288 89.6107C576.993 90.6704 573.031 91.6061 568.764 91.9442C567.126 92.0908 565.423 92.1246 563.695 92.0682C555.533 91.7639 546.762 88.8891 539.47 80.5471L539.256 80.502L539.47 80.299C539.47 80.299 552.147 85.0901 565.625 84.301C566.494 84.2447 567.364 84.1769 568.244 84.0755H568.256C581.61 82.5424 594.986 74.8991 596.939 51.2029C600.777 60.0185 599.626 67.9661 597.244 73.986Z" fill="black"/>
<path opacity="0.63" d="M782.068 349.446C779.099 356.943 772.8 362.636 765.114 365.071C763.962 365.431 762.72 365.792 761.422 366.108C758.995 366.706 756.354 367.19 753.577 367.416C749.491 446.745 608.938 404.166 608.938 404.166C581.407 416.454 539.922 401.269 539.221 400.999C513.755 391.315 517.819 369.129 517.819 369.129C517.819 369.129 518.033 368.138 518.564 366.582C519.976 362.456 523.644 354.384 531.659 350.54L531.918 349.265C531.918 349.265 534.808 319.29 563.74 317.126C576.688 316.156 584.917 320.835 590.076 326.303C592.457 314.218 605.146 277.005 670.539 283.07C672.854 283.363 693.489 285.121 704.044 310.26C704.044 310.26 745.516 287.636 771.785 312.91C776.695 317.622 779.855 322.256 781.787 326.674C785.613 335.479 784.45 343.426 782.068 349.446Z" fill="#3E66F4"/>
<path opacity="0.28" d="M753.588 368.081C749.512 447.421 608.938 404.832 608.938 404.832C581.407 417.119 539.933 401.934 539.234 401.663C513.755 391.98 517.819 369.794 517.819 369.794C517.819 369.794 521.781 351.024 538.781 349.21C553.615 347.631 558.254 358.16 559.191 360.866C553.027 354.903 526.432 364.203 536.128 382.995C539.188 388.913 548.896 393.998 561.596 396.433C581.056 400.153 601.522 395.971 611.107 389.286C610.869 389.647 719.225 416.138 738.868 387.37C743.541 381.428 746.566 374.608 748.508 368.194C750.246 368.262 751.939 368.216 753.588 368.081Z" fill="#334585"/>
<path opacity="0.28" d="M781.142 349.176C778.174 356.673 771.875 362.366 764.188 364.8C760.891 365.86 756.929 366.795 752.662 367.134C751.025 367.281 749.321 367.314 747.594 367.257C739.433 366.954 730.662 364.079 723.369 355.736L723.154 355.692L723.369 355.489C723.369 355.489 736.046 360.28 749.524 359.491C750.393 359.434 751.262 359.367 752.155 359.265H752.166C765.519 357.732 778.897 350.089 780.849 326.393C784.688 335.209 783.525 343.156 781.142 349.176Z" fill="black"/>
<g opacity="0.66">
<path opacity="0.42" d="M970.708 597.377H970.538C958.493 608.075 927.123 603.949 927.123 603.949C927.123 603.949 914.536 618.052 875.231 617.286C835.924 616.531 831.353 590.996 831.353 590.996C824.095 595.946 751.895 611.998 743.97 581.471C743.846 580.152 743.8 578.934 743.857 577.807C744.241 567.638 751.229 565.114 757.29 565.046C753.17 556.94 758.848 546.411 758.848 546.411C765.858 535.487 775.385 532.501 784.642 533.075C784.315 516.019 791.381 479.685 856.537 475.909C942.001 470.96 932.463 542.985 932.463 542.985C932.463 542.985 972.92 520.494 978.644 558.981C978.644 558.981 1002.3 562.588 1007.64 577.277C1013.06 592.192 977.662 597.434 970.708 597.377Z" fill="#3E66F4"/>
<path opacity="0.31" d="M970.708 597.377H970.538C958.493 608.075 927.123 603.949 927.123 603.949C927.123 603.949 914.536 618.053 875.231 617.286C835.924 616.531 831.353 590.996 831.353 590.996C824.095 595.946 751.895 611.998 743.97 581.471C743.846 580.152 743.8 578.934 743.857 577.807C747.367 579.747 784.631 599.328 826.386 583.376C826.386 583.376 889.737 620.341 924.832 589.475C924.832 589.475 956.507 600.139 973.293 580.321C973.293 580.321 977.255 590.512 970.708 597.377Z" fill="black"/>
<path opacity="0.26" d="M815.753 545.555C815.753 545.555 799.847 533.402 784.642 533.075" stroke="black" stroke-miterlimit="10"/>
<path opacity="0.26" d="M766.288 566.895C766.288 566.895 763.703 565.249 757.291 565.046" stroke="black" stroke-miterlimit="10"/>
<path opacity="0.26" d="M970.538 597.378C970.538 597.378 978.192 592.553 973.892 579.69" stroke="black" stroke-miterlimit="10"/>
</g>
<path d="M230.327 549.602L243.038 572.092L234.289 573.794L221.567 551.293L230.327 549.602Z" fill="#ABABAB"/>
<path d="M240.904 577.988C243.174 577.548 245.567 578.18 246.255 579.386C246.944 580.604 245.668 581.945 243.389 582.385C241.119 582.825 238.726 582.193 238.038 580.975C237.36 579.769 238.647 578.427 240.904 577.988Z" fill="#ABABAB"/>
<path d="M771.378 385.43C783.468 383.085 796.247 386.433 799.904 392.916L864.574 507.327C868.244 513.809 861.403 520.967 849.313 523.312L286.532 632.561C274.442 634.906 261.663 631.557 258.006 625.075L244.008 600.309C245.308 598.144 248.942 596.148 250.849 595.213L254.959 594.413C262.669 592.913 267.015 588.359 264.689 584.222L239.482 539.613C237.145 535.487 229.007 533.346 221.297 534.845L219.198 535.251C217.007 535.217 208.937 534.935 205.742 532.579L193.347 510.653C189.679 504.171 196.518 497.012 208.608 494.667L771.378 385.43Z" fill="#95B0F9"/>
<path d="M883.053 511.486C883.009 510.37 882.681 509.267 882.072 508.173L813.743 387.279C810.075 380.797 797.308 377.449 785.206 379.805L604.085 414.965L286.397 476.631L193.956 494.577C183.831 496.539 177.386 501.883 177.724 507.373V507.417C177.758 508.014 177.882 508.613 178.096 509.21C178.142 509.357 178.198 509.514 178.266 509.661C178.39 509.954 178.525 510.259 178.695 510.551L247.035 631.445C247.136 631.637 247.249 631.817 247.373 631.997C247.497 632.178 247.632 632.359 247.767 632.538C248.028 632.899 248.333 633.248 248.682 633.575C248.739 633.643 248.795 633.699 248.863 633.756C249.111 634.015 249.383 634.253 249.675 634.489C249.699 634.5 249.732 634.523 249.755 634.545C249.901 634.658 250.048 634.782 250.195 634.894C250.466 635.086 250.748 635.278 251.03 635.469C251.177 635.56 251.324 635.661 251.47 635.763C251.493 635.774 251.516 635.785 251.538 635.796C251.877 635.999 252.227 636.191 252.587 636.394C252.6 636.394 252.6 636.405 252.611 636.405C252.701 636.45 252.78 636.496 252.87 636.541C253.107 636.664 253.367 636.788 253.615 636.901C253.875 637.025 254.134 637.138 254.395 637.239C254.552 637.307 254.71 637.363 254.857 637.42C255.218 637.566 255.591 637.701 255.963 637.836C256.336 637.961 256.708 638.085 257.081 638.198C257.081 638.198 257.092 638.198 257.104 638.198C257.396 638.288 257.69 638.378 257.995 638.457C258.187 638.514 258.379 638.558 258.583 638.603C258.707 638.638 258.831 638.66 258.966 638.693C259.191 638.739 259.417 638.795 259.655 638.852C259.881 638.897 260.117 638.952 260.354 638.998C260.546 639.032 260.738 639.066 260.942 639.1C261.393 639.179 261.844 639.246 262.296 639.314C262.33 639.314 262.364 639.325 262.397 639.325C262.454 639.336 262.51 639.336 262.578 639.347C262.939 639.392 263.301 639.438 263.684 639.471C263.876 639.494 264.057 639.517 264.26 639.528C264.542 639.551 264.825 639.573 265.118 639.595C265.4 639.619 265.682 639.63 265.976 639.641C267.093 639.686 268.234 639.697 269.385 639.641C269.848 639.619 270.322 639.595 270.785 639.562C270.965 639.551 271.135 639.528 271.305 639.517C271.869 639.471 272.444 639.415 273.008 639.336C273.268 639.303 273.54 639.257 273.81 639.224C274.217 639.168 274.634 639.1 275.052 639.02C275.221 638.998 275.391 638.965 275.559 638.93L866.798 524.158C867.386 524.045 867.95 523.921 868.514 523.786C868.695 523.741 868.865 523.696 869.045 523.65C869.281 523.595 869.508 523.526 869.734 523.471C869.937 523.414 870.139 523.358 870.331 523.29C870.897 523.121 871.438 522.952 871.969 522.761C872.082 522.715 872.195 522.682 872.307 522.636C872.319 522.636 872.319 522.625 872.33 522.625C872.623 522.512 872.905 522.399 873.199 522.286C873.481 522.174 873.763 522.061 874.034 521.937C874.7 521.645 875.344 521.329 875.942 520.991C876.055 520.923 876.179 520.867 876.292 520.799C876.563 520.64 876.822 520.494 877.07 520.337C877.331 520.167 877.579 520.01 877.816 519.84C878.019 519.705 878.2 519.559 878.392 519.424C878.561 519.3 878.719 519.175 878.877 519.062C878.899 519.051 878.91 519.029 878.934 519.018C879.102 518.871 879.272 518.724 879.43 518.578C879.566 518.454 879.712 518.341 879.847 518.206C880.119 517.957 880.378 517.687 880.615 517.428C880.672 517.36 880.717 517.304 880.773 517.236C881.236 516.706 881.631 516.154 881.959 515.59C882.162 515.241 882.343 514.891 882.489 514.542C882.557 514.373 882.624 514.204 882.681 514.023C882.726 513.888 882.772 513.742 882.817 513.596C882.828 513.561 882.828 513.539 882.839 513.505C882.839 513.494 882.85 513.471 882.85 513.46C882.941 513.133 882.997 512.806 883.02 512.467C883.053 512.231 883.066 512.005 883.066 511.769L883.053 511.486ZM234.278 573.794L221.568 551.293L230.316 549.591L243.038 572.092L234.289 573.794H234.278ZM238.049 580.974C237.36 579.769 238.636 578.427 240.904 577.988C243.174 577.548 245.567 578.167 246.255 579.385C246.944 580.603 245.668 581.944 243.387 582.384C241.13 582.824 238.737 582.204 238.049 580.974ZM849.324 523.312L692.879 553.682L689.854 554.268L286.532 632.561C274.442 634.906 261.676 631.557 258.006 625.075L244.009 600.309C245.308 598.144 248.941 596.148 250.849 595.213L254.959 594.413C262.658 592.913 267.014 588.359 264.678 584.222L239.471 539.624C237.134 535.487 228.995 533.357 221.286 534.857L219.186 535.262C217.007 535.228 208.924 534.947 205.731 532.579L193.336 510.653C189.666 504.171 196.507 497.012 208.597 494.667L288.767 479.1L610.925 416.567L771.378 385.419C782.576 383.244 794.372 385.96 798.956 391.529C799.192 391.822 799.418 392.126 799.621 392.431C799.723 392.588 799.813 392.747 799.904 392.904L864.574 507.327C868.244 513.809 861.403 520.967 849.324 523.312Z" fill="#403E3E"/>
<path d="M883.426 521.881C883.46 521.565 883.471 521.25 883.449 520.934L883.053 511.487C883.064 511.813 883.053 512.14 883.02 512.467C882.985 512.772 882.929 513.077 882.861 513.369C882.85 513.415 882.85 513.46 882.839 513.505C882.748 513.855 882.636 514.204 882.489 514.542C882.456 514.633 882.399 514.723 882.365 514.812C882.241 515.072 882.116 515.331 881.97 515.59C881.902 515.703 881.823 515.817 881.755 515.928C881.598 516.177 881.428 516.436 881.236 516.673C881.089 516.865 880.942 517.057 880.785 517.236C880.729 517.293 880.683 517.36 880.627 517.417C880.389 517.687 880.13 517.946 879.859 518.206C879.723 518.33 879.577 518.454 879.442 518.578C879.261 518.735 879.08 518.894 878.888 519.051C878.73 519.175 878.572 519.289 878.414 519.413C878.222 519.559 878.03 519.694 877.827 519.84C877.353 520.167 876.845 520.494 876.303 520.799C876.19 520.867 876.066 520.923 875.953 520.991C875.502 521.238 875.038 521.475 874.565 521.701C874.395 521.78 874.215 521.858 874.045 521.937C873.492 522.185 872.928 522.41 872.341 522.636C872.274 522.659 872.206 522.693 872.126 522.715C871.461 522.952 870.771 523.177 870.061 523.38C869.734 523.471 869.394 523.572 869.056 523.65C868.876 523.696 868.706 523.741 868.525 523.786C867.972 523.922 867.397 524.045 866.82 524.158L275.559 638.942C275.243 639.009 274.916 639.044 274.6 639.1C274.069 639.19 273.54 639.28 273.008 639.347C272.614 639.393 272.229 639.438 271.835 639.471C271.484 639.506 271.135 639.551 270.785 639.573C270.322 639.606 269.848 639.63 269.385 639.641C269.136 639.652 268.877 639.663 268.629 639.674C267.918 639.686 267.217 639.686 266.518 639.674C266.496 639.674 266.472 639.674 266.45 639.674C265.773 639.652 265.107 639.619 264.44 639.562C264.181 639.539 263.933 639.506 263.673 639.482C263.244 639.438 262.815 639.393 262.386 639.336C262.048 639.292 261.72 639.235 261.382 639.179C261.032 639.122 260.681 639.066 260.332 638.998C259.858 638.908 259.406 638.806 258.943 638.693C258.706 638.638 258.47 638.593 258.243 638.536C257.453 638.333 256.686 638.096 255.941 637.837C255.569 637.701 255.196 637.566 254.835 637.42C254.687 637.363 254.53 637.307 254.371 637.239C253.841 637.014 253.332 636.788 252.848 636.541C252.757 636.496 252.678 636.45 252.587 636.394C252.193 636.191 251.809 635.977 251.448 635.751C251.289 635.661 251.154 635.56 251.008 635.458C250.725 635.267 250.444 635.075 250.183 634.883C250.037 634.77 249.89 634.658 249.743 634.534C249.495 634.342 249.27 634.14 249.043 633.926C248.908 633.802 248.784 633.689 248.66 633.564C248.434 633.34 248.231 633.102 248.027 632.865C247.937 632.753 247.835 632.64 247.745 632.527C247.475 632.167 247.227 631.806 247.011 631.433L178.706 510.562C178.085 509.47 177.769 508.354 177.724 507.249L178.118 516.695C178.164 517.8 178.48 518.916 179.1 520.01L247.429 640.903C247.643 641.275 247.892 641.648 248.163 641.997C248.253 642.11 248.355 642.222 248.445 642.335C248.649 642.572 248.852 642.808 249.077 643.034C249.201 643.158 249.326 643.281 249.461 643.394C249.686 643.597 249.913 643.8 250.161 644.004C250.307 644.116 250.455 644.24 250.601 644.353C250.86 644.556 251.143 644.737 251.426 644.928C251.572 645.029 251.718 645.131 251.877 645.221C252.238 645.447 252.622 645.661 253.005 645.864C253.096 645.909 253.175 645.966 253.276 646.01C253.761 646.258 254.27 646.495 254.8 646.709C254.948 646.777 255.105 646.822 255.264 646.89C255.569 647.014 255.861 647.126 256.166 647.239C256.234 647.261 256.301 647.272 256.37 647.295C257.115 647.555 257.871 647.78 258.672 647.995C258.706 648.006 258.729 648.017 258.762 648.017C258.966 648.073 259.18 648.107 259.383 648.152C259.835 648.253 260.298 648.366 260.761 648.457C260.829 648.468 260.896 648.49 260.964 648.501C261.247 648.558 261.528 648.592 261.811 648.636C262.138 648.693 262.465 648.749 262.804 648.795C262.872 648.806 262.939 648.817 263.018 648.828C263.368 648.873 263.741 648.907 264.102 648.941C264.362 648.963 264.61 648.998 264.869 649.02C264.915 649.02 264.96 649.031 265.005 649.031C265.625 649.076 266.247 649.111 266.879 649.133C266.901 649.133 266.925 649.133 266.947 649.133C267.601 649.155 268.256 649.155 268.922 649.144C268.968 649.144 269.012 649.144 269.058 649.133C269.306 649.133 269.565 649.111 269.825 649.098C270.209 649.087 270.593 649.076 270.988 649.054C271.067 649.054 271.146 649.043 271.214 649.031C271.564 649.009 271.913 648.963 272.264 648.93C272.579 648.896 272.884 648.874 273.2 648.839C273.279 648.828 273.359 648.817 273.438 648.806C273.969 648.738 274.498 648.649 275.018 648.558C275.254 648.524 275.481 648.49 275.718 648.445C275.808 648.434 275.899 648.411 275.988 648.389L867.238 533.617C867.826 533.504 868.39 533.38 868.943 533.244C869.124 533.199 869.293 533.155 869.473 533.109C869.734 533.042 870.004 532.974 870.264 532.906C870.342 532.883 870.411 532.861 870.479 532.839C871.189 532.636 871.878 532.41 872.544 532.174C872.612 532.151 872.679 532.117 872.759 532.094C873.345 531.88 873.921 531.644 874.463 531.396C874.644 531.317 874.813 531.237 874.983 531.159C875.467 530.934 875.931 530.697 876.371 530.448C876.484 530.381 876.608 530.324 876.721 530.257C877.251 529.953 877.76 529.637 878.244 529.299C878.279 529.276 878.324 529.254 878.357 529.232C878.527 529.118 878.673 528.994 878.832 528.87C878.989 528.746 879.159 528.634 879.306 528.51C879.498 528.352 879.679 528.194 879.859 528.036C879.995 527.912 880.141 527.789 880.276 527.665C880.3 527.641 880.322 527.619 880.344 527.597C880.592 527.36 880.818 527.123 881.045 526.875C881.101 526.819 881.145 526.751 881.202 526.695C881.315 526.56 881.439 526.424 881.541 526.289C881.587 526.233 881.62 526.176 881.654 526.12C881.846 525.871 882.014 525.624 882.173 525.376C882.23 525.297 882.297 525.217 882.343 525.128C882.365 525.093 882.365 525.071 882.387 525.038C882.534 524.779 882.658 524.519 882.783 524.26C882.816 524.18 882.872 524.102 882.907 524.023C882.907 524.012 882.918 524.001 882.918 523.99C883.064 523.65 883.177 523.301 883.268 522.952C883.279 522.907 883.279 522.861 883.29 522.817C883.358 522.512 883.414 522.219 883.449 521.915C883.414 521.904 883.426 521.892 883.426 521.881Z" fill="#282626"/>
<path opacity="0.18" d="M692.879 553.682C691.919 553.908 690.915 554.1 689.854 554.268C688.375 554.517 686.794 554.719 685.101 554.878C685.101 554.878 566.754 529.592 540.43 534.157C514.106 538.734 464.199 560.255 415.659 552.454C381.986 547.043 322.395 513.46 288.767 479.1C287.954 478.276 287.164 477.453 286.396 476.631L604.085 414.965C606.409 415.484 608.69 416.026 610.926 416.567C647.376 425.473 670.517 437.58 667.492 452.991C656.044 511.296 705.274 523.876 705.274 523.876C706.154 524.474 721.529 547.359 692.879 553.682Z" fill="black"/>
<path d="M438.665 173.291L428.81 191.329L487.375 195.151L496.687 174.374L438.665 173.291Z" fill="#C68E10" stroke="#4C4A4A" stroke-miterlimit="10"/>
<path d="M397.44 132.878L383.781 153.924L416.428 183.572L431.102 170.597L397.44 132.878Z" fill="#C68E10" stroke="#4C4A4A" stroke-miterlimit="10"/>
<path d="M424.983 192.423C430.121 192.423 434.285 189.486 434.285 185.861C434.285 182.238 430.121 179.3 424.983 179.3C419.846 179.3 415.683 182.238 415.683 185.861C415.683 189.486 419.846 192.423 424.983 192.423Z" fill="#C68E10" stroke="#4C4A4A" stroke-miterlimit="10"/>
<path d="M403.084 116.982C403.084 116.982 436.475 133.384 438.112 155.796C438.112 155.796 514.195 136.664 524.051 163.991C524.051 163.991 503.246 178.206 502.151 194.598C471.785 186.977 441.329 179.254 422.241 185.85C422.241 185.85 388.849 136.788 375.304 139.663C375.304 139.663 403.773 119.992 403.084 116.982Z" fill="white" stroke="#4C4A4A" stroke-miterlimit="10"/>
<path opacity="0.39" d="M380.812 136.406L392.304 128.12C392.304 128.12 426.745 179.232 426.078 182.659C425.412 186.087 421.981 184.373 421.981 184.373C421.981 184.373 402.802 158.366 399.37 155.796C399.37 155.796 389.64 145.413 388.307 144.939C388.307 144.939 382.494 138.841 378.961 137.702L380.812 136.406Z" fill="black"/>
<path d="M381.004 123.002C381.004 123.002 428.438 176.572 422.241 185.861C422.241 185.861 489.022 168.917 492.668 182.04C492.668 182.04 507.265 137.577 515.291 147.058C515.291 147.058 436.836 133.937 438.112 155.807C438.112 155.807 435.008 97.5018 410.93 101.143L381.004 123.002Z" fill="white" stroke="#4C4A4A" stroke-miterlimit="10"/>
<path opacity="0.28" d="M400.274 118.977C400.274 118.977 394.404 122.551 391.977 123.126L422.173 177.428L432.909 143.992L409.869 117.275L400.274 118.977Z" fill="black"/>
<path d="M396.695 115.708C396.695 115.708 426.982 176.2 422.241 185.861C422.241 185.861 485.365 159.076 490.117 170.011C490.117 170.011 502.523 139.033 510.549 134.658C510.549 134.658 440.482 140.487 439.027 152.875C439.027 152.875 439.387 105.506 426.259 95.6642C426.259 95.6642 404.721 120.082 396.695 115.708Z" fill="white" stroke="#4C4A4A" stroke-miterlimit="10"/>
<path opacity="0.28" d="M463.759 141.692C463.759 141.692 503.63 151.602 464.336 169.887C464.336 169.887 425.604 183.223 423.121 184.936L428.607 173.55L429.849 173.742C429.849 173.742 433.19 163.258 440.482 150.26C440.482 150.26 449.355 144.184 463.454 141.76L463.759 141.692Z" fill="black"/>
<path d="M429.183 173.845C431.474 167.126 439.196 152.121 439.196 152.121L429.183 173.845Z" fill="white"/>
<path d="M429.183 173.845C431.474 167.126 439.196 152.121 439.196 152.121" stroke="#4C4A4A" stroke-miterlimit="10"/>
<path opacity="0.28" d="M490.118 170.011C490.118 170.011 484.755 186.088 481.505 188.76C481.505 188.76 441.059 180.179 429.997 183.427C429.997 183.416 485.365 160.97 490.118 170.011Z" fill="black"/>
<path d="M232.407 455.368C233.009 453.805 231.265 451.681 228.514 450.623C225.762 449.566 223.043 449.976 222.44 451.54C221.838 453.103 223.581 455.227 226.333 456.284C229.086 457.341 231.805 456.932 232.407 455.368Z" fill="#2E56AF" stroke="#4C4A4A" stroke-miterlimit="10"/>
<path d="M232.461 456.496L272.59 476.134L278.088 465.335L234.854 447.399L232.461 456.496Z" fill="#2E56AF" stroke="#4C4A4A" stroke-miterlimit="10"/>
<path d="M182.951 433.465L182.849 440.106L224.322 453.363L228.725 441.92C210.347 437.05 190.988 431.527 182.951 433.465Z" fill="#2E56AF" stroke="#4C4A4A" stroke-miterlimit="10"/>
<path d="M182.555 421.741C182.555 421.741 224.774 407.018 238.286 435.585C244.066 421.257 288.666 442.981 286.792 460.668C286.792 460.668 287.673 468.795 280.549 476.293C280.549 476.293 256.946 449.642 227.788 453.576C227.788 453.576 192.715 427.197 179.44 436.78C179.44 436.791 180.128 421.696 182.555 421.741Z" fill="white" stroke="#4C4A4A" stroke-miterlimit="10"/>
<path d="M184.338 430.715C184.338 430.715 228.07 440.838 228.33 447.117C228.33 447.117 275.165 452.044 278.473 463.216C278.597 463.621 278.653 464.027 278.653 464.456C278.698 476.496 291.861 439.631 285.528 432.711C278.122 424.605 234.505 431.301 238.421 432.643C242.124 433.905 202.253 398.338 192.839 407.785C192.839 407.773 188.448 421.774 184.338 430.715Z" fill="white" stroke="#4C4A4A" stroke-miterlimit="10"/>
<path opacity="0.28" d="M184.338 430.714C184.338 430.714 204.184 435.314 217.211 440.229L215.935 444.953C205.391 438.99 193.031 433.003 182.025 433.217C182.397 428.753 183.131 425.078 184.926 421.56L188.459 420.671C187.206 424.063 185.704 427.727 184.338 430.714Z" fill="black"/>
<path opacity="0.28" d="M278.822 467.116C278.822 467.116 274.511 470.645 274.894 468.097C268.731 457.647 244.992 451.468 229.526 452.698C227.969 452.382 230.689 450.387 234.786 447.929C247.746 449.733 275.933 454.626 278.473 463.205C278.597 463.611 278.654 464.016 278.665 464.445C278.676 465.697 278.811 466.418 279.07 466.699L278.822 467.116Z" fill="black"/>
<path opacity="0.28" d="M187.296 430.749C187.296 430.749 201.046 410.355 198.675 406.781C198.675 406.781 201.339 407.3 203.912 408.134C197.704 418.156 188.572 429.847 188.572 429.847C190.073 428.99 194.08 430.602 199.002 433.319C198.878 433.611 198.8 433.781 198.8 433.781L187.296 430.749Z" fill="black"/>
<path d="M208.959 394.268C208.959 394.268 240.882 424.784 238.545 431.447C238.545 431.447 281.644 410.389 284.128 416.68L274.206 452.257C274.206 452.257 231.536 447.883 228.285 452.867C228.285 452.867 193.719 426.905 188.572 429.824C188.572 429.847 213.609 397.842 208.959 394.268Z" fill="white" stroke="#4C4A4A" stroke-miterlimit="10"/>
<path d="M238.545 431.458L229.887 448.278" stroke="#4C4A4A" stroke-miterlimit="10"/>
<path opacity="0.28" d="M234.324 423.027C233.296 421.978 220.281 409.499 214.693 441.525C214.603 442.033 214.818 442.552 215.236 442.844L227.461 451.604C227.856 451.886 228.376 451.93 228.816 451.728C229.707 451.3 231.129 450.646 231.31 450.826C231.536 451.052 242.091 437.794 241.921 432.495C241.887 431.538 240.804 430.985 239.957 431.436C239.426 431.717 238.772 431.617 238.365 431.177L238.003 430.793C238.003 430.793 238.67 428.866 234.448 423.173C234.403 423.117 234.37 423.071 234.324 423.027Z" fill="black"/>
<path d="M570.942 285.076L562.6 298.796L608.024 335.614L621.107 314.172L570.942 285.076Z" fill="#DD0B34" stroke="#4C4A4A" stroke-miterlimit="10"/>
<path d="M617.72 319.482L618.138 335.682L692.574 321.973L695.068 298.3L617.72 319.482Z" fill="#DD0B34" stroke="#4C4A4A" stroke-miterlimit="10"/>
<path d="M612.732 336.505C617.782 336.505 621.875 334.183 621.875 331.319C621.875 328.455 617.782 326.133 612.732 326.133C607.682 326.133 603.588 328.455 603.588 331.319C603.588 334.183 607.682 336.505 612.732 336.505Z" fill="#DD0B34" stroke="#4C4A4A" stroke-miterlimit="10"/>
<path d="M563.243 294.704C563.243 294.704 603.159 327.374 612.314 333.326C612.314 333.326 663.044 315.886 692.574 320.452C692.574 320.452 690.079 295.121 698.817 289.72C698.817 289.72 637.69 293.046 624.799 306.337C623.387 307.093 595.46 284.964 580.718 280.173C580.718 280.173 566.573 284.321 563.243 294.704Z" fill="white" stroke="#4C4A4A" stroke-miterlimit="10"/>
<path d="M567.827 290.555C567.827 290.555 603.171 319.629 612.743 331.251C612.743 331.251 665.144 309.246 688.014 314.634C688.014 314.634 688.014 283.07 696.75 280.161C696.75 280.161 641.031 283.487 624.393 304.253C624.393 304.253 601.522 280.161 584.884 271.865C584.873 271.865 572.816 278.921 567.827 290.555Z" fill="white" stroke="#4C4A4A" stroke-miterlimit="10"/>
<path d="M571.981 289.304C571.981 289.304 594.851 302.595 612.732 331.251C612.732 331.251 660.549 304.669 685.089 308.412C685.089 308.412 683.431 285.572 691.739 273.938C691.739 273.938 629.777 283.07 624.37 304.253C624.37 304.253 605.654 271.03 592.344 265.63C592.356 265.642 581.542 287.229 571.981 289.304Z" fill="white" stroke="#4C4A4A" stroke-miterlimit="10"/>
<path d="M624.471 304.478C624.471 304.478 622.97 316.247 616.298 325.21L624.471 304.478Z" fill="white"/>
<path d="M624.471 304.478C624.471 304.478 622.97 316.247 616.298 325.21" stroke="#4C4A4A" stroke-miterlimit="10"/>
<path opacity="0.28" d="M683.17 308.604C683.17 308.604 683.747 315.175 685.598 316.326C685.598 316.326 658.268 315.469 612.483 331.905C612.483 331.894 659.126 306.315 683.17 308.604Z" fill="black"/>
<path opacity="0.28" d="M572.985 290.589C572.985 290.589 569.407 294.445 567.544 294.445L612.471 331.883C612.867 331.589 594.489 302.91 572.985 290.589Z" fill="black"/>
<path opacity="0.28" d="M639.666 290.025C639.666 290.025 618.985 326.246 616.84 325.468C616.84 325.468 624.189 308.908 625.002 303.531C625.622 299.393 629.393 294.884 639.744 289.744L639.666 290.025Z" fill="black"/>
<path d="M804.577 325.423C809.415 325.423 813.336 323.516 813.336 321.162C813.336 318.808 809.415 316.901 804.577 316.901C799.739 316.901 795.817 318.808 795.817 321.162C795.817 323.516 799.739 325.423 804.577 325.423Z" fill="#0526A0" stroke="#4C4A4A" stroke-miterlimit="10"/>
<path d="M808.211 311.771L809.058 323.294L864.598 311.771V303.237L808.211 311.771Z" fill="#0526A0" stroke="#4C4A4A" stroke-miterlimit="10"/>
<path d="M743.281 296.845L738.585 303.238L797.103 320.733L803.504 312.629L743.281 296.845Z" fill="#0526A0" stroke="#4C4A4A" stroke-miterlimit="10"/>
<path d="M737.728 296.845C737.728 296.845 794.542 304.523 802.23 324.577C802.23 324.577 842.811 301.546 870.152 310.497C870.152 310.497 865.455 287.883 881.258 281.492C881.258 281.492 814.194 272.957 810.774 293.441C810.774 293.441 781.301 258.032 755.664 266.994C755.664 266.983 747.119 284.04 737.728 296.845Z" fill="white" stroke="#4C4A4A" stroke-miterlimit="10"/>
<path d="M744.771 276.362C744.771 276.362 802.647 306.868 802.229 324.566C802.229 324.566 842.167 293.002 866.517 300.679C866.517 300.679 867.16 276.362 882.535 270.601C882.535 270.601 816.542 262.925 809.488 289.8C809.488 289.8 790.264 246.929 770.407 248.845C770.407 248.856 759.514 271.887 744.771 276.362Z" fill="white" stroke="#4C4A4A" stroke-miterlimit="10"/>
<path opacity="0.28" d="M750.889 280.432C750.889 280.432 747.74 289.72 745.233 290.86C745.233 290.86 795.75 309.155 799.181 319.009C799.181 319.009 798.967 313.226 783.66 301.648C768.353 290.082 751.386 280.296 750.889 280.432Z" fill="#4C4A4A"/>
<path opacity="0.28" d="M751.939 273.262L746.307 276.307C746.307 276.307 785.703 300.69 790.569 306.225C795.445 311.76 757.572 264.976 751.939 273.262Z" fill="#4C4A4A"/>
<path opacity="0.28" d="M862.498 295.561C862.498 295.561 861.538 301.659 863.073 303.756C863.073 303.756 827.391 308.705 809.081 320.327C809.081 320.327 835.789 293.656 862.498 295.561Z" fill="#4C4A4A"/>
<path d="M747.017 269.328C747.017 269.328 794.328 298.233 802.228 324.566C802.228 324.566 840.248 289.484 866.201 295.877C866.201 295.877 857.226 273.16 882.218 262.282C882.218 262.282 815.47 256.735 809.498 284.681C809.498 284.681 796.042 247.886 778.738 240.209C778.738 240.209 767.845 242.768 747.017 269.328Z" fill="white" stroke="#4C4A4A" stroke-miterlimit="10"/>
<path d="M809.487 284.682C809.487 284.682 802.783 302.223 804.689 313.282L809.487 284.682Z" fill="white"/>
<path d="M809.487 284.682C809.487 284.682 802.783 302.223 804.689 313.282" stroke="#4C4A4A" stroke-miterlimit="10"/>
<path opacity="0.28" d="M819.759 271.549C819.759 271.549 819.805 271.56 819.896 271.571C821.905 271.932 845.656 276.656 830.303 293.216C814.274 310.509 802.692 323.653 802.692 323.653C802.692 323.653 800.265 274.062 808.697 284.354L809.341 285.572C809.341 285.583 812.084 276.17 819.759 271.549Z" fill="#4C4A4A"/>
<path d="M920.509 392.416C921.459 390.25 918.989 387.075 914.992 385.326C910.994 383.578 906.983 383.917 906.033 386.084C905.082 388.251 907.552 391.426 911.55 393.175C915.547 394.923 919.558 394.583 920.509 392.416Z" fill="#4C4A4A" stroke="#4C4A4A" stroke-miterlimit="10"/>
<path d="M919.594 381.733L917.563 393.209L977.311 409.983L982.628 399.578L919.594 381.733Z" fill="#4C4A4A" stroke="#4C4A4A" stroke-miterlimit="10"/>
<path d="M858.909 367.922L855.747 375.149L906.804 390.367L912.336 381.18L858.909 367.922Z" fill="#4C4A4A" stroke="#4C4A4A" stroke-miterlimit="10"/>
<path d="M857.034 339.154C857.034 339.154 906.274 331.737 942.554 359.592C942.554 359.592 992.212 360.348 1010.67 376.4C1010.67 376.4 1004.87 387.346 993.984 395.057C983.103 402.768 982.549 412.023 982.549 412.023C982.549 412.023 940.794 377.291 915.259 391.078C915.259 391.078 874.057 363.064 850.689 375.319C854.133 376.175 864.936 342.378 857.034 339.154Z" fill="white" stroke="#4C4A4A" stroke-miterlimit="10"/>
<path d="M857.734 368.904C857.734 368.904 885.932 365.882 915.248 391.067C915.248 391.067 949.361 374.541 979.581 403.106C979.581 403.106 997.879 369.929 1010.8 366.965C1010.8 366.965 961.823 349.278 942.554 359.581C942.554 359.581 901.42 329.978 869.214 331.613C869.214 331.624 868.344 344.723 857.734 368.904Z" fill="white" stroke="#4C4A4A" stroke-miterlimit="10"/>
<path opacity="0.28" d="M875.728 332.018C875.728 332.018 866.494 360.077 860.884 363.02C860.884 363.02 908.024 382.037 912.415 388.135C916.806 394.235 901.669 335.693 901.669 335.693C901.669 335.693 877.658 332.266 875.728 332.018Z" fill="#4C4A4A"/>
<path opacity="0.28" d="M1003.26 365.128C1003.26 365.128 977.797 397.189 977.481 404.122C977.481 404.122 948.888 386.794 926.807 387.234C904.727 387.673 992.347 362.275 992.347 362.275L1003.39 364.766L1003.26 365.128Z" fill="#4C4A4A" stroke="#4C4A4A" stroke-miterlimit="10"/>
<path d="M866.291 361.915C866.291 361.915 903.158 371.305 915.237 391.067C915.237 391.067 948.797 371.553 977.221 396.208C977.221 396.208 995.745 361.373 1008.33 358.894C1008.33 358.894 960.379 343.415 942.544 359.57C940.738 353.437 903.237 324.026 884.024 323.732C884.035 323.755 879.487 343.235 866.291 361.915Z" fill="white" stroke="#4C4A4A" stroke-miterlimit="10"/>
<path d="M942.554 359.581C942.554 359.581 934.032 363.053 920.26 384.484L942.554 359.581Z" fill="white"/>
<path d="M942.554 359.581C942.554 359.581 934.032 363.053 920.26 384.484" stroke="#4C4A4A" stroke-miterlimit="10"/>
<path opacity="0.28" d="M940.353 360.483C940.353 360.483 906.194 379.105 901.679 376.987C901.679 376.987 914.458 387.832 915.971 390.548L940.353 360.483Z" fill="#4C4A4A" stroke="#4C4A4A" stroke-miterlimit="10"/>
<path d="M891.924 499.964C892.564 498.065 889.635 495.365 885.381 493.934C881.127 492.504 877.159 492.885 876.518 494.785C875.878 496.685 878.807 499.384 883.062 500.815C887.315 502.246 891.283 501.865 891.924 499.964Z" fill="#F6CF57" stroke="#4C4A4A" stroke-miterlimit="10"/>
<path d="M822.649 470.914L819.873 477.645L879.035 496.517L885.187 490.406L822.649 470.914Z" fill="#F6CF57" stroke="#4C4A4A" stroke-miterlimit="10"/>
<path d="M892.434 490.924L888.032 500.18L939.473 513.133L943.639 503.799L892.434 490.924Z" fill="#F6CF57" stroke="#4C4A4A" stroke-miterlimit="10"/>
<path d="M815.244 470.847C815.244 470.847 862.17 477.431 883.438 497.869C883.438 497.869 915.519 493.834 943.526 513.99C943.526 513.99 944.044 495.761 957.422 486.449C957.422 486.449 915.011 458.898 895.651 467.725C895.651 467.725 858.321 432.676 836.974 439.812C836.974 439.812 824.298 471.332 815.244 470.847Z" fill="white" stroke="#4C4A4A" stroke-miterlimit="10"/>
<path opacity="0.28" d="M941.087 508.421C941.087 508.421 905.641 493.494 884.453 496.776L884.871 496.155C890.369 495.58 920.125 493.1 940.398 505.017C940.398 505.017 943.763 491.015 949.858 482.435C951.563 483.146 952.534 483.676 952.499 483.924C952.523 483.913 945.749 490.992 941.087 508.421Z" fill="#4C4A4A"/>
<path d="M826.239 465.594C826.239 465.594 874.214 480.452 883.991 496.257C883.991 496.257 917.991 491.838 940.422 505.004C940.422 505.004 947.409 475.92 959.453 475.875C959.453 475.875 908.599 450.589 895.652 467.713C895.652 467.713 867.532 430.399 847.518 430.568C847.518 430.579 835.767 459.349 826.239 465.594Z" fill="white" stroke="#4C4A4A" stroke-miterlimit="10"/>
<path opacity="0.28" d="M834.931 463.227C834.931 463.227 830.755 467.555 825.777 468.897C825.777 468.897 880.616 491.206 883.517 497.508L886.937 489.459L838.431 460.025L834.931 463.227Z" fill="#4C4A4A" stroke="#4C4A4A" stroke-miterlimit="10"/>
<path opacity="0.28" d="M953.279 473.621C953.279 473.621 944.8 479.054 938.501 497.744L937.091 497.293C938.321 493.202 943.029 478.896 950.626 472.425C951.754 472.876 952.658 473.283 953.279 473.621Z" fill="#4C4A4A"/>
<path d="M833.306 462.1C833.306 462.1 881.271 481.546 883.606 495.118C883.606 495.118 917.991 489.549 936.763 498.422C936.763 498.422 943.83 472.166 956.259 469.449C956.259 469.449 913.362 447.106 895.979 466.045C895.979 466.045 871.629 424.368 854.144 425.394C854.133 425.383 847.235 447.353 833.306 462.1Z" fill="white" stroke="#4C4A4A" stroke-miterlimit="10"/>
<path d="M895.968 466.045C895.968 466.045 892.49 482.391 888.123 488.163L895.968 466.045Z" fill="white"/>
<path d="M895.968 466.045C895.968 466.045 892.49 482.391 888.123 488.163" stroke="#4C4A4A" stroke-miterlimit="10"/>
<path opacity="0.28" d="M884.137 449.823C884.137 449.823 888.912 488.219 884.002 494.408C879.091 500.597 883.606 495.118 883.606 495.118C883.606 495.118 912.042 461.422 907.889 460.025C907.516 459.833 899.399 461.762 896.589 466.372L895.471 466.101C895.459 466.09 884.837 449.552 884.137 449.823Z" fill="#4C4A4A"/>
<path d="M331.29 170.045C331.301 170.045 363.869 184.812 366.882 220.053C369.896 255.292 333.706 247.762 333.706 247.762L308.07 238.721L286.351 181.791L331.29 170.045Z" fill="#FDBBA7"/>
<path d="M359.522 220.526C359.522 220.526 365.314 222.59 366.442 219.105" stroke="#3A2B2B" stroke-miterlimit="10"/>
<path d="M341.066 223.394C346.433 221.58 349.919 217.556 348.852 214.406C347.785 211.257 342.568 210.175 337.201 211.989C331.832 213.803 328.346 217.827 329.413 220.978C330.482 224.127 335.697 225.208 341.066 223.394Z" fill="#DE4456"/>
<path d="M336.652 194.485C336.652 194.485 344.881 199.706 350.254 193.955" stroke="#3A2B2B" stroke-miterlimit="10"/>
<path d="M360.426 199.107L368.056 204.53L364.523 210.483L365.257 212.771L360.426 199.107Z" fill="#FDBBA7"/>
<path d="M759.852 517.519C759.717 518.905 758.713 520.967 756.308 523.988C745.742 537.246 711.064 564.054 711.064 564.054C711.064 564.054 709.371 564.809 706.752 564.809C704.415 564.809 701.367 564.2 698.094 561.934C694.267 559.274 684.886 549.342 677.289 540.989C671.126 534.236 666.125 528.521 666.114 528.498L690.26 520.978L704.732 534.53C704.732 534.53 709.269 538.746 713.491 535.431C717.713 532.128 750.585 515.861 750.585 515.861C750.585 515.861 753.677 514.891 756.297 514.891C758.306 514.891 760.033 515.466 759.852 517.519Z" fill="#FDBBA7"/>
<path opacity="0.68" d="M759.852 517.519C759.717 518.905 758.713 520.968 756.308 523.989C745.742 537.246 711.064 564.054 711.064 564.054C711.064 564.054 709.371 564.809 706.752 564.809C704.416 564.809 701.367 564.2 698.094 561.934C694.267 559.274 684.886 549.343 677.289 540.989C685.134 542.071 698.895 545.566 716.2 543.041C740.663 539.489 755.416 519.536 759.852 517.519Z" fill="#FA7349"/>
<path d="M554.485 186.458C553.784 188.635 545.521 192.41 545.521 192.41L537.134 201.418C537.788 200.956 549.811 192.434 549.291 195.049C548.783 197.743 537.608 208.971 537.608 208.971C535.271 214.077 533.014 218.97 530.79 223.66C494.227 301.141 473.118 323.033 455.576 340.315C455.576 340.315 431.938 353.64 422.241 346.357C419.961 344.644 414.847 340.438 408.378 334.972C387.281 317.239 351.644 286.407 351.644 286.407C351.644 286.407 417.037 297.387 426.847 298.863C436.679 300.341 451.828 278.245 455.824 274.04C459.357 270.331 509.049 213.547 520.619 199.873C522.143 198.081 523.644 194.902 523.644 194.902C523.644 194.902 533.059 180.303 533.804 182.704C534.493 184.891 529.954 191.959 529.141 193.188L534.922 185.23C535.327 184.621 544.098 178.229 544.403 179.57C544.697 180.845 537.653 187.631 537.405 187.552L532.088 194.812L540.43 185.872C540.43 185.872 553.152 179.357 553.174 181.126C553.174 182.896 543.433 187.552 542.575 188.679C541.763 189.738 535.553 196.751 534.786 197.63L544.2 188.578C544.189 188.6 555.184 184.294 554.485 186.458Z" fill="#FDBBA7"/>
<path opacity="0.5" d="M530.79 223.66C494.227 301.141 473.117 323.033 455.575 340.315C455.575 340.315 431.937 353.64 422.241 346.357C419.96 344.644 414.846 340.438 408.378 334.972C407.16 331.522 408.807 330.113 416.156 333.269C439.478 343.313 530.372 223.626 530.372 223.626L530.79 223.66Z" fill="#FA7349"/>
<path d="M757.809 393.107C756.997 407.413 755.857 445.065 755.857 445.065C755.857 445.065 755.699 452.449 751.477 452.449C750.122 452.449 744.93 453.397 738.518 454.681C724.983 457.398 705.939 461.637 705.928 461.637L702.452 437.693C702.474 437.693 730.209 434.976 734.578 425.495C738.958 416.003 748.914 391.766 748.914 391.766C750.269 387.944 755.529 381.913 757.29 386.692C757.29 386.692 757.29 386.692 757.29 386.703C757.776 387.978 757.979 390.029 757.809 393.107Z" fill="#FDBBA7"/>
<path opacity="0.61" d="M757.809 393.107C756.997 407.413 755.857 445.065 755.857 445.065C755.857 445.065 755.699 452.449 751.477 452.449C750.123 452.449 744.93 453.397 738.518 454.681C748.056 439.62 755.665 396.478 757.291 386.692C757.776 387.978 757.979 390.029 757.809 393.107Z" fill="#FA7349"/>
<path d="M426.915 398.98C427.039 398.992 690.553 412.836 709.857 427.299L715.287 466.461C715.263 466.461 694.764 466.461 679.084 469.471C663.393 472.481 499.916 491.162 483.627 476.698C467.337 462.246 426.948 399.026 426.915 398.98Z" fill="#3E66F4"/>
<path d="M355.955 274.942C355.955 274.942 380.993 289.101 388.229 309.279" stroke="#4C4A4A" stroke-width="2" stroke-miterlimit="10"/>
<path d="M358.664 327.565C347.512 329.165 335.579 330.372 325.963 331.184C323.264 331.421 320.747 331.624 318.49 331.804C311.265 332.367 306.569 332.626 306.569 332.626L306.614 331.6L307.596 311.095L308.872 284.772L310.181 257.761L292.989 241.122V241.111L323.297 240.423L346.077 239.916L348.493 248.224L355.639 272.778L355.718 273.059C355.718 273.059 363.112 280.285 371.488 289.101C375.461 293.294 379.684 297.86 383.409 302.155C387.529 306.879 391.073 311.309 393.127 314.623C396.717 320.406 378.983 324.656 358.664 327.565Z" fill="#FDBBA7"/>
<path opacity="0.47" d="M355.639 272.778C355.414 272.608 355.177 272.394 354.939 272.135C348.098 264.694 334.213 246.624 334.213 246.624L329.484 243.309C334.531 246.578 341.518 248.123 348.494 248.224L355.639 272.778Z" fill="black"/>
<path opacity="0.53" d="M327.372 340.913L319.799 343.19L305.09 347.62C304.729 338.308 305.135 332.243 306.613 331.6L307.596 311.095C299.953 322.83 290.201 336.707 279.736 348.849L273.087 277.354L308.872 284.783L313.195 285.674L315.34 286.124L319.539 286.993L319.923 289.585L320.115 290.893L325.024 324.702L325.962 331.206L327.372 340.913Z" fill="#FA7349"/>
<path d="M699.584 519.48L680.045 542.161L677.256 545.385C677.245 545.385 662.062 534.258 643.752 520.122C625.431 505.985 603.972 488.828 591.408 476.755C585.718 471.276 576.451 469.033 570.232 473.891C543.58 494.735 388.32 541.169 353.901 505.828C332.352 483.699 328.638 473.44 335.14 462.551L464.234 423.568L533.68 402.599C533.68 402.599 568.063 391.766 592.198 409.837C616.344 427.896 690.543 492.356 699.584 519.48Z" fill="#163CED"/>
<path opacity="0.16" d="M680.055 542.161L677.267 545.385C677.256 545.385 662.073 534.258 643.763 520.122C625.443 505.985 603.983 488.828 591.42 476.755C585.729 471.276 576.462 469.033 570.243 473.891C543.59 494.735 388.331 541.169 353.912 505.828C332.362 483.699 328.649 473.44 335.15 462.551L464.244 423.568C473.445 429.35 491.856 438.471 503.02 455.786C517.48 478.231 572.839 448.323 593.112 452.573C639.812 462.359 680.97 540.842 679.988 540.932L680.055 542.161Z" fill="black"/>
<path d="M319.527 278.785C319.527 278.785 356.327 311.624 363.27 326.979" stroke="#4C4A4A" stroke-width="2" stroke-miterlimit="10"/>
<path d="M468.546 383.615L453.972 369.14V369.129L449.943 365.116H449.93L418.64 334.024L414.508 329.921H414.497L400.646 316.145L396.446 311.975L385.689 301.276L383.42 302.155L361.983 310.43L352.377 314.139L325.026 324.691L317.993 327.396L307.167 331.578C306.964 331.511 306.783 331.511 306.626 331.6C305.147 332.243 304.74 338.297 305.101 347.62C305.417 356.131 306.377 367.359 307.754 379.681C307.787 379.974 307.822 380.278 307.856 380.572C308.025 380.537 308.205 380.515 308.375 380.515C310.011 380.515 311.355 381.845 311.355 383.491C311.355 385.092 310.102 386.365 308.534 386.445C309.222 392.228 310 398.169 310.813 404.133C310.858 404.425 310.893 404.73 310.949 405.022C311.028 405.022 311.106 405.011 311.186 405.011C312.823 405.011 314.166 406.342 314.166 407.988C314.166 409.442 313.138 410.615 311.784 410.885C312.596 416.443 313.443 421.978 314.324 427.332C314.369 427.604 314.414 427.862 314.46 428.145C314.957 427.75 315.588 427.513 316.266 427.513C317.925 427.513 319.246 428.843 319.246 430.49C319.246 432.135 317.925 433.465 316.266 433.465C315.95 433.465 315.634 433.409 315.34 433.297C319.877 459.731 324.902 480.666 328.197 479.629C333.965 477.803 371.963 469.044 374.694 468.412C374.796 468.39 374.853 468.379 374.853 468.379C374.853 468.379 399.935 463.734 418.098 459.698C424.397 458.301 429.849 456.981 433.157 455.944C443.169 452.821 441.499 441.66 448.227 429.485C450.146 426.013 452.731 422.463 456.478 418.991C467.224 409.025 469.177 397.424 469.177 390.312C469.177 386.219 468.546 383.615 468.546 383.615ZM310.181 352.321C308.545 352.321 307.201 350.991 307.201 349.345C307.201 347.698 308.534 346.368 310.181 346.368C311.818 346.368 313.162 347.698 313.162 349.345C313.162 350.991 311.818 352.321 310.181 352.321ZM315.205 372.004C313.567 372.004 312.224 370.674 312.224 369.027C312.224 367.371 313.556 366.052 315.205 366.052C316.852 366.052 318.185 367.371 318.185 369.027C318.174 370.674 316.841 372.004 315.205 372.004ZM320.668 414.978C319.032 414.978 317.688 413.658 317.688 412.001C317.688 410.366 319.019 409.025 320.668 409.025C322.305 409.025 323.648 410.355 323.648 412.001C323.648 413.658 322.316 414.978 320.668 414.978ZM333.706 419.08C335.343 419.08 336.686 420.399 336.686 422.057C336.686 423.692 335.354 425.033 333.706 425.033C332.07 425.033 330.726 423.703 330.726 422.057C330.726 420.399 332.059 419.08 333.706 419.08ZM331.188 455.797C330.523 457.296 328.762 457.961 327.261 457.296C325.76 456.62 325.082 454.862 325.76 453.362C326.425 451.863 328.186 451.198 329.687 451.863C331.188 452.54 331.865 454.298 331.188 455.797ZM333.096 441.424C331.595 440.76 330.918 439.001 331.595 437.501C332.261 436.002 334.022 435.337 335.524 436.002C337.025 436.678 337.702 438.437 337.025 439.936C336.359 441.436 334.598 442.1 333.096 441.424ZM339.136 462.37C337.499 462.37 336.156 461.039 336.156 459.393C336.156 457.759 337.487 456.418 339.136 456.418C340.784 456.418 342.115 457.747 342.115 459.393C342.115 461.039 340.784 462.37 339.136 462.37ZM439.478 386.941C441.137 386.941 442.457 388.271 442.457 389.917C442.457 391.552 441.137 392.893 439.478 392.893C437.842 392.893 436.498 391.563 436.498 389.917C436.498 388.271 437.829 386.941 439.478 386.941ZM433.246 357.833C434.884 357.833 436.226 359.164 436.226 360.81C436.226 362.456 434.895 363.785 433.246 363.785C431.587 363.785 430.267 362.456 430.267 360.81C430.267 359.164 431.599 357.833 433.246 357.833ZM431.745 372.297C433.382 372.297 434.725 373.617 434.725 375.273C434.725 376.908 433.394 378.249 431.745 378.249C430.108 378.249 428.766 376.919 428.766 375.273C428.766 373.617 430.097 372.297 431.745 372.297ZM420.988 383.096C420.988 384.731 419.655 386.073 418.007 386.073C416.349 386.073 415.027 384.743 415.027 383.096C415.027 381.462 416.349 380.121 418.007 380.121C419.655 380.121 420.988 381.45 420.988 383.096ZM414.485 330.823H414.497L418.628 334.926C418.109 335.727 417.183 336.257 416.156 336.257C414.519 336.257 413.176 334.926 413.176 333.28C413.176 332.266 413.707 331.353 414.485 330.823ZM410.76 346.785C412.398 346.785 413.74 348.116 413.74 349.762C413.74 351.397 412.409 352.737 410.76 352.737C409.112 352.737 407.78 351.408 407.78 349.762C407.791 348.116 409.124 346.785 410.76 346.785ZM396.435 312.876L400.635 317.047C400.127 317.498 399.438 317.769 398.693 317.769C397.056 317.769 395.712 316.439 395.712 314.793C395.725 314.072 395.984 313.405 396.435 312.876ZM398.06 326.099C399.698 326.099 401.041 327.43 401.041 329.076C401.041 330.71 399.709 332.051 398.06 332.051C396.424 332.051 395.081 330.721 395.081 329.076C395.081 327.43 396.413 326.099 398.06 326.099ZM383.171 311.14C384.809 311.14 386.152 312.47 386.152 314.116C386.152 315.761 384.82 317.093 383.171 317.093C381.535 317.093 380.191 315.761 380.191 314.116C380.191 312.47 381.535 311.14 383.171 311.14ZM365.37 320.689C363.732 320.689 362.39 319.358 362.39 317.712C362.39 316.077 363.721 314.736 365.37 314.736C367.018 314.736 368.35 316.066 368.35 317.712C368.35 319.358 367.018 320.689 365.37 320.689ZM375.067 344.531C375.067 342.896 376.399 341.556 378.046 341.556C379.695 341.556 381.027 342.885 381.027 344.531C381.027 346.166 379.695 347.508 378.046 347.508C376.399 347.508 375.067 346.177 375.067 344.531ZM380.157 376.727C378.521 376.727 377.177 375.397 377.177 373.752C377.177 372.117 378.51 370.775 380.157 370.775C381.805 370.775 383.138 372.105 383.138 373.752C383.138 375.397 381.805 376.727 380.157 376.727ZM389.505 396.951C387.867 396.951 386.525 395.621 386.525 393.976C386.525 392.329 387.856 390.999 389.505 390.999C391.164 390.999 392.484 392.329 392.484 393.976C392.484 395.621 391.153 396.951 389.505 396.951ZM398.06 378.272C398.06 376.638 399.393 375.295 401.041 375.295C402.678 375.295 404.021 376.625 404.021 378.272C404.021 379.907 402.689 381.248 401.041 381.248C399.393 381.237 398.06 379.907 398.06 378.272ZM404.326 415.281C402.689 415.281 401.346 413.952 401.346 412.306C401.346 410.671 402.678 409.329 404.326 409.329C405.975 409.329 407.306 410.66 407.306 412.306C407.306 413.952 405.975 415.281 404.326 415.281ZM424.194 442.135C422.556 442.135 421.213 440.804 421.213 439.158C421.213 437.523 422.545 436.183 424.194 436.183C425.841 436.183 427.174 437.512 427.174 439.158C427.174 440.804 425.841 442.135 424.194 442.135ZM425.401 416.589C423.765 416.589 422.421 415.259 422.421 413.614C422.421 411.968 423.753 410.637 425.401 410.637C427.05 410.637 428.381 411.968 428.381 413.614C428.381 415.259 427.038 416.589 425.401 416.589ZM438.676 428.64C437.04 428.64 435.696 427.31 435.696 425.664C435.696 424.03 437.028 422.688 438.676 422.688C440.325 422.688 441.656 424.019 441.656 425.664C441.656 427.31 440.325 428.64 438.676 428.64ZM394.031 359.152C392.395 359.152 391.051 357.822 391.051 356.176C391.051 354.542 392.382 353.201 394.031 353.201C394.821 353.201 395.532 353.493 396.052 354.001C396.638 354.531 397 355.32 397 356.176C397 356.39 396.977 356.593 396.932 356.796C396.65 358.138 395.464 359.152 394.031 359.152ZM449.141 407.751C447.504 407.751 446.16 406.421 446.16 404.775C446.16 403.141 447.493 401.799 449.141 401.799C450.777 401.799 452.121 403.13 452.121 404.775C452.11 406.421 450.777 407.751 449.141 407.751ZM453.961 370.042C453.452 370.967 452.471 371.598 451.342 371.598C449.705 371.598 448.362 370.267 448.362 368.622C448.362 367.506 448.983 366.514 449.908 366.006H449.919L453.95 370.02V370.042H453.961ZM462.652 387.167C461.016 387.167 459.673 385.836 459.673 384.19C459.673 382.544 461.005 381.215 462.652 381.215C464.29 381.215 465.633 382.544 465.633 384.19C465.633 385.836 464.29 387.167 462.652 387.167Z" fill="#DE4456"/>
<path d="M398.061 332.041C399.707 332.041 401.042 330.709 401.042 329.065C401.042 327.42 399.707 326.088 398.061 326.088C396.416 326.088 395.081 327.42 395.081 329.065C395.081 330.709 396.416 332.041 398.061 332.041Z" fill="white"/>
<path d="M383.171 317.083C384.817 317.083 386.151 315.749 386.151 314.105C386.151 312.462 384.817 311.129 383.171 311.129C381.525 311.129 380.191 312.462 380.191 314.105C380.191 315.749 381.525 317.083 383.171 317.083Z" fill="white"/>
<path d="M378.047 347.509C379.693 347.509 381.026 346.175 381.026 344.532C381.026 342.888 379.693 341.556 378.047 341.556C376.401 341.556 375.067 342.888 375.067 344.532C375.067 346.175 376.401 347.509 378.047 347.509Z" fill="white"/>
<path d="M365.381 320.701C367.027 320.701 368.361 319.368 368.361 317.724C368.361 316.08 367.027 314.747 365.381 314.747C363.735 314.747 362.401 316.08 362.401 317.724C362.401 319.368 363.735 320.701 365.381 320.701Z" fill="white"/>
<path d="M394.031 359.153C395.677 359.153 397.011 357.82 397.011 356.177C397.011 354.533 395.677 353.2 394.031 353.2C392.385 353.2 391.051 354.533 391.051 356.177C391.051 357.82 392.385 359.153 394.031 359.153Z" fill="white"/>
<path d="M398.705 317.781C399.439 317.781 400.127 317.51 400.646 317.059L396.446 312.887C395.995 313.405 395.736 314.072 395.736 314.815C395.725 316.45 397.056 317.781 398.705 317.781Z" fill="white"/>
<path d="M410.771 352.728C412.417 352.728 413.752 351.395 413.752 349.752C413.752 348.107 412.417 346.774 410.771 346.774C409.125 346.774 407.792 348.107 407.792 349.752C407.792 351.395 409.125 352.728 410.771 352.728Z" fill="white"/>
<path d="M418.628 334.927L414.497 330.822C414.497 330.822 414.497 330.811 414.485 330.822C413.696 331.353 413.176 332.267 413.176 333.281C413.176 334.916 414.508 336.258 416.156 336.258C417.194 336.258 418.109 335.716 418.628 334.927Z" fill="white"/>
<path d="M449.129 407.752C450.775 407.752 452.11 406.42 452.11 404.776C452.11 403.131 450.775 401.799 449.129 401.799C447.483 401.799 446.149 403.131 446.149 404.776C446.149 406.42 447.483 407.752 449.129 407.752Z" fill="white"/>
<path d="M438.677 428.641C440.323 428.641 441.656 427.309 441.656 425.665C441.656 424.021 440.323 422.688 438.677 422.688C437.031 422.688 435.697 424.021 435.697 425.665C435.697 427.309 437.031 428.641 438.677 428.641Z" fill="white"/>
<path d="M401.03 381.249C402.676 381.249 404.011 379.916 404.011 378.273C404.011 376.628 402.676 375.295 401.03 375.295C399.385 375.295 398.05 376.628 398.05 378.273C398.05 379.916 399.385 381.249 401.03 381.249Z" fill="white"/>
<path d="M425.401 416.59C427.047 416.59 428.381 415.258 428.381 413.614C428.381 411.969 427.047 410.637 425.401 410.637C423.755 410.637 422.421 411.969 422.421 413.614C422.421 415.258 423.755 416.59 425.401 416.59Z" fill="white"/>
<path d="M439.478 392.894C441.124 392.894 442.458 391.562 442.458 389.918C442.458 388.273 441.124 386.941 439.478 386.941C437.832 386.941 436.498 388.273 436.498 389.918C436.498 391.562 437.832 392.894 439.478 392.894Z" fill="white"/>
<path d="M424.193 442.136C425.839 442.136 427.174 440.802 427.174 439.159C427.174 437.515 425.839 436.183 424.193 436.183C422.548 436.183 421.213 437.515 421.213 439.159C421.213 440.802 422.548 442.136 424.193 442.136Z" fill="white"/>
<path d="M404.326 415.283C405.973 415.283 407.306 413.95 407.306 412.306C407.306 410.662 405.973 409.329 404.326 409.329C402.68 409.329 401.347 410.662 401.347 412.306C401.347 413.95 402.68 415.283 404.326 415.283Z" fill="white"/>
<path d="M462.653 387.168C464.299 387.168 465.634 385.834 465.634 384.191C465.634 382.547 464.299 381.215 462.653 381.215C461.008 381.215 459.673 382.547 459.673 384.191C459.673 385.834 461.008 387.168 462.653 387.168Z" fill="white"/>
<path d="M380.158 376.729C381.804 376.729 383.139 375.396 383.139 373.752C383.139 372.108 381.804 370.775 380.158 370.775C378.513 370.775 377.178 372.108 377.178 373.752C377.178 375.396 378.513 376.729 380.158 376.729Z" fill="white"/>
<path d="M339.136 462.382C340.782 462.382 342.115 461.05 342.115 459.406C342.115 457.761 340.782 456.429 339.136 456.429C337.49 456.429 336.156 457.761 336.156 459.406C336.156 461.05 337.49 462.382 339.136 462.382Z" fill="white"/>
<path d="M337.025 439.937C337.703 438.437 337.025 436.678 335.524 436.013C334.022 435.337 332.262 436.013 331.595 437.513C330.918 439.012 331.596 440.772 333.096 441.437C334.586 442.102 336.348 441.426 337.025 439.937Z" fill="white"/>
<path d="M329.698 451.874C328.197 451.198 326.436 451.874 325.771 453.374C325.093 454.873 325.771 456.632 327.272 457.298C328.773 457.975 330.534 457.298 331.201 455.798C331.866 454.298 331.188 452.54 329.698 451.874Z" fill="white"/>
<path d="M320.679 414.99C322.325 414.99 323.659 413.657 323.659 412.013C323.659 410.369 322.325 409.036 320.679 409.036C319.033 409.036 317.699 410.369 317.699 412.013C317.699 413.657 319.033 414.99 320.679 414.99Z" fill="white"/>
<path d="M319.223 430.478C319.223 432.113 317.902 433.455 316.243 433.455C315.927 433.455 315.611 433.399 315.317 433.286C315.261 433.275 315.193 433.263 315.147 433.241C314.866 431.606 314.572 429.926 314.302 428.234C314.346 428.201 314.391 428.178 314.437 428.145C314.934 427.75 315.565 427.513 316.243 427.513C317.902 427.513 319.223 428.843 319.223 430.478Z" fill="white"/>
<path d="M333.706 425.023C335.352 425.023 336.686 423.69 336.686 422.047C336.686 420.402 335.352 419.069 333.706 419.069C332.06 419.069 330.726 420.402 330.726 422.047C330.726 423.69 332.06 425.023 333.706 425.023Z" fill="white"/>
<path d="M314.154 407.989C314.154 409.443 313.128 410.616 311.773 410.886C311.727 410.897 311.694 410.908 311.638 410.921C311.355 408.959 311.072 406.997 310.802 405.035C310.836 405.035 310.88 405.035 310.937 405.023C311.017 405.023 311.096 405.011 311.174 405.011C312.823 405.011 314.154 406.343 314.154 407.989Z" fill="white"/>
<path d="M315.205 372.005C316.85 372.005 318.185 370.673 318.185 369.028C318.185 367.384 316.85 366.052 315.205 366.052C313.559 366.052 312.224 367.384 312.224 369.028C312.224 370.673 313.559 372.005 315.205 372.005Z" fill="white"/>
<path d="M311.344 383.48C311.344 385.082 310.091 386.356 308.521 386.434C308.488 386.434 308.454 386.447 308.421 386.447C308.183 384.472 307.957 382.51 307.743 380.572C307.776 380.561 307.811 380.572 307.844 380.561C308.014 380.526 308.194 380.504 308.364 380.504C310.011 380.515 311.344 381.845 311.344 383.48Z" fill="white"/>
<path d="M418.007 386.063C419.653 386.063 420.988 384.73 420.988 383.086C420.988 381.442 419.653 380.11 418.007 380.11C416.361 380.11 415.027 381.442 415.027 383.086C415.027 384.73 416.361 386.063 418.007 386.063Z" fill="white"/>
<path d="M310.181 352.322C311.827 352.322 313.161 350.989 313.161 349.346C313.161 347.701 311.827 346.368 310.181 346.368C308.535 346.368 307.201 347.701 307.201 349.346C307.201 350.989 308.535 352.322 310.181 352.322Z" fill="white"/>
<path d="M431.735 378.239C433.381 378.239 434.715 376.906 434.715 375.263C434.715 373.618 433.381 372.286 431.735 372.286C430.089 372.286 428.754 373.618 428.754 375.263C428.754 376.906 430.089 378.239 431.735 378.239Z" fill="white"/>
<path d="M449.919 366.017C448.994 366.525 448.373 367.517 448.373 368.633C448.373 370.268 449.706 371.611 451.353 371.611C452.483 371.611 453.464 370.979 453.972 370.054V370.043L449.942 366.03H449.919V366.017Z" fill="white"/>
<path d="M389.505 396.952C391.151 396.952 392.485 395.62 392.485 393.976C392.485 392.332 391.151 390.999 389.505 390.999C387.859 390.999 386.524 392.332 386.524 393.976C386.524 395.62 387.859 396.952 389.505 396.952Z" fill="white"/>
<path d="M433.247 363.776C434.893 363.776 436.227 362.443 436.227 360.799C436.227 359.155 434.893 357.822 433.247 357.822C431.601 357.822 430.267 359.155 430.267 360.799C430.267 362.443 431.601 363.776 433.247 363.776Z" fill="white"/>
<path opacity="0.33" d="M448.215 429.452C441.476 441.627 443.159 452.787 433.145 455.91C429.838 456.947 424.374 458.266 418.087 459.664C399.923 463.7 374.841 468.344 374.841 468.344C374.841 468.344 374.796 468.355 374.683 468.379C371.951 469.009 333.955 477.769 328.187 479.595C324.89 480.643 319.856 459.709 315.33 433.262C315.273 433.251 315.205 433.24 315.16 433.217C314.877 431.582 314.583 429.903 314.313 428.212C314.358 428.178 314.404 428.156 314.448 428.121C314.415 427.851 314.369 427.591 314.313 427.31C313.433 421.966 312.586 416.432 311.773 410.863C311.728 410.874 311.695 410.885 311.638 410.896C311.355 408.935 311.074 406.973 310.802 405.011C310.836 405.011 310.881 405.011 310.937 405C310.893 404.708 310.859 404.403 310.802 404.109C309.978 398.146 309.21 392.206 308.522 386.422C308.489 386.422 308.454 386.433 308.421 386.433C308.184 384.46 307.957 382.499 307.744 380.561C307.777 380.548 307.811 380.561 307.844 380.548C307.811 380.256 307.777 379.951 307.744 379.659C306.366 367.337 305.407 356.109 305.091 347.598C304.729 338.286 305.135 332.221 306.614 331.578C306.783 331.488 306.964 331.488 307.156 331.556L317.981 327.374L325.014 324.667L352.366 314.116L361.973 310.408C373.915 317.363 391.492 330.687 395.24 350.529C395.454 351.645 395.724 352.794 396.063 353.978C396.323 354.891 396.627 355.815 396.943 356.774C405.185 380.548 434.41 414.335 448.215 429.452Z" fill="black"/>
<path d="M462.912 528.881L453.859 521.351L467.642 541.913L468.997 543.863C471.108 547.854 467.902 547.335 467.902 547.335L451.963 535.623L466.852 553.176L467.653 554.133C471.571 561.19 466.074 558.259 466.074 558.259L461.807 555.238C458.521 551.799 451.15 547.46 445.415 540.853C446.827 542.511 454.412 551.496 455.371 555.328C456.421 559.545 453.103 556.602 452.651 556.298C452.426 556.14 448.339 552.577 444.32 549.027C440.301 545.487 436.328 541.969 436.294 541.947L440.517 553.817C440.957 556.613 439.489 555.035 439.319 555.013L437.649 552.984L432.671 544.811C431.757 538.802 424.137 522.242 420.57 515.601C420.559 515.59 420.559 515.579 420.559 515.568C420.525 515.523 420.502 515.477 420.479 515.422C420.468 515.399 420.457 515.376 420.435 515.354C419.96 514.463 419.553 513.764 419.261 513.325C419.102 513.099 418.899 512.818 418.651 512.467L418.639 512.456C414.847 507.305 399.979 489.516 382.461 475.977C363.756 461.513 334.191 404.279 330.567 398.845C328.762 396.14 327.102 391.169 325.895 386.873C324.675 382.59 323.931 378.97 323.931 378.97L313.285 286.102L313.082 284.389L315.035 285.866L324.528 293.057L352.896 314.521C352.896 314.521 375.417 363.12 376.23 379.996C376.635 388.429 378.532 393.941 380.349 397.368C382.156 400.774 383.871 402.081 383.871 402.081C383.871 402.081 443.699 503.697 449.728 510.168C455.756 516.639 464.21 520.708 468.59 526.728C472.959 532.748 467.191 532.004 467.18 532.004L462.912 528.881Z" fill="#FDBBA7"/>
<path opacity="0.6" d="M346.372 401.168C358.224 415.157 408.051 495.401 418.606 512.456C414.812 507.304 399.947 489.516 382.427 475.977C363.722 461.513 334.157 404.279 330.535 398.845C328.727 396.14 327.069 391.169 325.861 386.873C324.641 382.59 323.896 378.97 323.896 378.97L313.252 286.102L315.001 285.866L323.648 284.693C323.648 284.693 323.942 287.815 324.495 293.057C327.102 317.555 335.433 388.248 346.372 401.168Z" fill="#FA7349"/>
<path d="M336.313 397.335C336.313 397.335 342.827 409.927 344.916 401.833C347.003 393.738 339.576 393.817 340.231 397.402" stroke="#4C4A4A" stroke-miterlimit="10"/>
<path d="M372.719 179.852C361.667 193.718 330.082 182.062 330.082 182.062C319.629 195.928 300.327 192.907 300.327 192.907L308.815 215.452C291.025 228.743 315.803 230.378 316.412 230.062C319.313 233.49 321.548 236.973 323.286 240.434C334.518 262.969 323.648 284.681 323.648 284.681C323.648 284.681 322.553 286.677 320.566 290.082C320.409 290.341 320.261 290.611 320.104 290.893C318.693 293.294 316.909 296.293 314.798 299.698C312.687 303.124 310.272 306.969 307.596 311.095C299.953 322.841 290.201 336.718 279.725 348.849C266.383 364.326 251.899 376.941 239.188 378.678C203.788 383.48 173.219 430.083 153.917 446.148C139.355 458.266 77.1219 463.079 47.4786 464.692C37.8384 465.221 31.6523 465.413 31.6523 465.413C31.6523 465.413 47.7495 451.761 59.8168 426.059C71.8841 400.345 79.1198 409.183 103.243 390.705C127.389 372.24 134.964 348.522 148.294 313.597C157.507 289.483 159.234 240.153 214.049 215.779C233.07 207.314 241.773 180.179 242.406 177.777C251.313 144.262 301.76 109.89 337.905 132.584C338.447 132.922 338.989 133.271 339.519 133.632C345.288 137.577 350.718 141.76 355.064 145.243C360.956 150.001 364.862 153.518 364.862 153.518C364.862 153.518 383.781 165.997 372.719 179.852Z" fill="#3A2B2B"/>
<path opacity="0.38" d="M355.075 145.266L351 144.917C345.367 144.917 301.929 129.641 284.24 163.383C266.54 197.122 248.23 235.125 224.084 248.777C199.961 262.428 170.024 327.249 156.342 363.391C142.673 399.545 101.651 405.17 86.3664 430.072C78.4534 442.968 62.7626 455.223 47.4894 464.681C37.8491 465.21 31.6631 465.402 31.6631 465.402C31.6631 465.402 47.7603 451.751 59.8275 426.048C71.8947 400.334 79.1306 409.172 103.254 390.695C127.4 372.229 134.974 348.511 148.305 313.586C157.516 289.473 159.244 240.142 214.06 215.768C233.081 207.303 241.784 180.168 242.416 177.767C251.324 144.251 301.771 109.88 337.916 132.573C338.458 132.911 338.999 133.26 339.53 133.621C345.298 137.601 350.728 141.783 355.075 145.266Z" fill="black"/>
<path d="M128.604 596.091C129.147 593.196 126.025 590.184 121.631 589.363C117.238 588.542 113.236 590.222 112.694 593.116C112.151 596.011 115.273 599.024 119.666 599.846C124.06 600.667 128.062 598.985 128.604 596.091Z" fill="#BC223F" stroke="#4C4A4A" stroke-miterlimit="10"/>
<path d="M133.146 586.848L126.949 598.404L189.711 616.655L192.083 605.618L133.146 586.848Z" fill="#BC223F" stroke="#4C4A4A" stroke-miterlimit="10"/>
<path d="M55.2792 562.982L52.4346 574.865L112.455 594.457L124.149 585.157L55.2792 562.982Z" fill="#BC223F" stroke="#4C4A4A" stroke-miterlimit="10"/>
<path d="M63.8354 542.24C63.8354 542.24 125.718 546.975 137.312 564.663C137.312 564.663 182.51 551.18 218.023 590.512C216.51 588.799 207.761 594.592 204.522 599.576C201.226 604.637 197.309 617.049 197.309 617.049C197.309 617.049 137.063 585.924 124.205 595.934C124.205 595.934 65.5286 558.067 47.3882 571.133C47.3882 571.122 54.2403 544.473 63.8354 542.24Z" fill="white" stroke="#4C4A4A" stroke-miterlimit="10"/>
<path opacity="0.28" d="M122.185 594.311C114.543 583.658 55.8208 559.207 55.8208 559.207C56.4304 551.901 64.9757 542.872 64.9757 542.872C64.9757 542.872 65.2014 543.109 65.6191 543.525C63.2938 546.637 61.3183 550.064 60.133 553.649C60.133 553.649 101.358 566.072 119.397 588.505C121.101 591.798 122.095 594.075 122.185 594.311Z" fill="#4C4A4A" stroke="#4C4A4A" stroke-miterlimit="10"/>
<path opacity="0.28" d="M192.918 607.861C192.918 607.861 147.606 589.869 132.875 593.149C118.155 596.442 133.078 592.744 133.078 592.744L133.202 592.609C146.748 590.287 172.046 588.212 191.936 599.711C191.936 599.711 195.762 587.524 203.438 577.796C205.731 579.453 207.096 580.603 206.949 580.896C206.96 580.896 192.286 595.98 192.918 607.861Z" fill="#4C4A4A"/>
<path d="M60.1328 553.649C60.1328 553.649 108.955 568.361 123.595 594.683C123.595 594.683 163.353 583.185 191.946 599.699C191.946 599.699 201.17 570.39 219.626 566.399C219.626 566.399 147.313 546.051 137.368 560.953C137.368 560.953 106.697 522.332 84.1657 526.492C84.177 526.492 65.1562 538.453 60.1328 553.649Z" fill="white" stroke="#4C4A4A" stroke-miterlimit="10"/>
<path opacity="0.28" d="M78.3524 536.062C78.3524 536.062 71.9858 542.658 69.4458 543.165C70.4279 541.653 124.974 583.703 122.682 592.485C122.682 592.485 124.534 569.059 78.3524 536.062Z" fill="#4C4A4A" stroke="#4C4A4A" stroke-miterlimit="10"/>
<path opacity="0.28" d="M192.793 591.426C192.793 591.426 153.114 582.418 127.67 592.88L128.258 591.595C138.553 585.428 164.55 573.23 192.929 586.217C192.929 586.217 192.985 585.981 193.133 585.552C192.556 588.066 192.184 590.648 192.793 591.426Z" fill="#4C4A4A" stroke="#4C4A4A" stroke-miterlimit="10"/>
<path d="M68.5879 530.088C68.5879 530.088 119.961 557.684 123.595 594.672C123.595 594.672 156.287 569.442 192.918 586.216C192.918 586.216 199.216 562.566 218.091 558.034C218.091 558.034 149.718 531.599 137.447 557.234C137.447 557.234 122.309 515.309 99.0438 503.505C99.0551 503.517 92.7563 517.236 68.5879 530.088Z" fill="white" stroke="#4C4A4A" stroke-miterlimit="10"/>
<path d="M137.458 557.245C137.458 557.245 128.687 573.422 130.21 579.51L137.458 557.245Z" fill="white"/>
<path d="M137.458 557.245C137.458 557.245 128.687 573.422 130.21 579.51" stroke="#4C4A4A" stroke-miterlimit="10"/>
<path opacity="0.28" d="M132.446 546.952C132.446 546.952 112.443 523.809 119.927 578.732C119.927 578.732 124.86 592.676 124.048 594.3C124.048 594.3 125.932 592.068 132.638 588.573C132.638 588.573 141.002 551.158 148.159 548.789C148.159 548.789 140.54 552.082 138.147 557.098L136.724 556.895L132.446 546.952Z" fill="#4C4A4A"/>
<path d="M346.553 621.373C347.41 619.308 344.191 616.015 339.365 614.019C334.537 612.022 329.931 612.077 329.074 614.142C328.217 616.207 331.436 619.501 336.263 621.497C341.089 623.494 345.697 623.439 346.553 621.373Z" fill="#4C4A4A" stroke="#4C4A4A" stroke-miterlimit="10"/>
<path d="M349.002 610.714L342.68 621.244L408.321 629.89L415.332 617.704L349.002 610.714Z" fill="#4C4A4A" stroke="#4C4A4A" stroke-miterlimit="10"/>
<path d="M287.605 576.545L282.006 582.993L329.89 614.491L340.333 608.098L287.605 576.545Z" fill="#4C4A4A" stroke="#4C4A4A" stroke-miterlimit="10"/>
<path d="M281.904 577.762C281.904 577.762 308.149 583.433 336.043 619.63C336.043 619.63 395.251 611.66 417.094 631.084C417.094 631.084 414.994 601.65 434.748 591.651C434.748 591.651 370.846 563.919 353.428 583.973C353.428 583.973 338.82 537.686 307.517 544.214C307.517 544.214 290.755 565.835 281.904 577.762Z" fill="white" stroke="#4C4A4A" stroke-miterlimit="10"/>
<path d="M285.031 568.664C285.031 568.664 320.217 582.565 336.043 619.631C336.043 619.631 380.937 605.416 411.009 622.246C411.009 622.246 411.077 589.171 429.183 579.612C429.183 579.612 368.26 561.552 353.428 583.973C353.428 583.973 354.206 547.618 309.38 533.458C309.38 533.458 288.146 559.567 285.031 568.664Z" fill="white" stroke="#4C4A4A" stroke-miterlimit="10"/>
<path opacity="0.28" d="M406.415 608.471C406.415 608.471 403.931 612.777 405.59 614.389C405.59 614.389 362.944 606.948 340.062 617.883C340.062 617.883 382.076 592.135 406.415 608.471Z" fill="black"/>
<path d="M408.491 609.507C391.254 596.486 366.612 604.13 350.978 611.412C342.048 615.583 336.043 619.631 336.043 619.631C337.058 615.415 335.93 610.037 333.514 604.153C324.654 582.474 298.339 554.212 298.339 554.212C306.648 551.799 323.783 525.793 323.783 525.793C335.026 523.358 343.403 542.218 348.426 558.383C352.027 569.939 353.901 580.118 353.901 580.118C355.685 577.21 358.597 574.921 362.277 573.163C383.657 562.847 430.888 569.612 430.888 569.612C414.542 572.576 408.491 609.507 408.491 609.507Z" fill="white" stroke="#4C4A4A" stroke-miterlimit="10"/>
<path d="M353.89 580.107C353.89 580.107 347.196 591.155 346.744 601.177L353.89 580.107Z" fill="white"/>
<path d="M353.89 580.107C353.89 580.107 347.196 591.155 346.744 601.177" stroke="#4C4A4A" stroke-miterlimit="10"/>
<path opacity="0.28" d="M350.966 611.412C342.037 615.583 336.032 619.631 336.032 619.631C337.047 615.415 335.918 610.037 333.503 604.153C343.289 587.851 349.272 558.789 347.726 557.932C347.726 557.932 347.974 558.091 348.403 558.383C352.005 569.939 353.878 580.118 353.878 580.118C355.662 577.21 358.574 574.921 362.255 573.163C362.062 573.365 361.769 573.546 361.385 573.692C357.355 575.203 353.404 595.754 350.966 611.412Z" fill="black"/>
<path opacity="0.28" d="M316.153 536.525C311.039 543.289 304.413 551.192 299.717 553.627C305.644 547.224 313.986 535.634 313.986 535.634L316.153 536.525Z" fill="black"/>
<path opacity="0.28" d="M336.404 615.651L335.716 617.139C335.535 610.455 294.706 557.74 294.706 557.74C295.54 557.651 296.997 556.456 298.746 554.652C302.843 559.127 335.738 595.675 336.404 615.651Z" fill="black"/>
<path opacity="0.28" d="M284.071 575.71C284.071 575.71 317.688 596.802 333.12 615.008C333.12 615.008 320.871 587.456 288.011 570.39L284.071 575.71Z" fill="black"/>
<path d="M720.564 154.28C720.837 152.779 718.219 151.047 714.716 150.412C711.214 149.777 708.153 150.479 707.88 151.98C707.609 153.481 710.226 155.213 713.729 155.848C717.231 156.483 720.291 155.781 720.564 154.28Z" fill="#4C4A4A" stroke="#4C4A4A" stroke-miterlimit="10"/>
<path d="M720.648 146.799L717.962 154.713L762.901 151.027L765.802 141.907L720.648 146.799Z" fill="#4C4A4A" stroke="#4C4A4A" stroke-miterlimit="10"/>
<path d="M674.863 132.9L672.063 137.996L708.468 152.065L714.507 146.304L674.863 132.9Z" fill="#4C4A4A" stroke="#4C4A4A" stroke-miterlimit="10"/>
<path d="M671.239 134.523C671.239 134.523 689.526 134.512 713.31 154.601C713.31 154.601 751.567 140.779 768.906 150.565C768.906 150.565 763.261 131.276 774.968 121.784C774.968 121.784 728.436 112.518 719.745 128.379C719.745 128.379 703.354 99.6774 683.453 108.516C683.453 108.516 675.405 125.313 671.239 134.523Z" fill="white" stroke="#4C4A4A" stroke-miterlimit="10"/>
<path d="M672.007 128.018C672.007 128.018 697.427 132.211 713.311 154.601C713.311 154.601 741.136 138.682 763.578 145.548C763.578 145.548 758.848 123.521 769.515 114.558C769.515 114.558 726.36 111.3 719.734 128.368C719.734 128.368 715.004 104.063 683.137 101.087C683.137 101.087 672.774 121.525 672.007 128.018Z" fill="white" stroke="#4C4A4A" stroke-miterlimit="10"/>
<path opacity="0.28" d="M758.532 137.048C758.532 137.048 757.504 140.273 758.837 141.106C758.837 141.106 729.374 142.29 715.727 152.865C715.727 152.865 739.984 129.687 758.532 137.048Z" fill="black"/>
<path d="M760.067 137.442C746.714 131.265 731.418 139.889 722.059 146.98C716.72 151.038 713.311 154.589 713.311 154.589C713.379 151.635 711.855 148.22 709.394 144.658C700.363 131.502 678.779 116.475 678.779 116.475C683.961 113.679 691.614 93.9058 691.614 93.9058C698.749 90.6591 707.035 102.011 712.713 112.056C716.777 119.225 719.497 125.729 719.497 125.729C720.264 123.532 721.867 121.604 724.069 119.89C736.813 109.947 769.222 107.659 769.222 107.659C758.769 111.999 760.067 137.442 760.067 137.442Z" fill="white" stroke="#4C4A4A" stroke-miterlimit="10"/>
<path d="M719.497 125.729C719.497 125.729 716.629 134.049 717.781 140.78L719.497 125.729Z" fill="white"/>
<path d="M719.497 125.729C719.497 125.729 716.629 134.049 717.781 140.78" stroke="#4C4A4A" stroke-miterlimit="10"/>
<path opacity="0.28" d="M722.059 146.98C716.72 151.038 713.31 154.589 713.31 154.589C713.379 151.635 711.855 148.22 709.394 144.658C713.547 132.403 713.344 112.202 712.193 111.853C712.193 111.853 712.384 111.92 712.713 112.055C716.777 119.225 719.497 125.729 719.497 125.729C720.264 123.532 721.867 121.604 724.069 119.89C723.967 120.059 723.797 120.217 723.572 120.375C721.088 121.965 721.427 136.214 722.059 146.98Z" fill="black"/>
<path opacity="0.28" d="M688.081 102.158C685.655 107.389 682.381 113.612 679.615 115.9C682.629 110.793 686.512 101.876 686.512 101.876L688.081 102.158Z" fill="black"/>
<path opacity="0.28" d="M712.983 151.895L712.746 152.977C711.663 148.558 676.884 119.349 676.884 119.349C677.425 119.169 678.226 118.166 679.13 116.711C682.494 119.112 709.653 138.706 712.983 151.895Z" fill="black"/>
<path opacity="0.28" d="M672.391 132.854C672.391 132.854 697.812 142.054 710.703 151.951C710.703 151.951 698.579 135.369 674.253 128.739L672.391 132.854Z" fill="black"/>
</svg>
