<svg width="1024" height="992" viewBox="0 0 1024 992" fill="none" xmlns="http://www.w3.org/2000/svg">
<g opacity="0.66">
<path opacity="0.76" d="M464.556 697.225C460.616 707.167 452.286 714.624 442.155 717.788C440.579 718.24 439.004 718.692 437.315 719.143C434.051 719.934 430.561 720.612 426.959 720.838C421.556 825.461 235.825 769.308 235.825 769.308C199.466 785.465 144.647 765.467 143.747 765.128C110.09 752.361 115.493 723.098 115.493 723.098C115.493 723.098 115.831 721.742 116.506 719.708C118.42 714.285 123.26 703.665 133.841 698.58L134.179 696.886C134.179 696.886 138.006 657.341 176.278 654.517C193.388 653.274 204.306 659.375 211.06 666.606C214.212 650.675 230.984 601.64 317.321 609.549C320.361 609.888 347.601 612.261 361.559 645.365C361.559 645.365 416.378 615.537 451.048 648.867C457.577 655.081 461.742 661.183 464.218 667.058C469.171 678.808 467.595 689.316 464.556 697.225Z" fill="#3E66F4"/>
<path opacity="0.28" d="M426.846 721.742C421.443 826.365 235.711 770.212 235.711 770.212C199.353 786.369 144.534 766.371 143.633 766.032C109.977 753.265 115.38 724.002 115.38 724.002C115.38 724.002 120.67 699.258 143.071 696.886C162.657 694.739 168.848 708.636 170.086 712.251C161.981 704.343 126.749 716.658 139.581 741.401C143.633 749.197 156.466 755.863 173.238 759.14C198.903 763.998 226.031 758.575 238.638 749.762C238.3 750.214 381.482 785.126 407.485 747.277C413.676 739.481 417.616 730.442 420.205 721.968C422.456 722.081 424.707 721.968 426.846 721.742Z" fill="url(#paint0_linear)"/>
<path opacity="0.28" d="M463.317 696.886C459.378 706.828 451.048 714.285 440.917 717.449C436.527 718.805 431.349 720.047 425.721 720.499C423.582 720.725 421.331 720.725 419.079 720.612C408.273 720.273 396.679 716.432 387.111 705.359H386.773L387.111 705.133C387.111 705.133 403.883 711.461 421.668 710.444C422.794 710.331 423.92 710.331 425.158 710.105C442.831 708.071 460.503 698.015 463.092 666.719C467.932 678.469 466.469 688.864 463.317 696.886Z" fill="black"/>
<path opacity="0.66" d="M133.953 698.354C133.953 698.354 160.293 688.073 169.749 712.025" stroke="#737373" stroke-miterlimit="10"/>
</g>
<path opacity="0.43" d="M298.071 496.791H297.846C282.538 507.185 242.802 503.118 242.802 503.118C242.802 503.118 226.818 516.789 176.952 516.111C127.086 515.433 121.233 490.577 121.233 490.577C112.002 495.435 20.4873 510.914 10.3565 481.312C10.2439 480.069 10.1313 478.826 10.2439 477.81C10.6941 467.98 19.5868 465.494 27.2411 465.381C22.0632 457.472 29.2673 447.304 29.2673 447.304C38.1599 436.683 50.2043 433.746 62.0236 434.311C61.5733 417.815 70.5785 382.451 153.201 378.836C261.601 373.977 249.556 443.914 249.556 443.914C249.556 443.914 300.886 422.108 308.09 459.393C308.09 459.393 338.144 462.896 344.898 477.132C351.765 491.707 306.852 496.791 298.071 496.791Z" fill="#3E66F4"/>
<path opacity="0.26" d="M62.0226 434.311C81.2712 434.65 101.533 446.4 101.533 446.4C101.533 446.4 38.6092 432.842 29.3789 447.191C29.3789 447.304 40.7479 433.859 62.0226 434.311Z" fill="#3E66F4"/>
<path opacity="0.26" d="M38.7225 467.189C38.7225 467.189 35.4582 465.607 27.3535 465.381" stroke="black" stroke-miterlimit="10"/>
<path opacity="0.26" d="M297.846 496.791C297.846 496.791 307.526 492.159 302.123 479.617" stroke="black" stroke-miterlimit="10"/>
<path opacity="0.21" d="M298.071 496.791H297.846C282.538 507.185 242.802 503.118 242.802 503.118C242.802 503.118 226.818 516.789 176.952 516.111C127.086 515.433 121.233 490.577 121.233 490.577C112.002 495.435 20.4873 510.914 10.3565 481.312C10.2439 480.069 10.1313 478.826 10.2439 477.81C14.7465 479.73 62.0236 498.712 114.929 483.233C114.929 483.233 195.3 519.162 239.763 489.108C239.763 489.108 279.949 499.503 301.223 480.182C301.336 480.182 306.401 490.125 298.071 496.791Z" fill="black"/>
<path opacity="0.3" d="M604.81 165.409H605.035C621.132 179.08 663.006 173.882 663.006 173.882C663.006 173.882 679.778 191.96 732.233 190.943C784.688 189.926 790.767 157.274 790.767 157.274C800.448 163.601 896.803 184.164 907.384 145.072C907.496 143.377 907.609 141.795 907.496 140.326C906.934 127.333 897.703 124.056 889.599 123.944C895.114 113.549 887.46 100.104 887.46 100.104C878.117 86.0938 865.397 82.2524 853.015 83.0433C853.465 61.2374 844.01 14.6879 757.11 9.82961C643.082 3.5025 655.802 95.6975 655.802 95.6975C655.802 95.6975 601.771 66.8866 594.229 116.148C594.229 116.148 562.711 120.78 555.507 139.535C548.303 158.856 595.467 165.522 604.81 165.409Z" fill="#3E66F4"/>
<path opacity="0.26" d="M853.015 83.1562C832.753 83.6082 811.479 99.087 811.479 99.087C811.479 99.087 877.666 81.2355 887.46 100.217C887.46 100.217 875.528 82.5913 853.015 83.1562Z" fill="#3E66F4"/>
<path opacity="0.26" d="M877.555 126.429C877.555 126.429 881.044 124.282 889.599 124.056" stroke="black" stroke-miterlimit="10"/>
<path opacity="0.26" d="M605.035 165.409C605.035 165.409 594.792 159.195 600.532 142.812" stroke="black" stroke-miterlimit="10"/>
<path opacity="0.1" d="M604.811 165.409H605.036C621.133 179.08 663.007 173.882 663.007 173.882C663.007 173.882 679.779 191.96 732.234 190.943C784.689 189.926 790.768 157.274 790.768 157.274C800.448 163.601 896.804 184.164 907.385 145.072C907.497 143.377 907.61 141.795 907.497 140.326C902.77 142.812 853.129 167.894 797.409 147.444C797.409 147.444 712.873 194.784 666.046 155.24C666.046 155.24 623.835 168.911 601.434 143.49C601.322 143.603 596.031 156.709 604.811 165.409Z" fill="black"/>
<path opacity="0.34" d="M426.845 175.238C423.919 182.808 417.615 188.457 409.961 190.943C408.835 191.282 407.597 191.621 406.246 191.96C403.882 192.525 401.181 193.09 398.366 193.316C394.314 272.857 254.171 230.149 254.171 230.149C226.705 242.464 185.394 227.211 184.606 226.985C159.167 217.268 163.219 195.011 163.219 195.011C163.219 195.011 163.444 193.994 164.007 192.412C165.47 188.231 169.072 180.21 177.064 176.368L177.29 175.125C177.29 175.125 180.216 145.072 209.033 142.925C221.978 141.908 230.195 146.653 235.26 152.077C237.624 139.987 250.344 102.703 315.519 108.804C317.77 109.143 338.369 110.837 348.951 136.033C348.951 136.033 390.262 113.323 416.489 138.631C421.33 143.377 424.594 148.009 426.508 152.415C430.335 161.228 429.209 169.137 426.845 175.238Z" fill="#3E66F4"/>
<path opacity="0.17" d="M398.48 193.881C394.427 273.421 254.284 230.713 254.284 230.713C226.819 243.029 185.507 227.776 184.72 227.55C159.28 217.833 163.332 195.575 163.332 195.575C163.332 195.575 167.272 176.82 184.269 174.899C199.015 173.318 203.743 183.825 204.643 186.537C198.452 180.549 172 189.926 181.68 208.682C184.72 214.67 194.4 219.754 207.12 222.127C226.481 225.855 246.968 221.675 256.536 215.009C256.311 215.348 364.373 241.899 383.959 213.088C388.574 207.1 391.613 200.321 393.527 193.881C395.103 194.107 396.791 193.994 398.48 193.881Z" fill="url(#paint1_linear)"/>
<path opacity="0.17" d="M425.944 174.899C423.017 182.356 416.714 188.118 409.059 190.604C405.795 191.621 401.855 192.638 397.578 192.977C395.889 193.09 394.201 193.203 392.512 193.09C384.408 192.751 375.628 189.926 368.311 181.565H368.086L368.311 181.339C368.311 181.339 380.918 186.198 394.426 185.407C395.327 185.294 396.115 185.294 397.015 185.181C410.298 183.599 423.693 176.029 425.606 152.19C429.434 161.002 428.308 168.911 425.944 174.899Z" fill="black"/>
<path opacity="0.63" d="M786.152 493.401C783.225 500.858 776.922 506.621 769.267 509.106C768.142 509.445 766.903 509.784 765.552 510.123C763.076 510.688 760.487 511.253 757.673 511.479C753.621 591.02 613.478 548.312 613.478 548.312C586.012 560.627 544.701 545.374 543.913 545.148C518.473 535.431 522.526 513.174 522.526 513.174C522.526 513.174 522.751 512.157 523.314 510.575C524.777 506.395 528.379 498.373 536.371 494.531L536.596 493.288C536.596 493.288 539.523 463.235 568.339 461.088C581.284 460.071 589.502 464.816 594.567 470.24C596.931 458.15 609.538 420.866 674.825 426.854C677.077 427.193 697.676 428.888 708.257 454.083C708.257 454.083 749.568 431.373 775.796 456.795C780.636 461.54 783.901 466.172 785.814 470.579C789.641 479.504 788.516 487.413 786.152 493.401Z" fill="#3E66F4"/>
<path opacity="0.28" d="M757.786 512.157C753.734 591.698 613.591 548.99 613.591 548.99C586.125 561.305 544.814 546.052 544.026 545.826C518.587 536.109 522.639 513.852 522.639 513.852C522.639 513.852 526.579 495.096 543.576 493.175C558.322 491.594 563.05 502.101 563.95 504.813C557.759 498.825 531.306 508.202 540.987 526.958C544.026 532.946 553.707 538.03 566.427 540.403C585.788 544.131 606.274 539.951 615.842 533.285C615.617 533.624 723.679 560.175 743.266 531.364C747.881 525.376 750.92 518.597 752.834 512.157C754.409 512.27 756.098 512.27 757.786 512.157Z" fill="url(#paint2_linear)"/>
<path opacity="0.28" d="M785.251 493.175C782.324 500.632 776.02 506.395 768.366 508.88C765.102 509.897 761.162 510.914 756.885 511.253C755.196 511.366 753.508 511.479 751.819 511.366C743.714 511.027 734.934 508.202 727.618 499.842H727.393L727.618 499.616C727.618 499.616 740.225 504.474 753.733 503.57C754.633 503.57 755.421 503.457 756.322 503.344C769.604 501.762 782.999 494.192 784.913 470.353C788.74 479.165 787.615 487.187 785.251 493.175Z" fill="black"/>
<g opacity="0.66">
<path opacity="0.42" d="M974.247 741.966H974.022C961.977 752.7 930.684 748.519 930.684 748.519C930.684 748.519 918.077 762.642 878.905 761.851C839.845 761.174 835.229 735.526 835.229 735.526C828.025 740.497 755.984 756.541 748.104 725.923C747.992 724.567 747.879 723.324 747.992 722.194C748.33 712.025 755.309 709.427 761.387 709.427C757.222 701.292 762.963 690.785 762.963 690.785C769.942 679.825 779.51 676.887 788.628 677.452C788.29 660.392 795.382 623.898 860.331 620.17C945.543 615.198 936.087 687.395 936.087 687.395C936.087 687.395 976.385 664.798 982.126 703.439C982.126 703.439 1005.76 707.054 1011.06 721.742C1016.46 736.769 981.226 741.966 974.247 741.966Z" fill="#3E66F4"/>
<path opacity="0.31" d="M974.247 741.966H974.022C961.977 752.7 930.684 748.519 930.684 748.519C930.684 748.519 918.077 762.642 878.905 761.851C839.845 761.173 835.229 735.526 835.229 735.526C828.025 740.497 755.984 756.541 748.104 725.923C747.992 724.567 747.879 723.324 747.992 722.194C751.481 724.115 788.628 743.774 830.277 727.73C830.277 727.73 893.425 764.789 928.433 733.831C928.433 733.831 960.064 744.565 976.723 724.68C976.836 724.793 980.775 735.074 974.247 741.966Z" fill="black"/>
<path opacity="0.26" d="M819.695 689.994C819.695 689.994 803.823 677.791 788.627 677.452" stroke="black" stroke-miterlimit="10"/>
<path opacity="0.26" d="M770.392 711.348C770.392 711.348 767.803 709.653 761.387 709.54" stroke="black" stroke-miterlimit="10"/>
<path opacity="0.26" d="M974.021 741.966C974.021 741.966 981.676 737.108 977.398 724.228" stroke="black" stroke-miterlimit="10"/>
</g>
<path d="M235.935 694.061L248.655 716.545L239.875 718.353L227.268 695.756L235.935 694.061Z" fill="#ABABAB"/>
<path d="M246.515 722.533C248.766 722.081 251.13 722.759 251.805 723.889C252.481 725.132 251.243 726.488 248.991 726.939C246.74 727.391 244.376 726.713 243.701 725.471C242.913 724.341 244.264 722.985 246.515 722.533Z" fill="#ABABAB"/>
<path d="M775.457 529.556C787.502 527.184 800.222 530.573 803.936 537.013L868.436 651.692C872.15 658.245 865.284 665.363 853.239 667.736L292.105 777.217C280.061 779.59 267.341 776.2 263.626 769.76L249.668 744.904C250.906 742.757 254.621 740.723 256.535 739.82L260.587 739.029C268.241 737.56 272.631 732.927 270.267 728.86L245.166 684.118C242.802 679.938 234.697 677.791 227.043 679.373L224.904 679.825C222.765 679.825 214.661 679.486 211.509 677.113L199.127 655.082C195.412 648.528 202.278 641.41 214.323 639.038L775.457 529.556Z" fill="#95B0F9"/>
<path d="M886.783 655.872C886.783 654.743 886.445 653.613 885.77 652.596L817.668 531.477C813.954 524.924 801.234 521.647 789.189 524.02L608.636 559.271L291.879 621.073L199.689 639.038C189.558 640.958 183.142 646.382 183.48 651.918C183.48 652.483 183.592 653.161 183.817 653.726C183.817 653.839 183.93 654.065 183.93 654.178C184.042 654.517 184.155 654.743 184.38 655.082L252.482 776.2C252.594 776.426 252.707 776.539 252.819 776.765C252.932 776.991 253.044 777.104 253.27 777.33C253.495 777.669 253.832 778.008 254.17 778.347C254.283 778.46 254.283 778.46 254.395 778.573C254.62 778.799 254.958 779.025 255.183 779.364H255.296C255.408 779.477 255.633 779.59 255.746 779.703C255.971 779.929 256.309 780.042 256.534 780.268C256.646 780.381 256.872 780.494 256.984 780.607C256.984 780.607 256.984 780.607 257.097 780.607C257.434 780.833 257.772 780.946 258.11 781.172C258.222 781.172 258.222 781.285 258.335 781.285C258.56 781.398 258.785 781.511 259.123 781.624C259.348 781.737 259.686 781.85 259.911 781.963C260.023 782.076 260.249 782.076 260.361 782.189C260.699 782.302 261.037 782.528 261.487 782.641C261.824 782.754 262.275 782.867 262.612 782.979C262.95 783.092 263.175 783.205 263.513 783.205C263.738 783.205 263.851 783.318 264.076 783.318C264.188 783.318 264.301 783.318 264.413 783.431C264.639 783.431 264.864 783.544 265.089 783.544C265.314 783.544 265.539 783.657 265.764 783.657C265.989 783.657 266.102 783.77 266.327 783.77C266.777 783.883 267.228 783.883 267.678 783.996H267.79C267.903 783.996 267.903 783.996 268.016 783.996C268.353 783.996 268.691 784.109 269.141 784.109C269.366 784.109 269.479 784.109 269.704 784.109C270.042 784.109 270.267 784.109 270.604 784.222C270.942 784.222 271.167 784.222 271.505 784.222C272.631 784.222 273.756 784.222 274.882 784.222C275.332 784.222 275.782 784.222 276.233 784.109C276.458 784.109 276.57 784.109 276.796 784.109C277.358 784.109 277.921 783.996 278.484 783.883C278.709 783.883 279.047 783.77 279.272 783.77C279.722 783.77 280.06 783.657 280.51 783.544C280.623 783.544 280.848 783.544 280.96 783.431L870.574 668.414C871.137 668.301 871.699 668.188 872.262 668.075C872.487 668.075 872.6 667.962 872.825 667.962C873.05 667.962 873.275 667.849 873.5 667.736C873.725 667.736 873.951 667.623 874.063 667.51C874.626 667.284 875.189 667.171 875.752 666.945C875.864 666.945 875.977 666.832 876.089 666.832C876.427 666.719 876.652 666.606 876.99 666.493C877.328 666.38 877.553 666.267 877.778 666.154C878.453 665.815 879.129 665.589 879.691 665.25C879.804 665.137 879.917 665.137 880.029 665.024C880.254 664.911 880.592 664.685 880.817 664.572C881.042 664.346 881.38 664.233 881.605 664.12C881.83 664.007 881.943 663.781 882.168 663.668C882.393 663.555 882.505 663.442 882.618 663.329C882.843 663.216 882.956 662.99 883.068 662.877C883.181 662.764 883.406 662.651 883.519 662.538C883.744 662.313 884.081 661.974 884.307 661.748C884.307 661.635 884.419 661.635 884.419 661.522C884.869 660.957 885.32 660.392 885.545 659.827C885.77 659.488 885.882 659.149 886.108 658.81C886.22 658.584 886.22 658.471 886.333 658.245C886.333 658.132 886.445 657.906 886.445 657.793C886.445 657.793 886.445 657.793 886.445 657.68C886.558 657.341 886.558 657.002 886.67 656.663C886.67 656.437 886.67 656.211 886.67 655.985L886.783 655.872ZM239.874 718.353L227.155 695.756L235.935 694.061L248.654 716.658L239.874 718.353ZM243.702 725.471C243.026 724.228 244.264 722.872 246.516 722.42C248.767 721.968 251.131 722.646 251.806 723.776C252.482 724.906 251.243 726.374 248.992 726.826C246.741 727.391 244.377 726.713 243.702 725.471ZM853.239 667.736L697.224 698.128L694.185 698.693L291.992 777.217C279.947 779.59 267.228 776.2 263.513 769.76L249.555 744.904C250.793 742.757 254.508 740.723 256.421 739.82L260.474 739.029C268.128 737.56 272.518 732.928 270.154 728.86L245.052 684.118C242.688 679.938 234.584 677.791 226.929 679.373L224.791 679.825C222.652 679.825 214.547 679.486 211.396 677.113L199.013 655.082C195.299 648.528 202.165 641.41 214.21 639.038L294.13 623.446L615.39 560.74L775.344 529.556C786.488 527.41 798.307 530.121 802.81 535.657C803.035 535.996 803.26 536.222 803.485 536.561C803.598 536.674 803.71 536.9 803.823 537.013L868.322 651.692C872.037 658.132 865.283 665.363 853.239 667.736Z" fill="#403E3E"/>
<path d="M887.233 666.267C887.233 665.928 887.233 665.589 887.233 665.363L886.895 655.872C886.895 656.211 886.895 656.55 886.895 656.889C886.895 657.228 886.783 657.454 886.783 657.793V657.906C886.67 658.245 886.558 658.584 886.445 658.923C886.445 659.036 886.333 659.149 886.333 659.149C886.22 659.375 886.107 659.714 885.995 659.94C885.882 660.053 885.882 660.166 885.77 660.279C885.657 660.505 885.432 660.844 885.207 661.07C885.094 661.296 884.869 661.409 884.757 661.635C884.757 661.635 884.644 661.748 884.644 661.861C884.419 662.087 884.194 662.425 883.856 662.651C883.744 662.764 883.518 662.877 883.406 662.99C883.181 663.103 883.068 663.329 882.843 663.442C882.73 663.555 882.505 663.668 882.393 663.781C882.168 663.894 882.055 664.12 881.83 664.233C881.38 664.572 880.817 664.911 880.367 665.25C880.254 665.363 880.141 665.363 880.029 665.476C879.579 665.702 879.128 665.928 878.678 666.154C878.453 666.267 878.34 666.267 878.115 666.38C877.552 666.606 876.99 666.832 876.427 667.058C876.314 667.058 876.314 667.058 876.202 667.171C875.526 667.397 874.851 667.623 874.176 667.849C873.838 667.962 873.5 668.075 873.162 668.075C872.937 668.075 872.825 668.188 872.6 668.188C872.037 668.301 871.474 668.414 870.911 668.527L281.073 783.544C280.735 783.657 280.397 783.657 280.06 783.657C279.497 783.77 279.047 783.883 278.484 783.883C278.033 783.883 277.696 783.996 277.358 783.996C277.02 783.996 276.683 784.109 276.345 784.109C275.895 784.109 275.444 784.109 274.994 784.222C274.769 784.222 274.544 784.222 274.206 784.222C273.531 784.222 272.743 784.222 272.068 784.222C272.068 784.222 272.068 784.222 271.955 784.222C271.28 784.222 270.604 784.222 269.929 784.109C269.704 784.109 269.479 784.109 269.141 783.996C268.691 783.996 268.24 783.883 267.903 783.883C267.565 783.883 267.227 783.77 266.89 783.77C266.552 783.77 266.214 783.657 265.877 783.544C265.426 783.431 264.976 783.318 264.526 783.205C264.301 783.205 264.075 783.092 263.85 783.092C263.062 782.866 262.274 782.641 261.599 782.415C261.261 782.302 260.811 782.189 260.473 781.963C260.361 781.963 260.136 781.85 260.023 781.737C259.46 781.511 259.01 781.285 258.447 781.059C258.335 781.059 258.335 780.946 258.222 780.946C257.772 780.72 257.434 780.494 257.096 780.268C256.984 780.155 256.759 780.042 256.646 779.929C256.309 779.703 256.083 779.59 255.858 779.364C255.746 779.251 255.521 779.138 255.408 779.025C255.183 778.799 254.958 778.686 254.733 778.46C254.62 778.347 254.507 778.234 254.395 778.121C254.17 777.895 253.945 777.669 253.72 777.443C253.607 777.33 253.494 777.217 253.382 777.104C253.157 776.765 252.819 776.426 252.706 775.974L184.605 654.856C183.929 653.726 183.704 652.596 183.592 651.579L184.042 661.07C184.042 662.2 184.38 663.329 185.055 664.346L253.157 785.465C253.382 785.804 253.607 786.256 253.832 786.595C253.945 786.708 254.057 786.821 254.17 786.934C254.395 787.16 254.62 787.386 254.845 787.612C254.958 787.725 255.07 787.838 255.183 787.951C255.408 788.177 255.633 788.403 255.858 788.516C255.971 788.629 256.196 788.742 256.309 788.855C256.534 789.081 256.871 789.194 257.096 789.42C257.209 789.533 257.434 789.646 257.547 789.759C257.884 789.985 258.335 790.21 258.672 790.436C258.785 790.436 258.785 790.549 258.897 790.549C259.348 790.775 259.911 791.001 260.473 791.227C260.586 791.34 260.811 791.34 260.924 791.453C261.261 791.566 261.486 791.679 261.824 791.792C261.937 791.792 261.937 791.792 262.049 791.792C262.837 792.018 263.513 792.244 264.301 792.47H264.413C264.638 792.47 264.863 792.583 265.089 792.583C265.539 792.696 265.989 792.809 266.439 792.922C266.552 792.922 266.552 792.922 266.664 792.922C267.002 792.922 267.227 793.035 267.565 793.035C267.903 793.035 268.24 793.148 268.578 793.148C268.691 793.148 268.691 793.148 268.803 793.148C269.141 793.148 269.479 793.261 269.929 793.261C270.154 793.261 270.379 793.261 270.717 793.374H270.829C271.505 793.374 272.068 793.487 272.743 793.487C272.743 793.487 272.743 793.487 272.856 793.487C273.531 793.487 274.206 793.487 274.882 793.487H274.994C275.219 793.487 275.444 793.487 275.782 793.487C276.12 793.487 276.57 793.487 276.908 793.487C277.02 793.487 277.02 793.487 277.133 793.487C277.471 793.487 277.808 793.374 278.146 793.374C278.484 793.374 278.821 793.374 279.047 793.261C279.159 793.261 279.159 793.261 279.272 793.261C279.835 793.148 280.285 793.148 280.848 793.035C281.073 793.035 281.298 792.922 281.523 792.922C281.636 792.922 281.748 792.922 281.748 792.922L871.361 677.904C871.924 677.791 872.487 677.678 873.05 677.565C873.275 677.565 873.388 677.452 873.613 677.452C873.838 677.339 874.175 677.339 874.401 677.226C874.513 677.226 874.513 677.226 874.626 677.113C875.301 676.887 875.977 676.662 876.652 676.436C876.764 676.436 876.765 676.435 876.877 676.323C877.44 676.097 878.003 675.871 878.566 675.645C878.791 675.532 878.903 675.532 879.128 675.419C879.579 675.193 880.029 674.967 880.479 674.741C880.592 674.628 880.704 674.628 880.817 674.515C881.38 674.176 881.83 673.95 882.28 673.611C882.28 673.611 882.393 673.611 882.393 673.498C882.618 673.385 882.73 673.272 882.843 673.159C882.956 673.046 883.181 672.933 883.293 672.82C883.518 672.707 883.631 672.481 883.856 672.368C883.969 672.255 884.194 672.142 884.306 672.029C884.306 672.029 884.306 672.029 884.419 671.916C884.644 671.69 884.869 671.464 885.094 671.238C885.094 671.238 885.207 671.125 885.207 671.012C885.319 670.899 885.432 670.786 885.545 670.56L885.657 670.447C885.882 670.221 885.995 669.995 886.22 669.656C886.22 669.544 886.333 669.543 886.445 669.431C886.445 669.431 886.445 669.431 886.445 669.318C886.558 669.092 886.67 668.753 886.783 668.527C886.783 668.414 886.895 668.414 886.895 668.301C887.008 667.962 887.12 667.623 887.233 667.284V667.171C887.12 666.945 887.233 666.606 887.233 666.267Z" fill="#282626"/>
<path opacity="0.18" d="M697.226 698.129C696.325 698.354 695.312 698.58 694.187 698.693C692.723 698.919 691.147 699.145 689.459 699.258C689.459 699.258 571.491 673.95 545.151 678.469C518.924 683.102 469.17 704.569 420.767 696.773C387.223 691.349 327.789 657.68 294.245 623.22C293.457 622.429 292.669 621.525 291.881 620.734L608.638 558.932C611.001 559.497 613.253 559.949 615.504 560.514C651.862 569.44 674.938 581.529 671.899 597.008C660.53 655.421 709.608 668.075 709.608 668.075C710.396 668.866 725.817 691.801 697.226 698.129Z" fill="black"/>
<path d="M443.73 316.92L433.824 334.998L492.245 338.839L501.588 317.937L443.73 316.92Z" fill="#C68E10" stroke="#4C4A4A" stroke-miterlimit="10"/>
<path d="M402.644 276.359L389.023 297.487L421.555 327.202L436.188 314.209L402.644 276.359Z" fill="#C68E10" stroke="#4C4A4A" stroke-miterlimit="10"/>
<path d="M430.109 336.015C435.207 336.015 439.34 333.081 439.34 329.462C439.34 325.842 435.207 322.908 430.109 322.908C425.011 322.908 420.879 325.842 420.879 329.462C420.879 333.081 425.011 336.015 430.109 336.015Z" fill="#C68E10" stroke="#4C4A4A" stroke-miterlimit="10"/>
<path d="M408.272 260.428C408.272 260.428 441.591 276.924 443.167 299.295C443.167 299.295 519.036 280.087 528.829 307.543C528.829 307.543 508.117 321.779 506.991 338.161C476.711 330.478 446.319 322.795 427.296 329.349C427.296 329.349 393.976 280.2 380.469 283.025C380.469 283.251 408.948 263.479 408.272 260.428Z" fill="white" stroke="#4C4A4A" stroke-miterlimit="10"/>
<path opacity="0.39" d="M385.985 279.974L397.466 271.727C397.466 271.727 431.798 322.908 431.123 326.411C430.448 329.8 427.071 328.106 427.071 328.106C427.071 328.106 407.935 302.006 404.558 299.408C404.558 299.408 394.877 289.013 393.526 288.561C393.526 288.561 387.786 282.46 384.184 281.33L385.985 279.974Z" fill="black"/>
<path d="M386.209 266.529C386.209 266.529 433.486 320.197 427.295 329.575C427.295 329.575 493.933 312.627 497.535 325.733C497.535 325.733 512.056 281.217 520.048 290.708C520.048 290.708 441.816 277.602 443.054 299.521C443.054 299.521 439.902 241.108 415.926 244.723L386.209 266.529Z" fill="white" stroke="#4C4A4A" stroke-miterlimit="10"/>
<path opacity="0.28" d="M405.459 262.462C405.459 262.462 399.605 266.077 397.129 266.642L427.296 321.101L437.99 287.544L415.027 260.767L405.459 262.462Z" fill="black"/>
<path d="M401.855 259.185C401.855 259.185 432.023 319.858 427.295 329.462C427.295 329.462 490.219 302.571 494.946 313.531C494.946 313.531 507.328 282.46 515.321 278.054C515.321 278.054 445.418 283.929 443.955 296.357C443.955 296.357 444.292 248.904 431.235 238.961C431.347 239.074 409.848 263.592 401.855 259.185Z" fill="white" stroke="#4C4A4A" stroke-miterlimit="10"/>
<path opacity="0.28" d="M468.719 285.285C468.719 285.285 508.454 295.227 469.281 313.531C469.281 313.531 430.672 326.863 428.195 328.671L433.711 317.259L434.949 317.485C434.949 317.485 438.326 306.978 445.53 293.985C445.53 293.985 454.423 287.883 468.493 285.511L468.719 285.285Z" fill="black"/>
<path d="M434.275 317.485C436.527 310.706 444.294 295.679 444.294 295.679Z" fill="white"/>
<path d="M434.275 317.485C436.527 310.706 444.294 295.679 444.294 295.679" stroke="#4C4A4A" stroke-miterlimit="10"/>
<path opacity="0.28" d="M495.06 313.644C495.06 313.644 489.657 329.8 486.505 332.399C486.505 332.399 446.207 323.812 435.176 327.089C435.063 327.089 490.22 304.605 495.06 313.644Z" fill="black"/>
<path d="M237.955 599.641C238.557 598.068 236.835 595.94 234.108 594.887C231.381 593.834 228.682 594.255 228.079 595.828C227.477 597.4 229.199 599.529 231.926 600.581C234.653 601.634 237.352 601.213 237.955 599.641Z" fill="#2E56AF" stroke="#4C4A4A" stroke-miterlimit="10"/>
<path d="M238.074 600.736L278.147 620.395L283.55 609.549L240.438 591.584L238.074 600.736Z" fill="#2E56AF" stroke="#4C4A4A" stroke-miterlimit="10"/>
<path d="M188.659 577.688L188.547 584.354L229.858 597.686L234.248 586.274C216.013 581.303 196.764 575.767 188.659 577.688Z" fill="#2E56AF" stroke="#4C4A4A" stroke-miterlimit="10"/>
<path d="M188.321 565.937C188.321 565.937 230.42 551.136 243.928 579.834C249.668 565.485 294.132 587.291 292.33 605.03C292.33 605.03 293.231 613.165 286.139 620.734C286.139 620.734 262.613 594.07 233.572 597.912C233.572 597.912 198.564 571.473 185.394 581.077C185.169 580.964 185.844 565.824 188.321 565.937Z" fill="white" stroke="#4C4A4A" stroke-miterlimit="10"/>
<path d="M190.121 574.863C190.121 574.863 233.684 585.031 234.021 591.246C234.021 591.246 280.736 596.217 284 607.402C284.113 607.854 284.225 608.193 284.225 608.645C284.225 620.734 297.395 583.789 291.092 576.784C283.662 568.649 240.212 575.315 244.152 576.671C247.867 577.913 208.131 542.323 198.676 551.814C198.563 551.927 194.173 565.937 190.121 574.863Z" fill="white" stroke="#4C4A4A" stroke-miterlimit="10"/>
<path opacity="0.28" d="M190.122 574.863C190.122 574.863 209.934 579.495 222.879 584.354L221.64 589.099C211.172 583.111 198.79 577.123 187.871 577.349C188.209 572.829 188.997 569.214 190.798 565.711L194.287 564.807C192.937 568.197 191.473 571.925 190.122 574.863Z" fill="black"/>
<path opacity="0.28" d="M284.339 611.357C284.339 611.357 280.062 614.859 280.399 612.374C274.208 601.866 250.57 595.652 235.148 596.895C233.572 596.556 236.274 594.635 240.439 592.149C253.384 593.957 281.412 598.815 284.001 607.402C284.114 607.854 284.226 608.193 284.226 608.645C284.226 609.888 284.339 610.679 284.677 610.905L284.339 611.357Z" fill="black"/>
<path opacity="0.28" d="M193.049 574.976C193.049 574.976 206.782 554.526 204.418 550.91C204.418 550.91 207.119 551.475 209.596 552.266C203.405 562.322 194.287 574.072 194.287 574.072C195.75 573.168 199.803 574.863 204.643 577.574C204.53 577.913 204.418 578.026 204.418 578.026L193.049 574.976Z" fill="black"/>
<path d="M214.661 538.369C214.661 538.369 246.517 568.988 244.153 575.654C244.153 575.654 287.153 554.526 289.629 560.853L279.724 596.556C279.724 596.556 237.174 592.149 233.91 597.121C233.91 597.121 199.465 571.134 194.287 574.072C194.287 574.072 219.276 541.985 214.661 538.369Z" fill="white" stroke="#4C4A4A" stroke-miterlimit="10"/>
<path d="M244.152 575.654L235.484 592.488" stroke="#4C4A4A" stroke-miterlimit="10"/>
<path opacity="0.28" d="M239.988 567.18C238.975 566.163 226.03 553.622 220.402 585.709C220.289 586.274 220.514 586.726 220.965 587.065L233.122 595.878C233.572 596.217 234.022 596.217 234.472 595.991C235.373 595.539 236.836 594.861 236.949 595.087C237.174 595.313 247.755 581.981 247.53 576.671C247.53 575.654 246.404 575.202 245.616 575.654C245.053 575.993 244.378 575.88 244.04 575.428L243.703 575.089C243.703 575.089 244.378 573.168 240.213 567.406C239.988 567.293 239.988 567.293 239.988 567.18Z" fill="black"/>
<path d="M575.656 428.887L567.326 442.671L612.577 479.617L625.635 458.15L575.656 428.887Z" fill="#DD0B34" stroke="#4C4A4A" stroke-miterlimit="10"/>
<path d="M622.258 463.461L622.708 479.617L696.888 465.946L699.365 442.22L622.258 463.461Z" fill="#DD0B34" stroke="#4C4A4A" stroke-miterlimit="10"/>
<path d="M617.305 480.521C622.341 480.521 626.423 478.194 626.423 475.324C626.423 472.453 622.341 470.127 617.305 470.127C612.27 470.127 608.188 472.453 608.188 475.324C608.188 478.194 612.27 480.521 617.305 480.521Z" fill="#DD0B34" stroke="#4C4A4A" stroke-miterlimit="10"/>
<path d="M567.889 438.604C567.889 438.604 607.737 471.369 616.854 477.358C616.854 477.358 667.396 459.845 696.888 464.477C696.888 464.477 694.411 439.056 703.079 433.633C703.079 433.633 642.069 437.022 629.236 450.241C627.773 451.032 599.97 428.774 585.336 424.029C585.336 424.029 571.266 428.21 567.889 438.604Z" fill="white" stroke="#4C4A4A" stroke-miterlimit="10"/>
<path d="M572.504 434.424C572.504 434.424 607.737 463.574 617.305 475.211C617.305 475.211 669.535 453.179 692.385 458.602C692.385 458.602 692.385 426.967 701.053 424.029C701.053 424.029 645.446 427.306 628.899 448.208C628.899 448.208 606.048 424.029 589.501 415.781C589.501 415.668 577.457 422.786 572.504 434.424Z" fill="white" stroke="#4C4A4A" stroke-miterlimit="10"/>
<path d="M576.67 433.181C576.67 433.181 599.521 446.513 617.306 475.211C617.306 475.211 665.033 448.547 689.46 452.275C689.46 452.275 687.771 429.339 696.101 417.702C696.101 417.702 634.303 426.854 628.9 448.095C628.9 448.095 610.214 414.764 596.932 409.341C596.932 409.454 586.125 431.147 576.67 433.181Z" fill="white" stroke="#4C4A4A" stroke-miterlimit="10"/>
<path d="M629.011 448.434C629.011 448.434 627.548 460.184 620.906 469.223Z" fill="white"/>
<path d="M629.011 448.434C629.011 448.434 627.548 460.184 620.906 469.223" stroke="#4C4A4A" stroke-miterlimit="10"/>
<path opacity="0.28" d="M687.545 452.501C687.545 452.501 688.108 459.054 690.022 460.297C690.022 460.297 662.781 459.393 617.08 475.889C617.08 475.889 663.569 450.241 687.545 452.501Z" fill="black"/>
<path opacity="0.28" d="M577.682 434.424C577.682 434.424 574.08 438.265 572.279 438.265L617.08 475.776C617.418 475.55 599.07 446.852 577.682 434.424Z" fill="black"/>
<path opacity="0.28" d="M644.095 433.859C644.095 433.859 623.496 470.127 621.357 469.336C621.357 469.336 628.674 452.727 629.462 447.304C630.025 443.123 633.852 438.604 644.208 433.52L644.095 433.859Z" fill="black"/>
<path d="M808.551 469.449C813.401 469.449 817.331 467.527 817.331 465.155C817.331 462.784 813.401 460.862 808.551 460.862C803.702 460.862 799.771 462.784 799.771 465.155C799.771 467.527 803.702 469.449 808.551 469.449Z" fill="#0526A0" stroke="#4C4A4A" stroke-miterlimit="10"/>
<path d="M812.154 455.665L813.055 467.189L868.437 455.665V447.191L812.154 455.665Z" fill="#0526A0" stroke="#4C4A4A" stroke-miterlimit="10"/>
<path d="M747.43 440.751L742.814 447.191L801.123 464.703L807.539 456.569L747.43 440.751Z" fill="#0526A0" stroke="#4C4A4A" stroke-miterlimit="10"/>
<path d="M741.914 440.751C741.914 440.751 798.534 448.434 806.188 468.545C806.188 468.545 846.712 445.496 873.952 454.422C873.952 454.422 869.225 431.712 884.984 425.385C884.984 425.385 818.12 416.798 814.743 437.361C814.743 437.361 785.364 401.884 759.812 410.81C759.812 410.81 751.257 427.871 741.914 440.751Z" fill="white" stroke="#4C4A4A" stroke-miterlimit="10"/>
<path d="M748.893 420.188C748.893 420.188 806.638 450.806 806.188 468.545C806.188 468.545 846.036 436.909 870.35 444.592C870.35 444.592 871.025 420.188 886.334 414.425C886.334 414.425 820.484 406.743 813.505 433.633C813.505 433.633 794.369 390.699 774.557 392.62C774.557 392.62 763.639 415.668 748.893 420.188Z" fill="white" stroke="#4C4A4A" stroke-miterlimit="10"/>
<path opacity="0.28" d="M755.083 424.255C755.083 424.255 751.931 433.52 749.455 434.763C749.455 434.763 799.884 453.066 803.261 463.009C803.261 463.009 803.036 457.246 787.727 445.609C772.418 433.972 755.534 424.142 755.083 424.255Z" fill="#4C4A4A"/>
<path opacity="0.28" d="M756.097 417.137L750.469 420.188C750.469 420.188 789.754 444.592 794.594 450.128C799.434 455.665 761.725 408.776 756.097 417.137Z" fill="#4C4A4A"/>
<path opacity="0.28" d="M866.298 439.395C866.298 439.395 865.397 445.496 866.861 447.643C866.861 447.643 831.29 452.614 813.055 464.251C813.055 464.251 839.732 437.587 866.298 439.395Z" fill="#4C4A4A"/>
<path d="M751.145 413.183C751.145 413.183 798.309 442.107 806.189 468.545C806.189 468.545 844.123 433.407 870.013 439.734C870.013 439.734 861.008 417.024 885.997 406.065C885.997 406.065 819.471 400.528 813.505 428.549C813.505 428.549 800.11 391.716 782.775 383.92C782.775 383.92 771.969 386.518 751.145 413.183Z" fill="white" stroke="#4C4A4A" stroke-miterlimit="10"/>
<path d="M813.505 428.548C813.505 428.548 806.864 446.174 808.665 457.246Z" fill="white"/>
<path d="M813.505 428.548C813.505 428.548 806.864 446.174 808.665 457.246" stroke="#4C4A4A" stroke-miterlimit="10"/>
<path opacity="0.28" d="M823.749 415.329C823.749 415.329 823.749 415.329 823.862 415.329C825.888 415.668 849.526 420.414 834.218 437.022C818.233 454.309 806.639 467.528 806.639 467.528C806.639 467.528 804.163 417.815 812.605 428.097L813.281 429.339C813.281 429.452 816.095 419.962 823.749 415.329Z" fill="#4C4A4A"/>
<path d="M655.24 856.871C661.394 856.871 666.383 854.443 666.383 851.448C666.383 848.453 661.394 846.025 655.24 846.025C649.085 846.025 644.096 848.453 644.096 851.448C644.096 854.443 649.085 856.871 655.24 856.871Z" fill="#0526A0" stroke="#4C4A4A" stroke-miterlimit="10"/>
<path d="M659.854 839.359L660.867 854.159L731.67 839.359V828.512L659.854 839.359Z" fill="#0526A0" stroke="#4C4A4A" stroke-miterlimit="10"/>
<path d="M577.118 820.264L571.152 828.512L645.67 850.883L653.775 840.488L577.118 820.264Z" fill="#0526A0" stroke="#4C4A4A" stroke-miterlimit="10"/>
<path d="M570.027 820.264C570.027 820.264 642.406 830.094 652.2 855.741C652.2 855.741 703.867 826.252 738.649 837.777C738.649 837.777 732.683 808.853 752.832 800.605C752.832 800.605 667.396 789.646 663.118 815.858C663.118 815.858 625.634 770.551 592.991 781.963C592.878 782.076 582.072 803.882 570.027 820.264Z" fill="white" stroke="#4C4A4A" stroke-miterlimit="10"/>
<path d="M579.033 794.052C579.033 794.052 652.763 833.144 652.2 855.741C652.2 855.741 703.079 815.293 734.035 825.123C734.035 825.123 734.823 794.052 754.409 786.595C754.409 786.595 670.436 776.765 661.43 811.113C661.43 811.113 637.004 756.202 611.677 758.688C611.677 758.914 597.831 788.403 579.033 794.052Z" fill="white" stroke="#4C4A4A" stroke-miterlimit="10"/>
<path opacity="0.28" d="M586.8 799.249C586.8 799.249 582.748 811.113 579.596 812.581C579.596 812.581 643.87 835.969 648.26 848.623C648.26 848.623 648.035 841.166 628.449 826.365C609.088 811.678 587.475 799.136 586.8 799.249Z" fill="#4C4A4A"/>
<path opacity="0.28" d="M588.149 790.097L580.945 793.939C580.945 793.939 631.149 825.123 637.34 832.241C643.531 839.359 595.354 779.477 588.149 790.097Z" fill="#4C4A4A"/>
<path opacity="0.28" d="M728.969 818.682C728.969 818.682 727.731 826.478 729.757 829.19C729.757 829.19 684.281 835.517 660.98 850.431C660.98 850.318 694.975 816.197 728.969 818.682Z" fill="#4C4A4A"/>
<path d="M581.959 785.126C581.959 785.126 642.181 822.072 652.312 855.854C652.312 855.854 700.715 811 733.809 819.134C733.809 819.134 722.327 790.098 754.183 776.087C754.183 776.087 669.197 768.969 661.542 804.785C661.542 804.785 644.432 757.671 622.37 747.841C622.257 747.841 608.412 751.118 581.959 785.126Z" fill="white" stroke="#4C4A4A" stroke-miterlimit="10"/>
<path d="M661.431 804.673C661.431 804.673 652.876 827.156 655.352 841.279Z" fill="white"/>
<path d="M661.431 804.673C661.431 804.673 652.876 827.156 655.352 841.279" stroke="#4C4A4A" stroke-miterlimit="10"/>
<path opacity="0.28" d="M674.488 787.951C674.488 787.951 674.601 787.951 674.713 787.951C677.302 788.403 707.47 794.504 687.996 815.632C667.622 837.777 652.876 854.611 652.876 854.611C652.876 854.611 649.836 791.114 660.53 804.333L661.318 805.915C661.206 805.915 664.808 793.826 674.488 787.951Z" fill="#4C4A4A"/>
<path d="M924.136 536.502C925.084 534.33 922.62 531.148 918.634 529.396C914.648 527.644 910.648 527.984 909.7 530.156C908.753 532.328 911.216 535.509 915.202 537.262C919.188 539.014 923.188 538.674 924.136 536.502Z" fill="#4C4A4A" stroke="#4C4A4A" stroke-miterlimit="10"/>
<path d="M923.255 525.828L921.229 537.352L980.775 554.074L986.178 543.679L923.255 525.828Z" fill="#4C4A4A" stroke="#4C4A4A" stroke-miterlimit="10"/>
<path d="M862.808 511.931L859.656 519.162L910.535 534.415L916.051 525.263L862.808 511.931Z" fill="#4C4A4A" stroke="#4C4A4A" stroke-miterlimit="10"/>
<path d="M860.893 483.12C860.893 483.12 909.972 475.663 946.217 503.57C946.217 503.57 995.746 504.361 1014.09 520.405C1014.09 520.405 1008.35 531.364 997.434 539.047C986.515 546.73 986.065 555.995 986.065 555.995C986.065 555.995 944.416 521.195 918.977 534.98C918.977 534.98 877.891 506.847 854.59 519.162C857.967 520.292 868.773 486.396 860.893 483.12Z" fill="white" stroke="#4C4A4A" stroke-miterlimit="10"/>
<path d="M861.568 512.948C861.568 512.948 889.71 509.897 918.976 535.206C918.976 535.206 952.971 518.597 983.138 547.295C983.138 547.295 1001.37 514.077 1014.32 511.027C1014.32 511.027 965.465 493.288 946.217 503.683C946.217 503.683 905.243 473.968 873.05 475.663C873.05 475.55 872.149 488.769 861.568 512.948Z" fill="white" stroke="#4C4A4A" stroke-miterlimit="10"/>
<path opacity="0.28" d="M879.579 476.002C879.579 476.002 870.349 504.135 864.721 507.072C864.721 507.072 911.773 526.167 916.163 532.268C920.553 538.369 905.469 479.73 905.469 479.73C905.469 479.73 881.493 476.228 879.579 476.002Z" fill="#4C4A4A"/>
<path opacity="0.28" d="M1006.66 509.219C1006.66 509.219 981.225 541.307 981 548.312C981 548.312 952.521 530.912 930.459 531.364C908.396 531.816 995.859 506.395 995.859 506.395L1006.89 508.88L1006.66 509.219Z" fill="#4C4A4A" stroke="#4C4A4A" stroke-miterlimit="10"/>
<path d="M870.123 505.943C870.123 505.943 906.932 515.32 918.976 535.205C918.976 535.205 952.408 515.659 980.774 540.403C980.774 540.403 999.235 505.491 1011.84 503.005C1011.84 503.005 964.002 487.526 946.217 503.683C944.416 497.582 907.044 468.093 887.908 467.754C887.796 467.754 883.293 487.187 870.123 505.943Z" fill="white" stroke="#4C4A4A" stroke-miterlimit="10"/>
<path d="M946.217 503.57C946.217 503.57 937.775 507.072 923.93 528.539Z" fill="white"/>
<path d="M946.217 503.57C946.217 503.57 937.775 507.072 923.93 528.539" stroke="#4C4A4A" stroke-miterlimit="10"/>
<path opacity="0.28" d="M943.965 504.474C943.965 504.474 909.858 523.116 905.355 520.97C905.355 520.97 918.075 531.816 919.651 534.528L943.965 504.474Z" fill="#4C4A4A" stroke="#4C4A4A" stroke-miterlimit="10"/>
<path d="M895.712 644.309C896.347 642.417 893.423 639.721 889.181 638.287C884.939 636.853 880.985 637.225 880.351 639.118C879.716 641.01 882.64 643.706 886.882 645.14C891.124 646.573 895.077 646.202 895.712 644.309Z" fill="#F6CF57" stroke="#4C4A4A" stroke-miterlimit="10"/>
<path d="M826.563 615.198L823.861 621.977L882.845 640.846L888.924 634.744L826.563 615.198Z" fill="#F6CF57" stroke="#4C4A4A" stroke-miterlimit="10"/>
<path d="M896.24 635.196L891.85 644.574L943.066 657.454L947.231 648.19L896.24 635.196Z" fill="#F6CF57" stroke="#4C4A4A" stroke-miterlimit="10"/>
<path d="M819.246 615.085C819.246 615.085 866.073 621.638 887.235 642.201C887.235 642.201 919.203 638.134 947.119 658.358C947.119 658.358 947.682 640.055 960.965 630.79C960.965 630.79 918.641 603.222 899.392 612.035C899.392 612.035 862.133 576.897 840.859 584.015C840.859 584.015 828.251 615.65 819.246 615.085Z" fill="white" stroke="#4C4A4A" stroke-miterlimit="10"/>
<path opacity="0.28" d="M944.755 652.822C944.755 652.822 909.41 637.908 888.248 641.185L888.698 640.62C894.214 640.055 923.819 637.569 944.08 649.545C944.08 649.545 947.457 635.535 953.536 626.949C955.224 627.626 956.237 628.191 956.125 628.417C956.125 628.191 949.371 635.309 944.755 652.822Z" fill="#4C4A4A"/>
<path d="M830.164 609.888C830.164 609.888 878.004 624.802 887.797 640.62C887.797 640.62 921.679 636.213 944.079 649.432C944.079 649.432 951.058 620.282 963.103 620.282C963.103 620.282 912.449 594.974 899.504 612.148C899.504 612.148 871.475 574.75 851.551 574.863C851.439 574.75 839.732 603.561 830.164 609.888Z" fill="white" stroke="#4C4A4A" stroke-miterlimit="10"/>
<path opacity="0.28" d="M838.833 607.515C838.833 607.515 834.668 611.809 829.715 613.164C829.715 613.164 884.421 635.535 887.348 641.862L890.725 633.841L842.322 604.352L838.833 607.515Z" fill="#4C4A4A" stroke="#4C4A4A" stroke-miterlimit="10"/>
<path opacity="0.28" d="M956.912 617.91C956.912 617.91 948.47 623.333 942.166 642.088L940.703 641.636C941.941 637.569 946.669 623.22 954.211 616.667C955.337 617.119 956.237 617.571 956.912 617.91Z" fill="#4C4A4A"/>
<path d="M837.256 606.385C837.256 606.385 885.096 625.932 887.46 639.49C887.46 639.49 921.792 633.954 940.478 642.766C940.478 642.766 947.569 616.441 959.951 613.729C959.951 613.729 917.177 591.359 899.842 610.34C899.842 610.34 875.528 568.536 858.08 569.553C857.968 569.553 851.101 591.585 837.256 606.385Z" fill="white" stroke="#4C4A4A" stroke-miterlimit="10"/>
<path d="M899.729 610.34C899.729 610.34 896.24 626.723 891.85 632.485Z" fill="white"/>
<path d="M899.729 610.34C899.729 610.34 896.24 626.723 891.85 632.485" stroke="#4C4A4A" stroke-miterlimit="10"/>
<path opacity="0.28" d="M887.91 594.07C887.91 594.07 892.637 632.598 887.797 638.699C882.957 644.8 887.459 639.377 887.459 639.377C887.459 639.377 915.826 605.595 911.661 604.239C911.323 604.013 903.218 605.934 900.404 610.566L899.279 610.34C899.166 610.34 888.585 593.731 887.91 594.07Z" fill="#4C4A4A"/>
<path d="M391.27 845.748C392.418 843.119 389.146 839.141 383.964 836.863C378.782 834.586 373.652 834.871 372.505 837.5C371.358 840.129 374.629 844.107 379.811 846.385C384.993 848.662 390.123 848.377 391.27 845.748Z" fill="#F6CF57" stroke="#4C4A4A" stroke-miterlimit="10"/>
<path d="M306.062 802.865L302.572 812.694L375.627 840.263L383.169 831.337L306.062 802.865Z" fill="#F6CF57" stroke="#4C4A4A" stroke-miterlimit="10"/>
<path d="M392.174 832.128L386.658 845.686L450.145 864.667L455.323 850.996L392.174 832.128Z" fill="#F6CF57" stroke="#4C4A4A" stroke-miterlimit="10"/>
<path d="M296.832 802.752C296.832 802.752 354.69 812.355 381.03 842.296C381.03 842.296 420.653 836.421 455.21 865.91C455.21 865.91 455.886 839.246 472.32 825.575C472.32 825.575 419.978 785.239 396.114 798.232C396.114 798.232 350.075 746.938 323.735 757.445C323.735 757.332 308.088 803.43 296.832 802.752Z" fill="white" stroke="#4C4A4A" stroke-miterlimit="10"/>
<path opacity="0.28" d="M452.172 857.662C452.172 857.662 408.385 835.856 382.27 840.601L382.832 839.698C389.586 838.907 426.282 835.178 451.384 852.691C451.384 852.691 455.549 832.241 463.091 819.699C465.23 820.716 466.355 821.507 466.355 821.846C466.243 821.846 457.913 832.241 452.172 857.662Z" fill="#4C4A4A"/>
<path d="M310.453 795.069C310.453 795.069 369.662 816.762 381.707 839.923C381.707 839.923 423.693 833.483 451.384 852.691C451.384 852.691 460.051 810.096 474.91 810.096C474.91 810.096 412.212 773.15 396.227 798.119C396.227 798.119 361.557 743.548 336.793 743.774C336.681 743.887 322.16 785.917 310.453 795.069Z" fill="white" stroke="#4C4A4A" stroke-miterlimit="10"/>
<path opacity="0.28" d="M321.145 791.566C321.145 791.566 315.967 797.893 309.889 799.814C309.889 799.814 377.54 832.467 381.142 841.618L385.307 829.868L325.423 786.821L321.145 791.566Z" fill="#4C4A4A" stroke="#4C4A4A" stroke-miterlimit="10"/>
<path opacity="0.28" d="M467.143 806.819C467.143 806.819 456.674 814.728 448.907 842.07L447.219 841.392C448.682 835.404 454.535 814.502 463.878 805.011C465.342 805.689 466.467 806.367 467.143 806.819Z" fill="#4C4A4A"/>
<path d="M319.119 789.984C319.119 789.984 378.328 818.456 381.142 838.342C381.142 838.342 423.579 830.207 446.767 843.2C446.767 843.2 455.435 804.785 470.856 800.831C470.856 800.831 417.951 768.179 396.451 795.86C396.451 795.86 366.396 734.848 344.784 736.43C344.896 736.204 336.342 768.405 319.119 789.984Z" fill="white" stroke="#4C4A4A" stroke-miterlimit="10"/>
<path d="M396.452 795.747C396.452 795.747 392.175 819.699 386.771 828.06Z" fill="white"/>
<path d="M396.452 795.747C396.452 795.747 392.175 819.699 386.771 828.06" stroke="#4C4A4A" stroke-miterlimit="10"/>
<path opacity="0.28" d="M381.93 772.02C381.93 772.02 387.784 828.173 381.818 837.212C375.739 846.251 381.367 838.229 381.367 838.229C381.367 838.229 416.487 788.968 411.309 786.934C410.859 786.708 400.841 789.42 397.351 796.199L396.001 795.747C395.888 795.747 382.718 771.568 381.93 772.02Z" fill="#4C4A4A"/>
<path d="M336.681 313.644C336.681 313.644 369.212 328.445 372.139 363.809C375.178 399.173 339.045 391.603 339.045 391.603L313.493 382.564L291.768 325.394L336.681 313.644Z" fill="#FDBBA7"/>
<path d="M364.822 364.261C364.822 364.261 370.563 366.294 371.689 362.792" stroke="#3A2B2B" stroke-miterlimit="10"/>
<path d="M346.368 367.105C351.726 365.284 355.214 361.269 354.158 358.136C353.101 355.004 347.901 353.94 342.542 355.761C337.184 357.581 333.696 361.596 334.753 364.729C335.809 367.861 341.009 368.925 346.368 367.105Z" fill="#DE4456"/>
<path d="M341.971 338.161C341.971 338.161 350.188 343.358 355.478 337.596" stroke="#3A2B2B" stroke-miterlimit="10"/>
<path d="M365.723 342.794L373.264 348.217L369.775 354.205L370.45 356.465L365.723 342.794Z" fill="#FDBBA7"/>
<path d="M763.976 661.861C763.863 663.216 762.85 665.363 760.486 668.301C749.905 681.633 715.348 708.41 715.348 708.41C715.348 708.41 713.659 709.201 711.07 709.201C708.706 709.201 705.667 708.636 702.403 706.376C698.575 703.665 689.233 693.722 681.691 685.361C675.5 678.582 670.547 672.82 670.547 672.82L694.636 665.25L709.044 678.808C709.044 678.808 713.547 682.989 717.824 679.712C721.989 676.436 754.858 660.053 754.858 660.053C754.858 660.053 757.897 659.036 760.599 659.036C762.4 659.262 764.201 659.827 763.976 661.861Z" fill="#FDBBA7"/>
<path d="M763.976 661.861C763.864 663.216 762.85 665.363 760.487 668.301C749.906 681.633 715.348 708.41 715.348 708.41C715.348 708.41 713.66 709.201 711.071 709.201C708.707 709.201 705.668 708.636 702.403 706.376C698.576 703.665 689.233 693.722 681.691 685.361C689.571 686.491 703.191 689.994 720.526 687.395C744.84 683.893 759.586 663.894 763.976 661.861Z" fill="#FB8F6D"/>
<path d="M559.221 330.139C558.545 332.286 550.328 336.128 550.328 336.128L541.998 345.166C542.674 344.714 554.605 336.128 554.155 338.839C553.592 341.551 542.449 352.849 542.449 352.849C540.085 357.933 537.833 362.905 535.695 367.537C499.224 445.157 478.174 467.076 460.727 484.476C460.727 484.476 437.201 497.808 427.52 490.577C425.269 488.882 420.203 484.589 413.675 479.165C392.625 461.427 357.055 430.469 357.055 430.469C357.055 430.469 422.23 441.429 432.023 442.898C441.816 444.366 456.899 422.221 460.952 418.041C464.441 414.313 513.97 357.369 525.564 343.698C527.14 341.89 528.603 338.726 528.603 338.726C528.603 338.726 537.946 324.151 538.734 326.524C539.409 328.671 534.907 335.789 534.119 337.031L539.86 329.01C540.31 328.445 548.977 322.005 549.315 323.36C549.653 324.603 542.561 331.382 542.336 331.382L537.045 338.613L545.375 329.687C545.375 329.687 558.095 323.134 558.095 324.942C558.095 326.75 548.414 331.382 547.514 332.512C546.726 333.529 540.535 340.647 539.747 341.438L549.09 332.399C548.977 332.286 559.896 327.88 559.221 330.139Z" fill="#FDBBA7"/>
<path d="M535.582 367.424C499.111 445.044 478.061 466.963 460.614 484.363C460.614 484.363 437.088 497.695 427.407 490.464C425.156 488.769 420.091 484.476 413.562 479.052C412.324 475.55 414.012 474.194 421.329 477.358C444.63 487.413 535.244 367.424 535.244 367.424H535.582Z" fill="#FB8F6D"/>
<path d="M761.951 537.239C761.163 551.588 760.037 589.325 760.037 589.325C760.037 589.325 759.925 596.669 755.647 596.669C754.296 596.669 749.118 597.573 742.702 598.928C729.195 601.64 710.171 605.933 710.171 605.933L706.682 581.981C706.682 581.981 734.373 579.269 738.763 569.779C743.153 560.288 753.058 535.996 753.058 535.996C754.409 532.155 759.7 526.167 761.388 530.912C761.951 532.042 762.063 534.076 761.951 537.239Z" fill="#FDBBA7"/>
<path d="M761.952 537.239C761.164 551.588 760.038 589.325 760.038 589.325C760.038 589.325 759.926 596.669 755.648 596.669C754.297 596.669 749.119 597.573 742.703 598.928C752.271 583.789 759.813 540.629 761.389 530.799C761.952 532.042 762.064 534.076 761.952 537.239Z" fill="#FB8F6D"/>
<path d="M432.023 543.114C432.136 543.114 694.862 557.011 714.11 571.473L719.513 610.679C719.513 610.679 699.027 610.679 683.38 613.729C667.734 616.78 504.74 635.422 488.531 620.96C472.322 606.498 432.023 543.114 432.023 543.114Z" fill="#3E66F4"/>
<path d="M361.221 418.832C361.221 418.832 386.21 433.068 393.414 453.292" stroke="#4C4A4A" stroke-width="2" stroke-miterlimit="10"/>
<path d="M363.923 471.482C352.779 473.064 340.847 474.307 331.279 475.098C328.577 475.324 326.101 475.55 323.85 475.663C316.646 476.228 311.918 476.454 311.918 476.454V475.437L312.931 454.874L314.169 428.436L315.52 401.319L298.41 384.598L328.69 384.146L351.428 383.581L353.792 391.942L360.884 416.572L360.996 416.911C360.996 416.911 368.313 424.142 376.755 432.955C380.695 437.135 384.972 441.768 388.687 446.061C392.739 450.806 396.341 455.213 398.367 458.602C401.857 464.364 384.184 468.658 363.923 471.482Z" fill="#FDBBA7"/>
<path d="M360.883 416.572C360.657 416.459 360.432 416.233 360.207 415.894C353.341 408.437 339.495 390.36 339.495 390.36L334.768 387.083C339.833 390.36 346.812 391.942 353.678 392.055L360.883 416.572Z" fill="#FB8F6D"/>
<path d="M332.742 484.928L325.2 487.187L310.567 491.594C310.229 482.216 310.567 476.228 312.143 475.55L313.156 454.987C305.501 466.737 295.821 480.634 285.352 492.836L278.711 421.205L314.394 428.661L318.671 429.565L320.81 430.017L324.975 430.921L325.313 433.52L325.538 434.876L330.491 468.771L331.391 475.324L332.742 484.928Z" fill="#FB8F6D"/>
<path d="M703.867 663.894L684.394 686.604L681.579 689.881C681.579 689.881 666.383 678.695 648.148 664.572C629.912 650.449 608.525 633.163 595.918 621.073C590.29 615.537 580.947 613.39 574.756 618.249C548.19 639.151 393.414 685.7 359.082 650.223C337.582 628.078 333.867 617.797 340.396 606.837L469.17 567.745L538.397 546.73C538.397 546.73 572.729 535.883 596.706 553.961C620.907 572.038 694.862 636.665 703.867 663.894Z" fill="#163CED"/>
<path opacity="0.16" d="M684.393 686.604L681.579 689.881C681.579 689.881 666.383 678.695 648.148 664.572C629.912 650.449 608.525 633.163 595.918 621.073C590.29 615.537 580.947 613.391 574.756 618.249C548.19 639.151 393.414 685.7 359.082 650.223C337.582 628.078 333.867 617.797 340.396 606.837L469.17 567.745C478.288 573.507 496.748 582.659 507.892 600.058C522.301 622.542 577.57 592.601 597.719 596.782C644.32 606.611 685.294 685.248 684.393 685.361V686.604Z" fill="black"/>
<path d="M324.861 422.673C324.861 422.673 361.557 455.552 368.536 470.918" stroke="#4C4A4A" stroke-width="2" stroke-miterlimit="10"/>
<path d="M473.446 527.748L458.925 513.287L454.873 509.219L423.692 478.036L419.527 473.968L405.682 460.184L401.517 456.004L390.823 445.27L388.572 446.174L367.185 454.422L357.617 458.15L330.376 468.771L323.397 471.482L312.591 475.663C312.366 475.55 312.253 475.55 312.028 475.663C310.565 476.341 310.114 482.329 310.452 491.707C310.79 500.18 311.69 511.479 313.154 523.794C313.154 524.133 313.266 524.359 313.266 524.698C313.379 524.698 313.604 524.698 313.829 524.698C315.518 524.698 316.756 526.054 316.756 527.635C316.756 529.217 315.518 530.46 313.942 530.573C314.617 536.335 315.405 542.323 316.193 548.312C316.193 548.651 316.305 548.877 316.305 549.215C316.418 549.215 316.418 549.215 316.531 549.215C318.219 549.215 319.457 550.571 319.457 552.153C319.457 553.622 318.444 554.752 317.093 555.091C317.881 560.627 318.782 566.163 319.682 571.586C319.682 571.812 319.795 572.151 319.795 572.377C320.245 571.925 320.921 571.699 321.596 571.699C323.285 571.699 324.523 573.055 324.523 574.637C324.523 576.219 323.172 577.574 321.596 577.574C321.258 577.574 320.921 577.574 320.696 577.461C325.198 604.013 330.263 624.915 333.528 623.898C339.269 622.09 377.203 613.277 379.904 612.6C380.017 612.6 380.017 612.6 380.017 612.6C380.017 612.6 405.006 607.967 423.129 603.9C429.433 602.544 434.836 601.188 438.1 600.171C448.119 597.008 446.43 585.822 453.184 573.62C455.098 570.118 457.687 566.615 461.401 563.112C472.095 553.17 474.121 541.533 474.121 534.415C474.121 530.347 473.446 527.748 473.446 527.748ZM315.63 496.339C313.942 496.339 312.703 494.983 312.703 493.401C312.703 491.82 314.054 490.464 315.63 490.464C317.319 490.464 318.557 491.82 318.557 493.401C318.557 494.983 317.206 496.339 315.63 496.339ZM320.583 516.111C318.894 516.111 317.656 514.755 317.656 513.174C317.656 511.479 319.007 510.236 320.583 510.236C322.159 510.236 323.51 511.592 323.51 513.174C323.51 514.755 322.271 516.111 320.583 516.111ZM325.986 559.158C324.298 559.158 323.059 557.802 323.059 556.22C323.059 554.526 324.41 553.283 325.986 553.283C327.675 553.283 328.913 554.639 328.913 556.22C329.025 557.802 327.675 559.158 325.986 559.158ZM339.044 563.225C340.732 563.225 341.97 564.581 341.97 566.163C341.97 567.858 340.619 569.101 339.044 569.101C337.355 569.101 336.117 567.745 336.117 566.163C336.117 564.581 337.355 563.225 339.044 563.225ZM336.567 600.058C335.892 601.527 334.203 602.205 332.627 601.527C331.164 600.849 330.489 599.041 331.164 597.573C331.839 596.104 333.528 595.426 335.104 596.104C336.567 596.782 337.243 598.589 336.567 600.058ZM338.481 585.596C337.017 584.918 336.342 583.224 337.017 581.642C337.693 580.173 339.381 579.495 340.957 580.173C342.42 580.851 343.096 582.659 342.42 584.128C341.633 585.596 339.944 586.274 338.481 585.596ZM344.447 606.611C342.758 606.611 341.52 605.256 341.52 603.674C341.52 601.979 342.871 600.736 344.447 600.736C346.023 600.736 347.373 602.092 347.373 603.674C347.373 605.256 346.135 606.611 344.447 606.611ZM444.517 531.025C446.205 531.025 447.443 532.381 447.443 533.963C447.443 535.657 446.092 536.9 444.517 536.9C442.828 536.9 441.59 535.544 441.59 533.963C441.59 532.381 442.828 531.025 444.517 531.025ZM438.326 501.875C440.014 501.875 441.252 503.231 441.252 504.813C441.252 506.394 439.901 507.75 438.326 507.75C436.637 507.75 435.399 506.394 435.399 504.813C435.399 503.231 436.637 501.875 438.326 501.875ZM436.75 516.337C438.438 516.337 439.676 517.693 439.676 519.275C439.676 520.969 438.326 522.212 436.75 522.212C435.061 522.212 433.823 520.856 433.823 519.275C433.823 517.693 435.174 516.337 436.75 516.337ZM426.056 527.184C426.056 528.878 424.705 530.121 423.129 530.121C421.441 530.121 420.203 528.765 420.203 527.184C420.203 525.489 421.553 524.246 423.129 524.246C424.705 524.246 426.056 525.489 426.056 527.184ZM419.64 474.759L423.805 478.826C423.242 479.617 422.341 480.182 421.328 480.182C419.64 480.182 418.402 478.826 418.402 477.245C418.289 476.228 418.852 475.324 419.64 474.759ZM415.925 490.803C417.614 490.803 418.852 492.159 418.852 493.74C418.852 495.435 417.501 496.678 415.925 496.678C414.349 496.678 412.998 495.322 412.998 493.74C412.886 492.159 414.237 490.803 415.925 490.803ZM401.629 456.794L405.794 460.975C405.232 461.427 404.556 461.653 403.881 461.653C402.192 461.653 400.954 460.297 400.954 458.715C400.842 458.037 401.179 457.359 401.629 456.794ZM403.205 470.014C404.894 470.014 406.132 471.369 406.132 472.951C406.132 474.646 404.781 475.889 403.205 475.889C401.517 475.889 400.279 474.533 400.279 472.951C400.279 471.369 401.517 470.014 403.205 470.014ZM388.347 455.1C390.035 455.1 391.274 456.456 391.274 458.037C391.274 459.619 389.923 460.975 388.347 460.975C386.658 460.975 385.42 459.619 385.42 458.037C385.42 456.456 386.771 455.1 388.347 455.1ZM370.562 464.59C368.873 464.59 367.635 463.235 367.635 461.653C367.635 459.958 368.986 458.715 370.562 458.715C372.138 458.715 373.488 460.071 373.488 461.653C373.601 463.348 372.25 464.59 370.562 464.59ZM380.242 488.543C380.242 486.848 381.593 485.605 383.169 485.605C384.745 485.605 386.096 486.961 386.096 488.543C386.096 490.238 384.745 491.481 383.169 491.481C381.593 491.481 380.242 490.125 380.242 488.543ZM385.308 520.743C383.619 520.743 382.381 519.388 382.381 517.806C382.381 516.111 383.732 514.868 385.308 514.868C386.883 514.868 388.234 516.224 388.234 517.806C388.234 519.388 386.996 520.743 385.308 520.743ZM394.65 541.081C392.962 541.081 391.724 539.725 391.724 538.143C391.724 536.561 393.075 535.205 394.65 535.205C396.339 535.205 397.577 536.561 397.577 538.143C397.577 539.725 396.339 541.081 394.65 541.081ZM403.205 522.325C403.205 520.63 404.556 519.388 406.132 519.388C407.82 519.388 409.059 520.743 409.059 522.325C409.059 524.02 407.708 525.263 406.132 525.263C404.556 525.263 403.205 524.02 403.205 522.325ZM409.509 559.384C407.82 559.384 406.582 558.028 406.582 556.446C406.582 554.752 407.933 553.509 409.509 553.509C411.085 553.509 412.436 554.865 412.436 556.446C412.436 558.028 411.085 559.384 409.509 559.384ZM429.32 586.387C427.632 586.387 426.394 585.031 426.394 583.45C426.394 581.755 427.744 580.512 429.32 580.512C430.896 580.512 432.247 581.868 432.247 583.45C432.247 585.031 430.896 586.387 429.32 586.387ZM430.446 560.74C428.758 560.74 427.519 559.384 427.519 557.802C427.519 556.22 428.87 554.865 430.446 554.865C432.022 554.865 433.373 556.22 433.373 557.802C433.373 559.384 432.134 560.74 430.446 560.74ZM443.729 572.829C442.04 572.829 440.802 571.473 440.802 569.892C440.802 568.197 442.153 566.954 443.729 566.954C445.305 566.954 446.655 568.31 446.655 569.892C446.655 571.473 445.305 572.829 443.729 572.829ZM399.153 503.231C397.465 503.231 396.226 501.875 396.226 500.293C396.226 498.599 397.577 497.356 399.153 497.356C399.941 497.356 400.616 497.695 401.179 498.147C401.742 498.712 402.08 499.502 402.08 500.293C402.08 500.519 402.08 500.745 401.967 500.858C401.855 502.214 400.616 503.231 399.153 503.231ZM454.197 551.927C452.509 551.927 451.27 550.571 451.27 548.989C451.27 547.295 452.621 546.052 454.197 546.052C455.886 546.052 457.124 547.408 457.124 548.989C457.124 550.571 455.773 551.927 454.197 551.927ZM458.925 514.077C458.362 514.981 457.461 515.659 456.336 515.659C454.647 515.659 453.409 514.303 453.409 512.722C453.409 511.592 453.972 510.575 454.985 510.123L458.925 514.077ZM467.592 531.251C465.904 531.251 464.666 529.895 464.666 528.313C464.666 526.732 466.016 525.376 467.592 525.376C469.281 525.376 470.519 526.732 470.519 528.313C470.519 529.895 469.281 531.251 467.592 531.251Z" fill="#DE4456"/>
<path d="M403.206 476.002C404.822 476.002 406.133 474.687 406.133 473.064C406.133 471.442 404.822 470.127 403.206 470.127C401.59 470.127 400.279 471.442 400.279 473.064C400.279 474.687 401.59 476.002 403.206 476.002Z" fill="white"/>
<path d="M388.349 460.975C389.965 460.975 391.275 459.66 391.275 458.037C391.275 456.415 389.965 455.1 388.349 455.1C386.732 455.1 385.422 456.415 385.422 458.037C385.422 459.66 386.732 460.975 388.349 460.975Z" fill="white"/>
<path d="M383.282 491.481C384.899 491.481 386.209 490.165 386.209 488.543C386.209 486.921 384.899 485.605 383.282 485.605C381.666 485.605 380.355 486.921 380.355 488.543C380.355 490.165 381.666 491.481 383.282 491.481Z" fill="white"/>
<path d="M370.675 464.59C372.291 464.59 373.601 463.275 373.601 461.653C373.601 460.03 372.291 458.715 370.675 458.715C369.058 458.715 367.748 460.03 367.748 461.653C367.748 463.275 369.058 464.59 370.675 464.59Z" fill="white"/>
<path d="M399.153 503.118C400.77 503.118 402.08 501.803 402.08 500.18C402.08 498.558 400.77 497.243 399.153 497.243C397.537 497.243 396.227 498.558 396.227 500.18C396.227 501.803 397.537 503.118 399.153 503.118Z" fill="white"/>
<path d="M403.882 461.766C404.558 461.766 405.346 461.54 405.796 461.088L401.631 456.907C401.181 457.472 400.956 458.037 400.956 458.828C400.843 460.41 402.194 461.766 403.882 461.766Z" fill="white"/>
<path d="M415.927 496.678C417.543 496.678 418.853 495.363 418.853 493.74C418.853 492.118 417.543 490.803 415.927 490.803C414.31 490.803 413 492.118 413 493.74C413 495.363 414.31 496.678 415.927 496.678Z" fill="white"/>
<path d="M423.693 478.939L419.529 474.872C418.741 475.437 418.178 476.341 418.178 477.358C418.178 479.052 419.529 480.295 421.104 480.295C422.343 480.182 423.243 479.73 423.693 478.939Z" fill="white"/>
<path d="M454.085 551.814C455.701 551.814 457.012 550.499 457.012 548.877C457.012 547.254 455.701 545.939 454.085 545.939C452.469 545.939 451.158 547.254 451.158 548.877C451.158 550.499 452.469 551.814 454.085 551.814Z" fill="white"/>
<path d="M443.729 572.829C445.346 572.829 446.656 571.514 446.656 569.892C446.656 568.269 445.346 566.954 443.729 566.954C442.113 566.954 440.803 568.269 440.803 569.892C440.803 571.514 442.113 572.829 443.729 572.829Z" fill="white"/>
<path d="M406.134 525.263C407.75 525.263 409.06 523.948 409.06 522.325C409.06 520.703 407.75 519.388 406.134 519.388C404.517 519.388 403.207 520.703 403.207 522.325C403.207 523.948 404.517 525.263 406.134 525.263Z" fill="white"/>
<path d="M430.446 560.74C432.063 560.74 433.373 559.425 433.373 557.802C433.373 556.18 432.063 554.865 430.446 554.865C428.83 554.865 427.52 556.18 427.52 557.802C427.52 559.425 428.83 560.74 430.446 560.74Z" fill="white"/>
<path d="M444.517 536.9C446.133 536.9 447.443 535.585 447.443 533.963C447.443 532.34 446.133 531.025 444.517 531.025C442.9 531.025 441.59 532.34 441.59 533.963C441.59 535.585 442.9 536.9 444.517 536.9Z" fill="white"/>
<path d="M429.321 586.274C430.938 586.274 432.248 584.959 432.248 583.337C432.248 581.714 430.938 580.399 429.321 580.399C427.705 580.399 426.395 581.714 426.395 583.337C426.395 584.959 427.705 586.274 429.321 586.274Z" fill="white"/>
<path d="M409.511 559.384C411.127 559.384 412.437 558.069 412.437 556.446C412.437 554.824 411.127 553.509 409.511 553.509C407.894 553.509 406.584 554.824 406.584 556.446C406.584 558.069 407.894 559.384 409.511 559.384Z" fill="white"/>
<path d="M467.593 531.251C469.209 531.251 470.519 529.936 470.519 528.313C470.519 526.691 469.209 525.376 467.593 525.376C465.976 525.376 464.666 526.691 464.666 528.313C464.666 529.936 465.976 531.251 467.593 531.251Z" fill="white"/>
<path d="M385.308 520.743C386.924 520.743 388.234 519.428 388.234 517.806C388.234 516.183 386.924 514.868 385.308 514.868C383.691 514.868 382.381 516.183 382.381 517.806C382.381 519.428 383.691 520.743 385.308 520.743Z" fill="white"/>
<path d="M344.448 606.611C346.065 606.611 347.375 605.296 347.375 603.674C347.375 602.051 346.065 600.736 344.448 600.736C342.832 600.736 341.521 602.051 341.521 603.674C341.521 605.296 342.832 606.611 344.448 606.611Z" fill="white"/>
<path d="M342.309 584.127C342.984 582.659 342.309 580.851 340.845 580.173C339.382 579.495 337.581 580.173 336.905 581.642C336.23 583.111 336.905 584.918 338.369 585.596C339.945 586.274 341.633 585.596 342.309 584.127Z" fill="white"/>
<path d="M334.992 596.104C333.528 595.426 331.727 596.104 331.052 597.573C330.377 599.042 331.052 600.849 332.515 601.527C333.979 602.205 335.78 601.527 336.455 600.058C337.13 598.59 336.568 596.782 334.992 596.104Z" fill="white"/>
<path d="M326.101 559.045C327.717 559.045 329.027 557.73 329.027 556.108C329.027 554.485 327.717 553.17 326.101 553.17C324.484 553.17 323.174 554.485 323.174 556.108C323.174 557.73 324.484 559.045 326.101 559.045Z" fill="white"/>
<path d="M324.637 574.637C324.637 576.332 323.286 577.574 321.71 577.574C321.373 577.574 321.035 577.574 320.81 577.461H320.697C320.36 575.767 320.135 574.185 319.797 572.49C319.797 572.49 319.909 572.49 319.909 572.377C320.36 571.925 321.035 571.699 321.71 571.699C323.286 571.699 324.637 573.055 324.637 574.637Z" fill="white"/>
<path d="M339.044 569.101C340.66 569.101 341.971 567.785 341.971 566.163C341.971 564.541 340.66 563.225 339.044 563.225C337.428 563.225 336.117 564.541 336.117 566.163C336.117 567.785 337.428 569.101 339.044 569.101Z" fill="white"/>
<path d="M319.571 552.153C319.571 553.622 318.558 554.752 317.207 555.091H317.095C316.757 553.17 316.532 551.136 316.307 549.215H316.419C316.532 549.215 316.532 549.215 316.644 549.215C318.22 549.102 319.571 550.458 319.571 552.153Z" fill="white"/>
<path d="M320.583 515.998C322.199 515.998 323.51 514.683 323.51 513.061C323.51 511.438 322.199 510.123 320.583 510.123C318.967 510.123 317.656 511.438 317.656 513.061C317.656 514.683 318.967 515.998 320.583 515.998Z" fill="white"/>
<path d="M316.756 527.522C316.756 529.104 315.518 530.347 313.942 530.46H313.83C313.605 528.426 313.379 526.506 313.154 524.585H313.267C313.379 524.585 313.605 524.585 313.83 524.585C315.406 524.585 316.756 525.941 316.756 527.522Z" fill="white"/>
<path d="M423.13 530.121C424.746 530.121 426.056 528.806 426.056 527.184C426.056 525.561 424.746 524.246 423.13 524.246C421.513 524.246 420.203 525.561 420.203 527.184C420.203 528.806 421.513 530.121 423.13 530.121Z" fill="white"/>
<path d="M315.632 496.339C317.248 496.339 318.558 495.024 318.558 493.401C318.558 491.779 317.248 490.464 315.632 490.464C314.015 490.464 312.705 491.779 312.705 493.401C312.705 495.024 314.015 496.339 315.632 496.339Z" fill="white"/>
<path d="M436.751 522.212C438.367 522.212 439.678 520.897 439.678 519.275C439.678 517.652 438.367 516.337 436.751 516.337C435.135 516.337 433.824 517.652 433.824 519.275C433.824 520.897 435.135 522.212 436.751 522.212Z" fill="white"/>
<path d="M454.873 510.01C453.972 510.575 453.297 511.479 453.297 512.609C453.297 514.303 454.648 515.546 456.224 515.546C457.349 515.546 458.362 514.868 458.813 513.964L454.873 510.01Z" fill="white"/>
<path d="M394.651 540.968C396.268 540.968 397.578 539.652 397.578 538.03C397.578 536.408 396.268 535.092 394.651 535.092C393.035 535.092 391.725 536.408 391.725 538.03C391.725 539.652 393.035 540.968 394.651 540.968Z" fill="white"/>
<path d="M438.327 507.75C439.943 507.75 441.254 506.435 441.254 504.813C441.254 503.19 439.943 501.875 438.327 501.875C436.711 501.875 435.4 503.19 435.4 504.813C435.4 506.435 436.711 507.75 438.327 507.75Z" fill="white"/>
<path opacity="0.33" d="M453.185 573.62C446.431 585.822 448.119 597.008 438.101 600.171C434.837 601.188 429.321 602.544 423.13 603.9C405.007 607.967 380.018 612.6 380.018 612.6C380.018 612.6 380.018 612.6 379.905 612.6C377.204 613.277 339.269 621.977 333.529 623.898C330.264 624.915 325.199 604.013 320.696 577.461H320.584C320.246 575.767 320.021 574.185 319.683 572.49C319.683 572.49 319.796 572.49 319.796 572.377C319.796 572.151 319.683 571.812 319.683 571.586C318.783 566.276 317.995 560.74 317.094 555.091H316.982C316.644 553.17 316.419 551.136 316.194 549.215H316.306C316.306 548.876 316.194 548.651 316.194 548.312C315.406 542.323 314.618 536.335 313.942 530.573H313.83C313.605 528.539 313.38 526.619 313.155 524.698H313.267C313.267 524.359 313.155 524.133 313.155 523.794C311.804 511.479 310.791 500.18 310.453 491.707C310.115 482.329 310.453 476.341 312.029 475.663C312.141 475.55 312.367 475.55 312.592 475.663L323.398 471.482L330.377 468.771L357.618 458.15L367.186 454.422C379.117 461.427 396.565 474.759 400.392 494.644C400.617 495.774 400.842 496.904 401.18 498.147C401.405 499.051 401.743 499.954 402.081 500.971C410.298 524.585 439.452 558.48 453.185 573.62Z" fill="black"/>
<path d="M467.932 673.272L458.927 665.702L472.66 686.265L474.011 688.186C476.15 692.14 472.885 691.688 472.885 691.688L457.014 680.051L471.872 697.677L472.66 698.58C476.6 705.698 471.084 702.761 471.084 702.761L466.807 699.71C463.542 696.321 456.226 691.914 450.485 685.248C451.948 686.943 459.49 695.869 460.391 699.71C461.404 703.891 458.139 700.953 457.689 700.727C457.464 700.614 453.412 696.999 449.359 693.383C445.307 689.881 441.367 686.265 441.367 686.265L445.532 698.128C445.982 700.953 444.519 699.371 444.294 699.371L442.605 697.338L437.653 689.09C436.752 683.102 429.098 666.493 425.608 659.827C425.608 659.827 425.608 659.714 425.496 659.714C425.496 659.714 425.496 659.714 425.496 659.601C425.045 658.697 424.595 658.019 424.37 657.567C424.257 657.341 424.032 657.002 423.807 656.663C419.98 651.466 405.234 633.728 387.787 620.056C369.101 605.594 339.609 548.199 336.007 542.775C334.206 540.064 332.517 535.092 331.392 530.799C330.153 526.506 329.478 522.89 329.478 522.89L318.897 429.791L318.672 428.097L320.585 429.565L330.041 436.796L358.295 458.263C358.295 458.263 380.808 506.959 381.595 523.907C382.046 532.381 383.847 537.917 385.648 541.307C387.449 544.696 389.137 546.052 389.137 546.052C389.137 546.052 448.797 647.851 454.762 654.404C460.728 660.844 469.171 664.911 473.561 671.012C477.951 677 472.21 676.322 472.097 676.322L467.932 673.272Z" fill="#FDBBA7"/>
<path d="M351.654 545.261C363.473 559.271 413.114 639.716 423.695 656.776C419.868 651.579 405.122 633.728 387.675 620.169C368.989 605.708 339.497 548.312 335.895 542.888C334.094 540.177 332.405 535.205 331.28 530.912C330.042 526.619 329.366 523.003 329.366 523.003L318.785 429.904L320.474 429.678L329.141 428.548C329.141 428.548 329.479 431.712 330.042 436.909C332.405 461.54 340.735 532.381 351.654 545.261Z" fill="#FB8F6D"/>
<path d="M341.635 541.42C341.635 541.42 348.163 554.074 350.19 545.939C352.328 537.804 344.899 537.917 345.575 541.533" stroke="#4C4A4A" stroke-miterlimit="10"/>
<path d="M377.992 323.472C366.961 337.37 335.443 325.732 335.443 325.732C324.975 339.629 305.726 336.579 305.726 336.579L314.168 359.175C296.383 372.508 321.147 374.089 321.71 373.863C324.637 377.253 326.776 380.755 328.577 384.258C339.833 406.855 328.914 428.661 328.914 428.661C328.914 428.661 327.789 430.694 325.875 434.084C325.762 434.31 325.537 434.649 325.425 434.875C323.961 437.247 322.273 440.298 320.134 443.688C317.996 447.077 315.632 451.031 312.93 455.099C305.276 466.849 295.595 480.746 285.127 492.949C271.844 508.427 257.436 521.082 244.716 522.889C209.371 527.748 178.978 574.41 159.73 590.567C145.209 602.769 83.1858 607.514 53.5813 609.209C44.0133 609.774 37.8223 609.887 37.8223 609.887C37.8223 609.887 53.919 596.216 65.9634 570.456C78.0078 544.695 85.212 553.508 109.301 534.979C133.39 516.449 140.931 492.723 154.214 457.698C163.444 433.519 165.133 384.145 219.839 359.627C238.863 351.154 247.53 323.924 248.093 321.552C256.986 287.996 307.302 253.535 343.323 276.245C343.885 276.584 344.448 276.923 344.898 277.262C350.639 281.216 356.042 285.397 360.432 288.899C366.286 293.645 370.225 297.147 370.225 297.147C370.225 297.147 389.024 309.575 377.992 323.472Z" fill="#3A2B2B"/>
<path opacity="0.38" d="M360.32 288.787L356.268 288.448C350.64 288.448 307.303 273.082 289.742 306.978C272.07 340.76 253.834 378.836 229.746 392.62C205.657 406.291 175.827 471.257 162.207 507.524C148.587 543.792 107.613 549.441 92.4168 574.298C84.5373 587.178 68.8908 599.493 53.6946 608.984C44.1266 609.549 37.9355 609.662 37.9355 609.662C37.9355 609.662 54.0323 595.991 66.0767 570.231C78.1211 544.47 85.3252 553.283 109.414 534.754C133.503 516.224 141.045 492.497 154.327 457.472C163.558 433.294 165.246 383.92 219.952 359.402C238.976 350.928 247.643 323.699 248.206 321.327C257.099 287.77 307.415 253.31 343.436 276.02C343.999 276.359 344.561 276.698 345.012 277.037C350.64 281.104 356.043 285.285 360.32 288.787Z" fill="black"/>
<path d="M134.531 740.6C135.068 737.717 131.938 734.71 127.538 733.883C123.138 733.057 119.136 734.723 118.598 737.606C118.061 740.489 121.192 743.496 125.591 744.322C129.991 745.149 133.993 743.482 134.531 740.6Z" fill="#BC223F" stroke="#4C4A4A" stroke-miterlimit="10"/>
<path d="M139.017 731.346L132.826 742.983L195.412 761.287L197.776 750.214L139.017 731.346Z" fill="#BC223F" stroke="#4C4A4A" stroke-miterlimit="10"/>
<path d="M61.3473 707.506L58.5332 719.369L118.418 739.029L130.124 729.651L61.3473 707.506Z" fill="#BC223F" stroke="#4C4A4A" stroke-miterlimit="10"/>
<path d="M69.9025 686.717C69.9025 686.717 131.588 691.462 143.182 709.201C143.182 709.201 188.208 695.643 223.666 735.074C222.202 733.379 213.422 739.142 210.158 744.113C206.894 749.197 202.954 761.625 202.954 761.625C202.954 761.625 142.844 730.442 130.012 740.498C130.012 740.498 71.4784 702.535 53.3555 715.641C53.5806 715.641 60.3345 688.864 69.9025 686.717Z" fill="white" stroke="#4C4A4A" stroke-miterlimit="10"/>
<path opacity="0.28" d="M128.098 738.916C120.444 728.182 61.9102 703.665 61.9102 703.665C62.473 696.321 71.0279 687.282 71.0279 687.282C71.0279 687.282 71.253 687.508 71.7033 687.96C69.3394 691.123 67.4258 694.513 66.1876 698.128C66.1876 698.128 107.274 710.557 125.284 733.041C127.085 736.317 127.986 738.577 128.098 738.916Z" fill="#4C4A4A" stroke="#4C4A4A" stroke-miterlimit="10"/>
<path opacity="0.28" d="M198.676 752.474C198.676 752.474 153.538 734.396 138.792 737.786C124.158 741.062 139.017 737.334 139.017 737.334L139.129 737.221C152.637 734.848 177.851 732.815 197.663 744.339C197.663 744.339 201.49 732.137 209.144 722.42C211.396 724.115 212.746 725.245 212.634 725.584C212.634 725.471 198.001 740.497 198.676 752.474Z" fill="#4C4A4A"/>
<path d="M66.1875 698.128C66.1875 698.128 114.928 712.816 129.449 739.255C129.449 739.255 169.072 727.73 197.663 744.339C197.663 744.339 206.893 714.963 225.241 711.009C225.241 711.009 153.087 690.672 143.182 705.585C143.182 705.585 112.564 666.832 90.1638 671.012C90.1638 670.899 71.2529 682.876 66.1875 698.128Z" fill="white" stroke="#4C4A4A" stroke-miterlimit="10"/>
<path opacity="0.28" d="M84.4239 680.503C84.4239 680.503 78.1202 687.056 75.5312 687.621C76.5443 686.152 130.913 728.295 128.662 736.995C128.662 736.995 130.463 713.607 84.4239 680.503Z" fill="#4C4A4A" stroke="#4C4A4A" stroke-miterlimit="10"/>
<path opacity="0.28" d="M198.563 735.978C198.563 735.978 158.94 726.939 133.613 737.447L134.176 736.204C144.419 729.99 170.422 717.788 198.676 730.781C198.676 730.781 198.788 730.555 198.901 730.103C198.338 732.589 197.888 735.187 198.563 735.978Z" fill="#4C4A4A" stroke="#4C4A4A" stroke-miterlimit="10"/>
<path d="M74.6309 674.515C74.6309 674.515 125.848 702.196 129.45 739.255C129.45 739.255 162.094 713.946 198.564 730.781C198.564 730.781 204.868 707.054 223.666 702.535C223.666 702.535 155.452 675.984 143.295 701.744C143.295 701.744 128.212 659.714 105.023 647.851C105.023 647.851 98.7197 661.635 74.6309 674.515Z" fill="white" stroke="#4C4A4A" stroke-miterlimit="10"/>
<path d="M143.294 701.744C143.294 701.744 134.514 718.014 136.09 724.115Z" fill="white"/>
<path d="M143.294 701.744C143.294 701.744 134.514 718.014 136.09 724.115" stroke="#4C4A4A" stroke-miterlimit="10"/>
<path opacity="0.28" d="M138.342 691.349C138.342 691.349 118.418 668.188 125.847 723.211C125.847 723.211 130.8 737.221 130.012 738.803C130.012 738.803 131.925 736.543 138.567 733.041C138.567 733.041 146.897 695.53 154.101 693.157C154.101 693.157 146.446 696.434 144.082 701.518L142.619 701.292L138.342 691.349Z" fill="#4C4A4A"/>
<path d="M244.262 972.403C245.38 969.693 241.165 965.367 234.847 962.741C228.529 960.114 222.5 960.181 221.382 962.89C220.264 965.6 224.479 969.926 230.797 972.553C237.115 975.18 243.144 975.113 244.262 972.403Z" fill="#4C4A4A" stroke="#4C4A4A" stroke-miterlimit="10"/>
<path d="M247.303 958.444L239.086 972.228L324.86 983.639L333.978 967.596L247.303 958.444Z" fill="#4C4A4A" stroke="#4C4A4A" stroke-miterlimit="10"/>
<path d="M167.158 913.589L159.842 922.063L222.428 963.415L236.048 954.941L167.158 913.589Z" fill="#4C4A4A" stroke="#4C4A4A" stroke-miterlimit="10"/>
<path d="M159.729 915.171C159.729 915.171 194.061 922.628 230.419 970.081C230.419 970.081 307.751 959.574 336.23 985.108C336.23 985.108 333.528 946.468 359.306 933.361C359.306 933.361 275.895 896.981 253.045 923.306C253.045 923.306 234.021 862.52 193.048 871.107C193.16 871.107 171.323 899.466 159.729 915.171Z" fill="white" stroke="#4C4A4A" stroke-miterlimit="10"/>
<path d="M163.781 903.195C163.781 903.195 209.708 921.385 230.419 970.081C230.419 970.081 289.066 951.439 328.351 973.471C328.351 973.471 328.463 930.085 352.102 917.544C352.102 917.544 272.519 893.817 253.158 923.306C253.158 923.306 254.171 875.626 195.637 856.984C195.637 856.984 167.834 891.331 163.781 903.195Z" fill="white" stroke="#4C4A4A" stroke-miterlimit="10"/>
<path opacity="0.28" d="M322.384 955.506C322.384 955.506 319.119 961.155 321.258 963.302C321.258 963.302 265.539 953.586 235.709 967.934C235.709 967.821 290.528 934.039 322.384 955.506Z" fill="black"/>
<path d="M325.085 956.862C302.572 939.801 270.378 949.857 250.004 959.348C238.298 964.771 230.531 970.081 230.531 970.081C231.881 964.545 230.418 957.54 227.266 949.744C215.672 921.272 181.34 884.213 181.34 884.213C192.146 881.05 214.546 846.929 214.546 846.929C229.18 843.765 240.211 868.509 246.74 889.75C251.468 904.889 253.944 918.334 253.944 918.334C256.308 914.493 260.022 911.555 264.863 909.183C292.779 895.625 354.464 904.55 354.464 904.55C332.964 908.392 325.085 956.862 325.085 956.862Z" fill="white" stroke="#4C4A4A" stroke-miterlimit="10"/>
<path d="M253.72 918.221C253.72 918.221 244.94 932.683 244.377 945.902Z" fill="white"/>
<path d="M253.72 918.221C253.72 918.221 244.94 932.683 244.377 945.902" stroke="#4C4A4A" stroke-miterlimit="10"/>
<path opacity="0.28" d="M249.892 959.348C238.186 964.771 230.419 970.081 230.419 970.081C231.769 964.545 230.306 957.54 227.154 949.744C239.987 928.39 247.754 890.201 245.727 889.072C245.727 889.072 246.065 889.298 246.628 889.636C251.356 904.776 253.832 918.221 253.832 918.221C256.196 914.38 259.911 911.442 264.751 909.07C264.526 909.296 264.075 909.522 263.625 909.748C258.222 911.781 253.157 938.784 249.892 959.348Z" fill="black"/>
<path opacity="0.28" d="M204.416 861.051C197.775 869.977 189.107 880.259 182.916 883.535C190.683 875.174 201.602 859.922 201.602 859.922L204.416 861.051Z" fill="black"/>
<path opacity="0.28" d="M230.87 964.884L229.969 966.805C229.744 957.992 176.389 888.846 176.389 888.846C177.514 888.733 179.428 887.151 181.679 884.778C187.082 890.653 230.082 938.672 230.87 964.884Z" fill="black"/>
<path opacity="0.28" d="M162.543 912.459C162.543 912.459 206.443 940.14 226.592 964.093C226.592 964.093 210.608 927.938 167.721 905.567L162.543 912.459Z" fill="black"/>
<path d="M724.796 297.84C725.062 296.367 722.452 294.657 718.965 294.022C715.479 293.387 712.436 294.066 712.17 295.54C711.904 297.013 714.514 298.723 718 299.358C721.487 299.993 724.529 299.314 724.796 297.84Z" fill="#4C4A4A" stroke="#4C4A4A" stroke-miterlimit="10"/>
<path d="M724.916 290.369L722.215 298.278L767.016 294.549L769.942 285.398L724.916 290.369Z" fill="#4C4A4A" stroke="#4C4A4A" stroke-miterlimit="10"/>
<path d="M679.215 276.472L676.4 281.556L712.759 295.679L718.725 289.804L679.215 276.472Z" fill="#4C4A4A" stroke="#4C4A4A" stroke-miterlimit="10"/>
<path d="M675.613 278.054C675.613 278.054 693.849 278.054 717.6 298.165C717.6 298.165 755.759 284.268 773.094 294.097C773.094 294.097 767.466 274.777 779.173 265.287C779.173 265.287 732.796 256.022 724.129 271.953C724.129 271.953 707.807 243.142 687.883 252.067C687.77 251.954 679.778 268.789 675.613 278.054Z" fill="white" stroke="#4C4A4A" stroke-miterlimit="10"/>
<path d="M676.4 271.501C676.4 271.501 701.727 275.681 717.599 298.165C717.599 298.165 745.402 282.234 767.69 289.126C767.69 289.126 762.962 267.094 773.656 258.056C773.656 258.056 730.656 254.779 724.015 271.953C724.015 271.953 719.287 247.548 687.544 244.61C687.432 244.497 677.188 265.061 676.4 271.501Z" fill="white" stroke="#4C4A4A" stroke-miterlimit="10"/>
<path opacity="0.28" d="M762.625 280.539C762.625 280.539 761.612 283.816 762.963 284.607C762.963 284.607 733.583 285.85 719.963 296.357C719.963 296.47 744.164 273.195 762.625 280.539Z" fill="black"/>
<path d="M764.202 280.991C750.919 274.777 735.611 283.477 726.268 290.595C720.977 294.662 717.488 298.278 717.488 298.278C717.6 295.34 716.024 291.951 713.548 288.335C704.543 275.116 683.043 260.089 683.043 260.089C688.221 257.265 695.875 237.492 695.875 237.492C702.967 234.216 711.297 245.627 716.925 255.683C720.977 262.914 723.679 269.354 723.679 269.354C724.467 267.207 726.043 265.174 728.181 263.479C740.901 253.536 773.207 251.164 773.207 251.164C762.851 255.457 764.202 280.991 764.202 280.991Z" fill="white" stroke="#4C4A4A" stroke-miterlimit="10"/>
<path d="M723.79 269.241C723.79 269.241 720.976 277.602 722.102 284.381Z" fill="white"/>
<path d="M723.79 269.241C723.79 269.241 720.976 277.602 722.102 284.381" stroke="#4C4A4A" stroke-miterlimit="10"/>
<path opacity="0.28" d="M726.267 290.482C720.976 294.549 717.487 298.165 717.487 298.165C717.599 295.227 716.023 291.838 713.547 288.222C717.712 275.907 717.487 255.683 716.361 255.344C716.361 255.344 716.586 255.457 716.924 255.57C720.976 262.801 723.678 269.241 723.678 269.241C724.466 267.094 726.042 265.061 728.18 263.366C728.068 263.592 727.955 263.705 727.73 263.818C725.366 265.512 725.704 279.748 726.267 290.482Z" fill="black"/>
<path opacity="0.28" d="M692.386 245.627C689.909 250.825 686.757 257.152 683.943 259.411C686.983 254.327 690.81 245.401 690.81 245.401L692.386 245.627Z" fill="black"/>
<path opacity="0.28" d="M717.263 295.453L717.038 296.583C715.912 292.177 681.242 262.914 681.242 262.914C681.805 262.688 682.593 261.671 683.493 260.315C686.87 262.575 713.886 282.234 717.263 295.453Z" fill="black"/>
<path opacity="0.28" d="M676.738 276.359C676.738 276.359 702.065 285.624 714.898 295.453C714.898 295.453 702.853 278.845 678.539 272.179L676.738 276.359Z" fill="black"/>
<defs>
<linearGradient id="paint0_linear" x1="115.018" y1="740.997" x2="426.866" y2="740.997" gradientUnits="userSpaceOnUse">
<stop offset="1" stop-color="#3E66F4" stop-opacity="0.22"/>
</linearGradient>
<linearGradient id="paint1_linear" x1="163.117" y1="208.484" x2="398.456" y2="208.484" gradientUnits="userSpaceOnUse">
<stop offset="1" stop-color="#3E66F4" stop-opacity="0.22"/>
</linearGradient>
<linearGradient id="paint2_linear" x1="522.399" y1="526.724" x2="757.739" y2="526.724" gradientUnits="userSpaceOnUse">
<stop offset="1" stop-color="#3E66F4" stop-opacity="0.22"/>
</linearGradient>
</defs>
</svg>
