<svg width="16" height="16" viewBox="0 0 16 16" fill="none" xmlns="http://www.w3.org/2000/svg">
<g clip-path="url(#clip0)">
<path d="M10.9143 0.777832H4.64124C2.51096 0.777832 0.777832 2.51104 0.777832 4.64133V10.9143C0.777832 13.0447 2.51096 14.7778 4.64124 14.7778H10.9143C13.0447 14.7778 14.7778 13.0446 14.7778 10.9143V4.64133C14.7779 2.51104 13.0447 0.777832 10.9143 0.777832ZM13.5358 10.9143C13.5358 12.3598 12.3598 13.5357 10.9143 13.5357H4.64124C3.19588 13.5358 2.01998 12.3598 2.01998 10.9143V4.64133C2.01998 3.19596 3.19588 2.01998 4.64124 2.01998H10.9143C12.3597 2.01998 13.5357 3.19596 13.5357 4.64133V10.9143H13.5358Z" fill="black"/>
<path d="M7.77737 4.17041C5.78819 4.17041 4.16992 5.78868 4.16992 7.77786C4.16992 9.76695 5.78819 11.3851 7.77737 11.3851C9.76654 11.3851 11.3848 9.76695 11.3848 7.77786C11.3848 5.78868 9.76654 4.17041 7.77737 4.17041ZM7.77737 10.1429C6.4732 10.1429 5.41207 9.08194 5.41207 7.77777C5.41207 6.47352 6.47311 5.41248 7.77737 5.41248C9.08162 5.41248 10.1427 6.47352 10.1427 7.77777C10.1427 9.08194 9.08154 10.1429 7.77737 10.1429Z" fill="black"/>
<path d="M11.5364 3.11719C11.2971 3.11719 11.062 3.21408 10.893 3.38384C10.7231 3.55277 10.6255 3.78795 10.6255 4.0281C10.6255 4.2675 10.7232 4.5026 10.893 4.67236C11.0619 4.84129 11.2971 4.939 11.5364 4.939C11.7765 4.939 12.0109 4.84129 12.1807 4.67236C12.3504 4.5026 12.4473 4.26742 12.4473 4.0281C12.4473 3.78795 12.3504 3.55277 12.1807 3.38384C12.0117 3.21408 11.7765 3.11719 11.5364 3.11719Z" fill="black"/>
</g>
<defs>
<clipPath id="clip0">
<rect width="14.4444" height="14.4444" fill="white" transform="translate(0.777832 0.777832)"/>
</clipPath>
</defs>
</svg>
