<svg width="124" height="19" viewBox="0 0 124 19" fill="none" xmlns="http://www.w3.org/2000/svg">
<path d="M12.856 15.384V18H0.256V1.2H12.52V3.816H3.376V8.184H11.488V10.752H3.376V15.384H12.856ZM28.2381 9.264C29.1661 9.568 29.9021 10.08 30.4461 10.8C30.9901 11.504 31.2621 12.384 31.2621 13.44C31.2621 14.896 30.7021 16.024 29.5821 16.824C28.4621 17.608 26.8301 18 24.6861 18H16.3341V1.2H24.2061C26.1901 1.2 27.7181 1.592 28.7901 2.376C29.8621 3.144 30.3981 4.208 30.3981 5.568C30.3981 6.4 30.2061 7.136 29.8221 7.776C29.4381 8.416 28.9101 8.912 28.2381 9.264ZM19.4541 3.648V8.28H23.8701C24.9581 8.28 25.7901 8.088 26.3661 7.704C26.9581 7.304 27.2541 6.728 27.2541 5.976C27.2541 5.208 26.9581 4.632 26.3661 4.248C25.7901 3.848 24.9581 3.648 23.8701 3.648H19.4541ZM24.4941 15.552C26.9101 15.552 28.1181 14.744 28.1181 13.128C28.1181 11.512 26.9101 10.704 24.4941 10.704H19.4541V15.552H24.4941ZM40.0639 18.168C38.7679 18.168 37.5999 17.888 36.5599 17.328C35.5199 16.768 34.7039 15.992 34.1119 15C33.5359 13.992 33.2479 12.856 33.2479 11.592C33.2479 10.328 33.5359 9.2 34.1119 8.208C34.7039 7.216 35.5199 6.44 36.5599 5.88C37.5999 5.32 38.7679 5.04 40.0639 5.04C41.3759 5.04 42.5519 5.32 43.5919 5.88C44.6319 6.44 45.4399 7.216 46.0159 8.208C46.6079 9.2 46.9039 10.328 46.9039 11.592C46.9039 12.856 46.6079 13.992 46.0159 15C45.4399 15.992 44.6319 16.768 43.5919 17.328C42.5519 17.888 41.3759 18.168 40.0639 18.168ZM40.0639 15.6C41.1679 15.6 42.0799 15.232 42.7999 14.496C43.5199 13.76 43.8799 12.792 43.8799 11.592C43.8799 10.392 43.5199 9.424 42.7999 8.688C42.0799 7.952 41.1679 7.584 40.0639 7.584C38.9599 7.584 38.0479 7.952 37.3279 8.688C36.6239 9.424 36.2719 10.392 36.2719 11.592C36.2719 12.792 36.6239 13.76 37.3279 14.496C38.0479 15.232 38.9599 15.6 40.0639 15.6ZM55.5327 18.168C54.2367 18.168 53.0687 17.888 52.0287 17.328C50.9887 16.768 50.1727 15.992 49.5807 15C49.0047 13.992 48.7167 12.856 48.7167 11.592C48.7167 10.328 49.0047 9.2 49.5807 8.208C50.1727 7.216 50.9887 6.44 52.0287 5.88C53.0687 5.32 54.2367 5.04 55.5327 5.04C56.8447 5.04 58.0207 5.32 59.0607 5.88C60.1007 6.44 60.9087 7.216 61.4847 8.208C62.0767 9.2 62.3727 10.328 62.3727 11.592C62.3727 12.856 62.0767 13.992 61.4847 15C60.9087 15.992 60.1007 16.768 59.0607 17.328C58.0207 17.888 56.8447 18.168 55.5327 18.168ZM55.5327 15.6C56.6367 15.6 57.5487 15.232 58.2687 14.496C58.9887 13.76 59.3487 12.792 59.3487 11.592C59.3487 10.392 58.9887 9.424 58.2687 8.688C57.5487 7.952 56.6367 7.584 55.5327 7.584C54.4287 7.584 53.5167 7.952 52.7967 8.688C52.0927 9.424 51.7407 10.392 51.7407 11.592C51.7407 12.792 52.0927 13.76 52.7967 14.496C53.5167 15.232 54.4287 15.6 55.5327 15.6ZM70.4734 12.504L68.2414 14.616V18H65.2414V0.191999H68.2414V10.944L74.4574 5.184H78.0574L72.7054 10.56L78.5614 18H74.9134L70.4734 12.504ZM80.7873 1.2H83.9073V15.36H92.6913V18H80.7873V1.2ZM107.157 5.184V18H104.301V16.368C103.821 16.944 103.221 17.392 102.501 17.712C101.781 18.016 101.005 18.168 100.173 18.168C98.4613 18.168 97.1093 17.696 96.1173 16.752C95.1413 15.792 94.6533 14.376 94.6533 12.504V5.184H97.6533V12.096C97.6533 13.248 97.9093 14.112 98.4213 14.688C98.9493 15.248 99.6933 15.528 100.653 15.528C101.725 15.528 102.573 15.2 103.197 14.544C103.837 13.872 104.157 12.912 104.157 11.664V5.184H107.157ZM123.085 5.184L117.589 18H114.493L108.997 5.184H112.117L116.101 14.688L120.205 5.184H123.085Z" fill="black"/>
</svg>
