<svg width="18" height="20" viewBox="0 0 18 20" fill="none" xmlns="http://www.w3.org/2000/svg">
<path fill-rule="evenodd" clip-rule="evenodd" d="M12.5679 12.0538C13.611 10.7782 14.2395 9.13107 14.2395 7.33278C14.2395 3.28299 11.0519 0 7.11976 0C3.18762 0 0 3.28299 0 7.33278C0 11.3825 3.18762 14.6656 7.11976 14.6656C8.53553 14.6656 9.85481 14.2399 10.9635 13.5062L16.3797 20L18 18.5665L12.5679 12.0538ZM7.11976 12.6641C4.26089 12.6641 1.94333 10.2772 1.94333 7.33278C1.94333 4.38838 4.26089 2.00148 7.11976 2.00148C9.97863 2.00148 12.2962 4.38838 12.2962 7.33278C12.2962 10.2772 9.97863 12.6641 7.11976 12.6641Z" fill="black"/>
</svg>
