<svg width="20" height="20" viewBox="0 0 20 20" fill="none" xmlns="http://www.w3.org/2000/svg">
<path fill-rule="evenodd" clip-rule="evenodd" d="M12.941 12.0762C14.0232 10.7977 14.6757 9.14401 14.6757 7.33785C14.6757 3.28527 11.3904 0 7.33785 0C3.28527 0 0 3.28527 0 7.33785C0 11.3904 3.28527 14.6757 7.33785 14.6757C9.14401 14.6757 10.7977 14.0232 12.0762 12.941L19.1352 20L20 19.1352L12.941 12.0762ZM7.33785 13.3481C4.01847 13.3481 1.32758 10.6572 1.32758 7.33785C1.32758 4.01847 4.01847 1.32758 7.33785 1.32758C10.6572 1.32758 13.3481 4.01847 13.3481 7.33785C13.3481 10.6572 10.6572 13.3481 7.33785 13.3481Z" fill="black"/>
</svg>
