<svg width="25" height="25" viewBox="0 0 25 25" fill="none" xmlns="http://www.w3.org/2000/svg">
<path fill-rule="evenodd" clip-rule="evenodd" d="M16.4093 15.3708C17.8003 13.7426 18.6402 11.6294 18.6402 9.32009C18.6402 4.17275 14.4674 0 9.32009 0C4.17275 0 0 4.17275 0 9.32009C0 14.4674 4.17275 18.6402 9.32009 18.6402C11.6294 18.6402 13.7425 17.8003 15.3706 16.4094L23.9614 25.0001L25 23.9615L16.4093 15.3708ZM9.32009 16.954C5.10402 16.954 1.68622 13.5362 1.68622 9.32009C1.68622 5.10402 5.10402 1.68622 9.32009 1.68622C13.5362 1.68622 16.954 5.10402 16.954 9.32009C16.954 13.5362 13.5362 16.954 9.32009 16.954Z" fill="black"/>
</svg>
