<svg width="20" height="12" viewBox="0 0 20 12" fill="none" xmlns="http://www.w3.org/2000/svg">
<path fill-rule="evenodd" clip-rule="evenodd" d="M10 12C15.5228 12 20 6 20 6C20 6 15.5228 0 10 0C4.47715 0 0 6 0 6C0 6 4.47715 12 10 12ZM13.3766 5.92857C13.3766 7.94047 11.8939 9.57143 10.0649 9.57143C8.23594 9.57143 6.75325 7.94047 6.75325 5.92857C6.75325 3.91668 8.23594 2.28571 10.0649 2.28571C11.8939 2.28571 13.3766 3.91668 13.3766 5.92857ZM14.026 5.92857C14.026 8.33496 12.2526 10.2857 10.0649 10.2857C7.87731 10.2857 6.1039 8.33496 6.1039 5.92857C6.1039 3.52219 7.87731 1.57143 10.0649 1.57143C12.2526 1.57143 14.026 3.52219 14.026 5.92857Z" fill="black"/>
</svg>
