<svg width="14" height="14" viewBox="0 0 14 14" fill="none" xmlns="http://www.w3.org/2000/svg">
<path d="M13.7846 2.56147C13.28 2.79498 12.7423 2.94976 12.1817 3.02492C12.7584 2.66168 13.1985 2.09088 13.4055 1.40287C12.8678 1.74106 12.2741 1.97994 11.6415 2.11324C11.1309 1.53976 10.4033 1.18457 9.60948 1.18457C8.06937 1.18457 6.82948 2.50332 6.82948 4.12C6.82948 4.35261 6.84814 4.57628 6.89394 4.78921C4.58123 4.67022 2.53482 3.50088 1.16009 1.71959C0.920084 2.15887 0.779303 2.66168 0.779303 3.20296C0.779303 4.21931 1.27543 5.12024 2.01495 5.64184C1.56801 5.63289 1.12956 5.49601 0.758101 5.28039C0.758101 5.28934 0.758101 5.30097 0.758101 5.3126C0.758101 6.73871 1.72236 7.92326 2.98685 8.19613C2.76041 8.26145 2.51362 8.29276 2.2575 8.29276C2.07941 8.29276 1.89961 8.28202 1.73085 8.24266C2.09128 9.40484 3.11406 10.2593 4.3302 10.287C3.38375 11.068 2.18202 11.5386 0.881072 11.5386C0.65294 11.5386 0.434136 11.5279 0.215332 11.4984C1.44759 12.3367 2.90798 12.8153 4.48286 12.8153C9.60185 12.8153 12.4005 8.34197 12.4005 4.46445C12.4005 4.33472 12.3963 4.20947 12.3903 4.08511C12.9424 3.67177 13.4063 3.15554 13.7846 2.56147Z" fill="black"/>
</svg>
